<svg width="1918.758301" height="1202.000000" viewBox="0 0 1918.76 1202" fill="none" xmlns="http://www.w3.org/2000/svg" xmlns:xlink="http://www.w3.org/1999/xlink">
	<desc>
			Created with Pixso.
	</desc>
	<defs>
		<linearGradient x1="0.000000" y1="480.499878" x2="1919.000122" y2="480.499878" id="paint_linear_40_454_0" gradientUnits="userSpaceOnUse">
			<stop stop-color="#222B44" stop-opacity="0.000000"/>
			<stop offset="0.509278" stop-color="#2B3A61"/>
			<stop offset="1.000000" stop-color="#222B44" stop-opacity="0.000000"/>
		</linearGradient>
		<linearGradient x1="959.379089" y1="0.000000" x2="959.379089" y2="1202.000000" id="paint_linear_40_454_1" gradientUnits="userSpaceOnUse">
			<stop stop-color="#0F2141" stop-opacity="0.000000"/>
			<stop offset="0.415577" stop-color="#27519B"/>
			<stop offset="0.940321" stop-color="#0F2141" stop-opacity="0.000000"/>
		</linearGradient>
	</defs>
	<path id="Vector" d="M0 1202L1 1202L1 0L0 0L0 1202ZM582.06 1.24L581.06 1.24L581.06 59.97L523.96 59.97L523.96 1.24L522.96 1.24L522.96 59.97L465.85 59.97L465.85 1.24L464.85 1.24L464.85 59.97L407.74 59.97L407.74 1.24L406.74 1.24L406.74 59.97L349.64 59.97L349.64 1.24L348.64 1.24L348.64 59.97L291.53 59.97L291.53 1.24L290.53 1.24L290.53 59.97L233.43 59.97L233.43 1.24L232.43 1.24L232.43 59.97L175.31 59.97L175.31 1.24L174.31 1.24L174.31 59.97L117.21 59.97L117.21 1.24L116.21 1.24L116.21 59.97L59.1 59.97L59.1 1.24L58.1 1.24L58.1 59.97L1.24 59.97L1.24 60.97L58.1 60.97L58.1 119.95L1.24 119.95L1.24 120.95L58.1 120.95L58.1 179.92L1.24 179.92L1.24 180.92L58.1 180.92L58.1 239.9L1.24 239.9L1.24 240.9L58.1 240.9L58.1 299.88L1.24 299.88L1.24 300.88L58.1 300.88L58.1 359.85L1.24 359.85L1.24 360.85L58.1 360.85L58.1 419.83L1.24 419.83L1.24 420.83L58.1 420.83L58.1 479.8L1.24 479.8L1.24 480.8L58.1 480.8L58.1 539.78L1.24 539.78L1.24 540.78L58.1 540.78L58.1 599.76L1.24 599.76L1.24 600.76L58.1 600.76L58.1 659.73L1.24 659.73L1.24 660.73L58.1 660.73L58.1 719.71L1.24 719.71L1.24 720.71L58.1 720.71L58.1 779.69L1.24 779.69L1.24 780.69L58.1 780.69L58.1 839.66L1.24 839.66L1.24 840.66L58.1 840.66L58.1 899.64L1.24 899.64L1.24 900.64L58.1 900.64L58.1 959.61L1.24 959.61L1.24 962.1L58.1 962.1L58.1 1019.59L1.24 1019.59L1.24 1022.08L58.1 1022.08L58.1 1079.56L1.24 1079.56L1.24 1082.05L58.1 1082.05L58.1 1139.55L1.24 1139.55L1.24 1142.03L58.1 1142.03L58.1 1200.76L59.1 1200.76L59.1 1142.03L116.21 1142.03L116.21 1200.76L117.21 1200.76L117.21 1142.03L174.31 1142.03L174.31 1200.76L175.31 1200.76L175.31 1142.03L232.43 1142.03L232.43 1200.76L233.43 1200.76L233.43 1142.03L290.53 1142.03L290.53 1200.76L291.53 1200.76L291.53 1142.03L348.64 1142.03L348.64 1200.76L349.64 1200.76L349.64 1142.03L406.74 1142.03L406.74 1200.76L407.74 1200.76L407.74 1142.03L464.85 1142.03L464.85 1200.76L465.85 1200.76L465.85 1142.03L522.96 1142.03L522.96 1200.76L523.96 1200.76L523.96 1142.03L581.06 1142.03L581.06 1200.76L582.06 1200.76L582.06 1142.03L639.17 1142.03L639.17 1200.76L640.17 1200.76L640.17 1142.03L697.27 1142.03L697.27 1200.76L698.27 1200.76L698.27 1142.03L755.38 1142.03L755.38 1200.76L756.38 1200.76L756.38 1142.03L813.49 1142.03L813.49 1200.76L814.49 1200.76L814.49 1142.03L871.59 1142.03L871.59 1200.76L872.59 1200.76L872.59 1142.03L929.7 1142.03L929.7 1200.76L930.7 1200.76L930.7 1142.03L987.81 1142.03L987.81 1200.76L988.81 1200.76L988.81 1142.03L1045.92 1142.03L1045.92 1200.76L1046.92 1200.76L1046.92 1142.03L1104.03 1142.03L1104.03 1200.76L1105.03 1200.76L1105.03 1142.03L1162.13 1142.03L1162.13 1200.76L1163.13 1200.76L1163.13 1142.03L1220.24 1142.03L1220.24 1200.76L1221.24 1200.76L1221.24 1142.03L1278.34 1142.03L1278.34 1200.76L1279.34 1200.76L1279.34 1142.03L1336.45 1142.03L1336.45 1200.76L1337.45 1200.76L1337.45 1142.03L1394.56 1142.03L1394.56 1200.76L1395.56 1200.76L1395.56 1142.03L1452.66 1142.03L1452.66 1200.76L1453.66 1200.76L1453.66 1142.03L1510.77 1142.03L1510.77 1200.76L1511.77 1200.76L1511.77 1142.03L1568.87 1142.03L1568.87 1200.76L1569.87 1200.76L1569.87 1142.03L1626.98 1142.03L1626.98 1200.76L1627.98 1200.76L1627.98 1142.03L1685.09 1142.03L1685.09 1200.76L1686.09 1200.76L1686.09 1142.03L1743.2 1142.03L1743.2 1200.76L1744.2 1200.76L1744.2 1142.03L1801.3 1142.03L1801.3 1200.76L1802.3 1200.76L1802.3 1142.03L1859.41 1142.03L1859.41 1200.76L1860.41 1200.76L1860.41 1142.03L1918.76 1142.03L1918.76 1139.55L1860.41 1139.55L1860.41 1082.05L1918.76 1082.05L1918.76 1079.56L1860.41 1079.56L1860.41 1022.08L1918.76 1022.08L1918.76 1019.59L1860.41 1019.59L1860.41 962.1L1918.76 962.1L1918.76 959.61L1860.41 959.61L1860.41 900.64L1918.76 900.64L1918.76 899.64L1860.41 899.64L1860.41 840.66L1918.76 840.66L1918.76 839.66L1860.41 839.66L1860.41 780.69L1918.76 780.69L1918.76 779.69L1860.41 779.69L1860.41 720.71L1918.76 720.71L1918.76 719.71L1860.41 719.71L1860.41 660.73L1918.76 660.73L1918.76 659.73L1860.41 659.73L1860.41 600.76L1918.76 600.76L1918.76 599.76L1860.41 599.76L1860.41 540.78L1918.76 540.78L1918.76 539.78L1860.41 539.78L1860.41 480.8L1918.76 480.8L1918.76 479.8L1860.41 479.8L1860.41 420.83L1918.76 420.83L1918.76 419.83L1860.41 419.83L1860.41 360.85L1918.76 360.85L1918.76 359.85L1860.41 359.85L1860.41 300.88L1918.76 300.88L1918.76 299.88L1860.41 299.88L1860.41 240.9L1918.76 240.9L1918.76 239.9L1860.41 239.9L1860.41 180.92L1918.76 180.92L1918.76 179.92L1860.41 179.92L1860.41 120.95L1918.76 120.95L1918.76 119.95L1860.41 119.95L1860.41 60.97L1918.76 60.97L1918.76 59.97L1860.41 59.97L1860.41 1.24L1859.41 1.24L1859.41 59.97L1802.3 59.97L1802.3 1.24L1801.3 1.24L1801.3 59.97L1744.2 59.97L1744.2 1.24L1743.2 1.24L1743.2 59.97L1686.09 59.97L1686.09 1.24L1685.09 1.24L1685.09 59.97L1627.98 59.97L1627.98 1.24L1626.98 1.24L1626.98 59.97L1569.87 59.97L1569.87 1.24L1568.87 1.24L1568.87 59.97L1511.77 59.97L1511.77 1.24L1510.77 1.24L1510.77 59.97L1453.66 59.97L1453.66 1.24L1452.66 1.24L1452.66 59.97L1395.56 59.97L1395.56 1.24L1394.56 1.24L1394.56 59.97L1337.45 59.97L1337.45 1.24L1336.45 1.24L1336.45 59.97L1279.34 59.97L1279.34 1.24L1278.34 1.24L1278.34 59.97L1221.24 59.97L1221.24 1.24L1220.24 1.24L1220.24 59.97L1163.13 59.97L1163.13 1.24L1162.13 1.24L1162.13 59.97L1105.03 59.97L1105.03 1.24L1104.03 1.24L1104.03 59.97L1046.92 59.97L1046.92 1.24L1045.92 1.24L1045.92 59.97L988.81 59.97L988.81 1.24L987.81 1.24L987.81 59.97L930.7 59.97L930.7 1.24L929.7 1.24L929.7 59.97L872.59 59.97L872.59 1.24L871.59 1.24L871.59 59.97L814.49 59.97L814.49 1.24L813.49 1.24L813.49 59.97L756.38 59.97L756.38 1.24L755.38 1.24L755.38 59.97L698.27 59.97L698.27 1.24L697.27 1.24L697.27 59.97L640.17 59.97L640.17 1.24L639.17 1.24L639.17 59.97L582.06 59.97L582.06 1.24ZM581.06 60.97L581.06 119.95L523.96 119.95L523.96 60.97L581.06 60.97ZM581.06 120.95L581.06 179.92L523.96 179.92L523.96 120.95L581.06 120.95ZM581.06 180.92L581.06 239.9L523.96 239.9L523.96 180.92L581.06 180.92ZM581.06 240.9L581.06 299.88L523.96 299.88L523.96 240.9L581.06 240.9ZM581.06 300.88L581.06 359.85L523.96 359.85L523.96 300.88L581.06 300.88ZM581.06 360.85L581.06 419.83L523.96 419.83L523.96 360.85L581.06 360.85ZM581.06 420.83L581.06 479.8L523.96 479.8L523.96 420.83L581.06 420.83ZM581.06 480.8L581.06 539.78L523.96 539.78L523.96 480.8L581.06 480.8ZM581.06 540.78L581.06 599.76L523.96 599.76L523.96 540.78L581.06 540.78ZM581.06 600.76L581.06 659.73L523.96 659.73L523.96 600.76L581.06 600.76ZM581.06 660.73L581.06 719.71L523.96 719.71L523.96 660.73L581.06 660.73ZM581.06 720.71L581.06 779.69L523.96 779.69L523.96 720.71L581.06 720.71ZM581.06 780.69L581.06 839.66L523.96 839.66L523.96 780.69L581.06 780.69ZM581.06 840.66L581.06 899.64L523.96 899.64L523.96 840.66L581.06 840.66ZM581.06 900.64L581.06 959.61L523.96 959.61L523.96 900.64L581.06 900.64ZM581.06 962.1L581.06 1019.59L523.96 1019.59L523.96 962.1L581.06 962.1ZM581.06 1022.08L581.06 1079.56L523.96 1079.56L523.96 1022.08L581.06 1022.08ZM581.06 1082.05L581.06 1139.55L523.96 1139.55L523.96 1082.05L581.06 1082.05ZM582.06 1139.55L582.06 1082.05L639.17 1082.05L639.17 1139.55L582.06 1139.55ZM582.06 1079.56L582.06 1022.08L639.17 1022.08L639.17 1079.56L582.06 1079.56ZM582.06 1019.59L582.06 962.1L639.17 962.1L639.17 1019.59L582.06 1019.59ZM582.06 959.61L582.06 900.64L639.17 900.64L639.17 959.61L582.06 959.61ZM582.06 899.64L582.06 840.66L639.17 840.66L639.17 899.64L582.06 899.64ZM582.06 839.66L582.06 780.69L639.17 780.69L639.17 839.66L582.06 839.66ZM582.06 779.69L582.06 720.71L639.17 720.71L639.17 779.69L582.06 779.69ZM582.06 719.71L582.06 660.73L639.17 660.73L639.17 719.71L582.06 719.71ZM582.06 659.73L582.06 600.76L639.17 600.76L639.17 659.73L582.06 659.73ZM582.06 599.76L582.06 540.78L639.17 540.78L639.17 599.76L582.06 599.76ZM582.06 539.78L582.06 480.8L639.17 480.8L639.17 539.78L582.06 539.78ZM582.06 479.8L582.06 420.83L639.17 420.83L639.17 479.8L582.06 479.8ZM582.06 419.83L582.06 360.85L639.17 360.85L639.17 419.83L582.06 419.83ZM582.06 359.85L582.06 300.88L639.17 300.88L639.17 359.85L582.06 359.85ZM582.06 299.88L582.06 240.9L639.17 240.9L639.17 299.88L582.06 299.88ZM582.06 239.9L582.06 180.92L639.17 180.92L639.17 239.9L582.06 239.9ZM582.06 179.92L582.06 120.95L639.17 120.95L639.17 179.92L582.06 179.92ZM582.06 119.95L582.06 60.97L639.17 60.97L639.17 119.95L582.06 119.95ZM987.81 60.97L987.81 119.95L930.7 119.95L930.7 60.97L987.81 60.97ZM987.81 120.95L987.81 179.92L930.7 179.92L930.7 120.95L987.81 120.95ZM987.81 180.92L987.81 239.9L930.7 239.9L930.7 180.92L987.81 180.92ZM987.81 240.9L987.81 299.88L930.7 299.88L930.7 240.9L987.81 240.9ZM987.81 300.88L987.81 359.85L930.7 359.85L930.7 300.88L987.81 300.88ZM987.81 360.85L987.81 419.83L930.7 419.83L930.7 360.85L987.81 360.85ZM987.81 420.83L987.81 479.8L930.7 479.8L930.7 420.83L987.81 420.83ZM987.81 480.8L987.81 539.78L930.7 539.78L930.7 480.8L987.81 480.8ZM987.81 540.78L987.81 599.76L930.7 599.76L930.7 540.78L987.81 540.78ZM987.81 600.76L987.81 659.73L930.7 659.73L930.7 600.76L987.81 600.76ZM987.81 660.73L987.81 719.71L930.7 719.71L930.7 660.73L987.81 660.73ZM987.81 720.71L987.81 779.69L930.7 779.69L930.7 720.71L987.81 720.71ZM987.81 780.69L987.81 839.66L930.7 839.66L930.7 780.69L987.81 780.69ZM987.81 840.66L987.81 899.64L930.7 899.64L930.7 840.66L987.81 840.66ZM987.81 900.64L987.81 959.61L930.7 959.61L930.7 900.64L987.81 900.64ZM987.81 962.1L987.81 1019.59L930.7 1019.59L930.7 962.1L987.81 962.1ZM987.81 1022.08L987.81 1079.56L930.7 1079.56L930.7 1022.08L987.81 1022.08ZM987.81 1082.05L987.81 1139.55L930.7 1139.55L930.7 1082.05L987.81 1082.05ZM988.81 1139.55L988.81 1082.05L1045.92 1082.05L1045.92 1139.55L988.81 1139.55ZM988.81 1079.56L988.81 1022.08L1045.92 1022.08L1045.92 1079.56L988.81 1079.56ZM988.81 1019.59L988.81 962.1L1045.92 962.1L1045.92 1019.59L988.81 1019.59ZM988.81 959.61L988.81 900.64L1045.92 900.64L1045.92 959.61L988.81 959.61ZM988.81 899.64L988.81 840.66L1045.92 840.66L1045.92 899.64L988.81 899.64ZM988.81 839.66L988.81 780.69L1045.92 780.69L1045.92 839.66L988.81 839.66ZM988.81 779.69L988.81 720.71L1045.92 720.71L1045.92 779.69L988.81 779.69ZM988.81 719.71L988.81 660.73L1045.92 660.73L1045.92 719.71L988.81 719.71ZM988.81 659.73L988.81 600.76L1045.92 600.76L1045.92 659.73L988.81 659.73ZM988.81 599.76L988.81 540.78L1045.92 540.78L1045.92 599.76L988.81 599.76ZM988.81 539.78L988.81 480.8L1045.92 480.8L1045.92 539.78L988.81 539.78ZM988.81 479.8L988.81 420.83L1045.92 420.83L1045.92 479.8L988.81 479.8ZM988.81 419.83L988.81 360.85L1045.92 360.85L1045.92 419.83L988.81 419.83ZM988.81 359.85L988.81 300.88L1045.92 300.88L1045.92 359.85L988.81 359.85ZM988.81 299.88L988.81 240.9L1045.92 240.9L1045.92 299.88L988.81 299.88ZM988.81 239.9L988.81 180.92L1045.92 180.92L1045.92 239.9L988.81 239.9ZM988.81 179.92L988.81 120.95L1045.92 120.95L1045.92 179.92L988.81 179.92ZM988.81 119.95L988.81 60.97L1045.92 60.97L1045.92 119.95L988.81 119.95ZM59.1 1139.55L59.1 1082.05L116.21 1082.05L116.21 1139.55L59.1 1139.55ZM59.1 1079.56L59.1 1022.08L116.21 1022.08L116.21 1079.56L59.1 1079.56ZM59.1 1019.59L59.1 962.1L116.21 962.1L116.21 1019.59L59.1 1019.59ZM59.1 959.61L59.1 900.64L116.21 900.64L116.21 959.61L59.1 959.61ZM59.1 899.64L59.1 840.66L116.21 840.66L116.21 899.64L59.1 899.64ZM59.1 839.66L59.1 780.69L116.21 780.69L116.21 839.66L59.1 839.66ZM59.1 779.69L59.1 720.71L116.21 720.71L116.21 779.69L59.1 779.69ZM59.1 719.71L59.1 660.73L116.21 660.73L116.21 719.71L59.1 719.71ZM59.1 659.73L59.1 600.76L116.21 600.76L116.21 659.73L59.1 659.73ZM59.1 599.76L59.1 540.78L116.21 540.78L116.21 599.76L59.1 599.76ZM59.1 539.78L59.1 480.8L116.21 480.8L116.21 539.78L59.1 539.78ZM59.1 479.8L59.1 420.83L116.21 420.83L116.21 479.8L59.1 479.8ZM59.1 419.83L59.1 360.85L116.21 360.85L116.21 419.83L59.1 419.83ZM59.1 359.85L59.1 300.88L116.21 300.88L116.21 359.85L59.1 359.85ZM59.1 299.88L59.1 240.9L116.21 240.9L116.21 299.88L59.1 299.88ZM59.1 239.9L59.1 180.92L116.21 180.92L116.21 239.9L59.1 239.9ZM59.1 179.92L59.1 120.95L116.21 120.95L116.21 179.92L59.1 179.92ZM59.1 119.95L59.1 60.97L116.21 60.97L116.21 119.95L59.1 119.95ZM117.21 1139.55L117.21 1082.05L174.31 1082.05L174.31 1139.55L117.21 1139.55ZM117.21 1079.56L117.21 1022.08L174.31 1022.08L174.31 1079.56L117.21 1079.56ZM117.21 1019.59L117.21 962.1L174.31 962.1L174.31 1019.59L117.21 1019.59ZM117.21 959.61L117.21 900.64L174.31 900.64L174.31 959.61L117.21 959.61ZM117.21 899.64L117.21 840.66L174.31 840.66L174.31 899.64L117.21 899.64ZM117.21 839.66L117.21 780.69L174.31 780.69L174.31 839.66L117.21 839.66ZM117.21 779.69L117.21 720.71L174.31 720.71L174.31 779.69L117.21 779.69ZM117.21 719.71L117.21 660.73L174.31 660.73L174.31 719.71L117.21 719.71ZM117.21 659.73L117.21 600.76L174.31 600.76L174.31 659.73L117.21 659.73ZM117.21 599.76L117.21 540.78L174.31 540.78L174.31 599.76L117.21 599.76ZM117.21 539.78L117.21 480.8L174.31 480.8L174.31 539.78L117.21 539.78ZM117.21 479.8L117.21 420.83L174.31 420.83L174.31 479.8L117.21 479.8ZM117.21 419.83L117.21 360.85L174.31 360.85L174.31 419.83L117.21 419.83ZM117.21 359.85L117.21 300.88L174.31 300.88L174.31 359.85L117.21 359.85ZM117.21 299.88L117.21 240.9L174.31 240.9L174.31 299.88L117.21 299.88ZM117.21 239.9L117.21 180.92L174.31 180.92L174.31 239.9L117.21 239.9ZM117.21 179.92L117.21 120.95L174.31 120.95L174.31 179.92L117.21 179.92ZM117.21 119.95L117.21 60.97L174.31 60.97L174.31 119.95L117.21 119.95ZM175.31 1139.55L175.31 1082.05L232.43 1082.05L232.43 1139.55L175.31 1139.55ZM175.31 1079.56L175.31 1022.08L232.43 1022.08L232.43 1079.56L175.31 1079.56ZM175.31 1019.59L175.31 962.1L232.43 962.1L232.43 1019.59L175.31 1019.59ZM175.31 959.61L175.31 900.64L232.43 900.64L232.43 959.61L175.31 959.61ZM175.31 899.64L175.31 840.66L232.43 840.66L232.43 899.64L175.31 899.64ZM175.31 839.66L175.31 780.69L232.43 780.69L232.43 839.66L175.31 839.66ZM175.31 779.69L175.31 720.71L232.43 720.71L232.43 779.69L175.31 779.69ZM175.31 719.71L175.31 660.73L232.43 660.73L232.43 719.71L175.31 719.71ZM175.31 659.73L175.31 600.76L232.43 600.76L232.43 659.73L175.31 659.73ZM175.31 599.76L175.31 540.78L232.43 540.78L232.43 599.76L175.31 599.76ZM175.31 539.78L175.31 480.8L232.43 480.8L232.43 539.78L175.31 539.78ZM175.31 479.8L175.31 420.83L232.43 420.83L232.43 479.8L175.31 479.8ZM175.31 419.83L175.31 360.85L232.43 360.85L232.43 419.83L175.31 419.83ZM175.31 359.85L175.31 300.88L232.43 300.88L232.43 359.85L175.31 359.85ZM175.31 299.88L175.31 240.9L232.43 240.9L232.43 299.88L175.31 299.88ZM175.31 239.9L175.31 180.92L232.43 180.92L232.43 239.9L175.31 239.9ZM175.31 179.92L175.31 120.95L232.43 120.95L232.43 179.92L175.31 179.92ZM175.31 119.95L175.31 60.97L232.43 60.97L232.43 119.95L175.31 119.95ZM233.43 1139.55L233.43 1082.05L290.53 1082.05L290.53 1139.55L233.43 1139.55ZM233.43 1079.56L233.43 1022.08L290.53 1022.08L290.53 1079.56L233.43 1079.56ZM233.43 1019.59L233.43 962.1L290.53 962.1L290.53 1019.59L233.43 1019.59ZM233.43 959.61L233.43 900.64L290.53 900.64L290.53 959.61L233.43 959.61ZM233.43 899.64L233.43 840.66L290.53 840.66L290.53 899.64L233.43 899.64ZM233.43 839.66L233.43 780.69L290.53 780.69L290.53 839.66L233.43 839.66ZM233.43 779.69L233.43 720.71L290.53 720.71L290.53 779.69L233.43 779.69ZM233.43 719.71L233.43 660.73L290.53 660.73L290.53 719.71L233.43 719.71ZM233.43 659.73L233.43 600.76L290.53 600.76L290.53 659.73L233.43 659.73ZM233.43 599.76L233.43 540.78L290.53 540.78L290.53 599.76L233.43 599.76ZM233.43 539.78L233.43 480.8L290.53 480.8L290.53 539.78L233.43 539.78ZM233.43 479.8L233.43 420.83L290.53 420.83L290.53 479.8L233.43 479.8ZM233.43 419.83L233.43 360.85L290.53 360.85L290.53 419.83L233.43 419.83ZM233.43 359.85L233.43 300.88L290.53 300.88L290.53 359.85L233.43 359.85ZM233.43 299.88L233.43 240.9L290.53 240.9L290.53 299.88L233.43 299.88ZM233.43 239.9L233.43 180.92L290.53 180.92L290.53 239.9L233.43 239.9ZM233.43 179.92L233.43 120.95L290.53 120.95L290.53 179.92L233.43 179.92ZM233.43 119.95L233.43 60.97L290.53 60.97L290.53 119.95L233.43 119.95ZM291.53 1139.55L291.53 1082.05L348.64 1082.05L348.64 1139.55L291.53 1139.55ZM291.53 1079.56L291.53 1022.08L348.64 1022.08L348.64 1079.56L291.53 1079.56ZM291.53 1019.59L291.53 962.1L348.64 962.1L348.64 1019.59L291.53 1019.59ZM291.53 959.61L291.53 900.64L348.64 900.64L348.64 959.61L291.53 959.61ZM291.53 899.64L291.53 840.66L348.64 840.66L348.64 899.64L291.53 899.64ZM291.53 839.66L291.53 780.69L348.64 780.69L348.64 839.66L291.53 839.66ZM291.53 779.69L291.53 720.71L348.64 720.71L348.64 779.69L291.53 779.69ZM291.53 719.71L291.53 660.73L348.64 660.73L348.64 719.71L291.53 719.71ZM291.53 659.73L291.53 600.76L348.64 600.76L348.64 659.73L291.53 659.73ZM291.53 599.76L291.53 540.78L348.64 540.78L348.64 599.76L291.53 599.76ZM291.53 539.78L291.53 480.8L348.64 480.8L348.64 539.78L291.53 539.78ZM291.53 479.8L291.53 420.83L348.64 420.83L348.64 479.8L291.53 479.8ZM291.53 419.83L291.53 360.85L348.64 360.85L348.64 419.83L291.53 419.83ZM291.53 359.85L291.53 300.88L348.64 300.88L348.64 359.85L291.53 359.85ZM291.53 299.88L291.53 240.9L348.64 240.9L348.64 299.88L291.53 299.88ZM291.53 239.9L291.53 180.92L348.64 180.92L348.64 239.9L291.53 239.9ZM291.53 179.92L291.53 120.95L348.64 120.95L348.64 179.92L291.53 179.92ZM291.53 119.95L291.53 60.97L348.64 60.97L348.64 119.95L291.53 119.95ZM349.64 1139.55L349.64 1082.05L406.74 1082.05L406.74 1139.55L349.64 1139.55ZM349.64 1079.56L349.64 1022.08L406.74 1022.08L406.74 1079.56L349.64 1079.56ZM349.64 1019.59L349.64 962.1L406.74 962.1L406.74 1019.59L349.64 1019.59ZM349.64 959.61L349.64 900.64L406.74 900.64L406.74 959.61L349.64 959.61ZM349.64 899.64L349.64 840.66L406.74 840.66L406.74 899.64L349.64 899.64ZM349.64 839.66L349.64 780.69L406.74 780.69L406.74 839.66L349.64 839.66ZM349.64 779.69L349.64 720.71L406.74 720.71L406.74 779.69L349.64 779.69ZM349.64 719.71L349.64 660.73L406.74 660.73L406.74 719.71L349.64 719.71ZM349.64 659.73L349.64 600.76L406.74 600.76L406.74 659.73L349.64 659.73ZM349.64 599.76L349.64 540.78L406.74 540.78L406.74 599.76L349.64 599.76ZM349.64 539.78L349.64 480.8L406.74 480.8L406.74 539.78L349.64 539.78ZM349.64 479.8L349.64 420.83L406.74 420.83L406.74 479.8L349.64 479.8ZM349.64 419.83L349.64 360.85L406.74 360.85L406.74 419.83L349.64 419.83ZM349.64 359.85L349.64 300.88L406.74 300.88L406.74 359.85L349.64 359.85ZM349.64 299.88L349.64 240.9L406.74 240.9L406.74 299.88L349.64 299.88ZM349.64 239.9L349.64 180.92L406.74 180.92L406.74 239.9L349.64 239.9ZM349.64 179.92L349.64 120.95L406.74 120.95L406.74 179.92L349.64 179.92ZM349.64 119.95L349.64 60.97L406.74 60.97L406.74 119.95L349.64 119.95ZM407.74 1139.55L407.74 1082.05L464.85 1082.05L464.85 1139.55L407.74 1139.55ZM407.74 1079.56L407.74 1022.08L464.85 1022.08L464.85 1079.56L407.74 1079.56ZM407.74 1019.59L407.74 962.1L464.85 962.1L464.85 1019.59L407.74 1019.59ZM407.74 959.61L407.74 900.64L464.85 900.64L464.85 959.61L407.74 959.61ZM407.74 899.64L407.74 840.66L464.85 840.66L464.85 899.64L407.74 899.64ZM407.74 839.66L407.74 780.69L464.85 780.69L464.85 839.66L407.74 839.66ZM407.74 779.69L407.74 720.71L464.85 720.71L464.85 779.69L407.74 779.69ZM407.74 719.71L407.74 660.73L464.85 660.73L464.85 719.71L407.74 719.71ZM407.74 659.73L407.74 600.76L464.85 600.76L464.85 659.73L407.74 659.73ZM407.74 599.76L407.74 540.78L464.85 540.78L464.85 599.76L407.74 599.76ZM407.74 539.78L407.74 480.8L464.85 480.8L464.85 539.78L407.74 539.78ZM407.74 479.8L407.74 420.83L464.85 420.83L464.85 479.8L407.74 479.8ZM407.74 419.83L407.74 360.85L464.85 360.85L464.85 419.83L407.74 419.83ZM407.74 359.85L407.74 300.88L464.85 300.88L464.85 359.85L407.74 359.85ZM407.74 299.88L407.74 240.9L464.85 240.9L464.85 299.88L407.74 299.88ZM407.74 239.9L407.74 180.92L464.85 180.92L464.85 239.9L407.74 239.9ZM407.74 179.92L407.74 120.95L464.85 120.95L464.85 179.92L407.74 179.92ZM407.74 119.95L407.74 60.97L464.85 60.97L464.85 119.95L407.74 119.95ZM465.85 1139.55L465.85 1082.05L522.96 1082.05L522.96 1139.55L465.85 1139.55ZM465.85 1079.56L465.85 1022.08L522.96 1022.08L522.96 1079.56L465.85 1079.56ZM465.85 1019.59L465.85 962.1L522.96 962.1L522.96 1019.59L465.85 1019.59ZM465.85 959.61L465.85 900.64L522.96 900.64L522.96 959.61L465.85 959.61ZM465.85 899.64L465.85 840.66L522.96 840.66L522.96 899.64L465.85 899.64ZM465.85 839.66L465.85 780.69L522.96 780.69L522.96 839.66L465.85 839.66ZM465.85 779.69L465.85 720.71L522.96 720.71L522.96 779.69L465.85 779.69ZM465.85 719.71L465.85 660.73L522.96 660.73L522.96 719.71L465.85 719.71ZM465.85 659.73L465.85 600.76L522.96 600.76L522.96 659.73L465.85 659.73ZM465.85 599.76L465.85 540.78L522.96 540.78L522.96 599.76L465.85 599.76ZM465.85 539.78L465.85 480.8L522.96 480.8L522.96 539.78L465.85 539.78ZM465.85 479.8L465.85 420.83L522.96 420.83L522.96 479.8L465.85 479.8ZM465.85 419.83L465.85 360.85L522.96 360.85L522.96 419.83L465.85 419.83ZM465.85 359.85L465.85 300.88L522.96 300.88L522.96 359.85L465.85 359.85ZM465.85 299.88L465.85 240.9L522.96 240.9L522.96 299.88L465.85 299.88ZM465.85 239.9L465.85 180.92L522.96 180.92L522.96 239.9L465.85 239.9ZM465.85 179.92L465.85 120.95L522.96 120.95L522.96 179.92L465.85 179.92ZM465.85 119.95L465.85 60.97L522.96 60.97L522.96 119.95L465.85 119.95ZM640.17 1139.55L640.17 1082.05L697.27 1082.05L697.27 1139.55L640.17 1139.55ZM640.17 1079.56L640.17 1022.08L697.27 1022.08L697.27 1079.56L640.17 1079.56ZM640.17 1019.59L640.17 962.1L697.27 962.1L697.27 1019.59L640.17 1019.59ZM640.17 959.61L640.17 900.64L697.27 900.64L697.27 959.61L640.17 959.61ZM640.17 899.64L640.17 840.66L697.27 840.66L697.27 899.64L640.17 899.64ZM640.17 839.66L640.17 780.69L697.27 780.69L697.27 839.66L640.17 839.66ZM640.17 779.69L640.17 720.71L697.27 720.71L697.27 779.69L640.17 779.69ZM640.17 719.71L640.17 660.73L697.27 660.73L697.27 719.71L640.17 719.71ZM640.17 659.73L640.17 600.76L697.27 600.76L697.27 659.73L640.17 659.73ZM640.17 599.76L640.17 540.78L697.27 540.78L697.27 599.76L640.17 599.76ZM640.17 539.78L640.17 480.8L697.27 480.8L697.27 539.78L640.17 539.78ZM640.17 479.8L640.17 420.83L697.27 420.83L697.27 479.8L640.17 479.8ZM640.17 419.83L640.17 360.85L697.27 360.85L697.27 419.83L640.17 419.83ZM640.17 359.85L640.17 300.88L697.27 300.88L697.27 359.85L640.17 359.85ZM640.17 299.88L640.17 240.9L697.27 240.9L697.27 299.88L640.17 299.88ZM640.17 239.9L640.17 180.92L697.27 180.92L697.27 239.9L640.17 239.9ZM640.17 179.92L640.17 120.95L697.27 120.95L697.27 179.92L640.17 179.92ZM640.17 119.95L640.17 60.97L697.27 60.97L697.27 119.95L640.17 119.95ZM698.27 1139.55L698.27 1082.05L755.38 1082.05L755.38 1139.55L698.27 1139.55ZM698.27 1079.56L698.27 1022.08L755.38 1022.08L755.38 1079.56L698.27 1079.56ZM698.27 1019.59L698.27 962.1L755.38 962.1L755.38 1019.59L698.27 1019.59ZM698.27 959.61L698.27 900.64L755.38 900.64L755.38 959.61L698.27 959.61ZM698.27 899.64L698.27 840.66L755.38 840.66L755.38 899.64L698.27 899.64ZM698.27 839.66L698.27 780.69L755.38 780.69L755.38 839.66L698.27 839.66ZM698.27 779.69L698.27 720.71L755.38 720.71L755.38 779.69L698.27 779.69ZM698.27 719.71L698.27 660.73L755.38 660.73L755.38 719.71L698.27 719.71ZM698.27 659.73L698.27 600.76L755.38 600.76L755.38 659.73L698.27 659.73ZM698.27 599.76L698.27 540.78L755.38 540.78L755.38 599.76L698.27 599.76ZM698.27 539.78L698.27 480.8L755.38 480.8L755.38 539.78L698.27 539.78ZM698.27 479.8L698.27 420.83L755.38 420.83L755.38 479.8L698.27 479.8ZM698.27 419.83L698.27 360.85L755.38 360.85L755.38 419.83L698.27 419.83ZM698.27 359.85L698.27 300.88L755.38 300.88L755.38 359.85L698.27 359.85ZM698.27 299.88L698.27 240.9L755.38 240.9L755.38 299.88L698.27 299.88ZM698.27 239.9L698.27 180.92L755.38 180.92L755.38 239.9L698.27 239.9ZM698.27 179.92L698.27 120.95L755.38 120.95L755.38 179.92L698.27 179.92ZM698.27 119.95L698.27 60.97L755.38 60.97L755.38 119.95L698.27 119.95ZM756.38 1139.55L756.38 1082.05L813.49 1082.05L813.49 1139.55L756.38 1139.55ZM756.38 1079.56L756.38 1022.08L813.49 1022.08L813.49 1079.56L756.38 1079.56ZM756.38 1019.59L756.38 962.1L813.49 962.1L813.49 1019.59L756.38 1019.59ZM756.38 959.61L756.38 900.64L813.49 900.64L813.49 959.61L756.38 959.61ZM756.38 899.64L756.38 840.66L813.49 840.66L813.49 899.64L756.38 899.64ZM756.38 839.66L756.38 780.69L813.49 780.69L813.49 839.66L756.38 839.66ZM756.38 779.69L756.38 720.71L813.49 720.71L813.49 779.69L756.38 779.69ZM756.38 719.71L756.38 660.73L813.49 660.73L813.49 719.71L756.38 719.71ZM756.38 659.73L756.38 600.76L813.49 600.76L813.49 659.73L756.38 659.73ZM756.38 599.76L756.38 540.78L813.49 540.78L813.49 599.76L756.38 599.76ZM756.38 539.78L756.38 480.8L813.49 480.8L813.49 539.78L756.38 539.78ZM756.38 479.8L756.38 420.83L813.49 420.83L813.49 479.8L756.38 479.8ZM756.38 419.83L756.38 360.85L813.49 360.85L813.49 419.83L756.38 419.83ZM756.38 359.85L756.38 300.88L813.49 300.88L813.49 359.85L756.38 359.85ZM756.38 299.88L756.38 240.9L813.49 240.9L813.49 299.88L756.38 299.88ZM756.38 239.9L756.38 180.92L813.49 180.92L813.49 239.9L756.38 239.9ZM756.38 179.92L756.38 120.95L813.49 120.95L813.49 179.92L756.38 179.92ZM756.38 119.95L756.38 60.97L813.49 60.97L813.49 119.95L756.38 119.95ZM814.49 1139.55L814.49 1082.05L871.59 1082.05L871.59 1139.55L814.49 1139.55ZM814.49 1079.56L814.49 1022.08L871.59 1022.08L871.59 1079.56L814.49 1079.56ZM814.49 1019.59L814.49 962.1L871.59 962.1L871.59 1019.59L814.49 1019.59ZM814.49 959.61L814.49 900.64L871.59 900.64L871.59 959.61L814.49 959.61ZM814.49 899.64L814.49 840.66L871.59 840.66L871.59 899.64L814.49 899.64ZM814.49 839.66L814.49 780.69L871.59 780.69L871.59 839.66L814.49 839.66ZM814.49 779.69L814.49 720.71L871.59 720.71L871.59 779.69L814.49 779.69ZM814.49 719.71L814.49 660.73L871.59 660.73L871.59 719.71L814.49 719.71ZM814.49 659.73L814.49 600.76L871.59 600.76L871.59 659.73L814.49 659.73ZM814.49 599.76L814.49 540.78L871.59 540.78L871.59 599.76L814.49 599.76ZM814.49 539.78L814.49 480.8L871.59 480.8L871.59 539.78L814.49 539.78ZM814.49 479.8L814.49 420.83L871.59 420.83L871.59 479.8L814.49 479.8ZM814.49 419.83L814.49 360.85L871.59 360.85L871.59 419.83L814.49 419.83ZM814.49 359.85L814.49 300.88L871.59 300.88L871.59 359.85L814.49 359.85ZM814.49 299.88L814.49 240.9L871.59 240.9L871.59 299.88L814.49 299.88ZM814.49 239.9L814.49 180.92L871.59 180.92L871.59 239.9L814.49 239.9ZM814.49 179.92L814.49 120.95L871.59 120.95L871.59 179.92L814.49 179.92ZM814.49 119.95L814.49 60.97L871.59 60.97L871.59 119.95L814.49 119.95ZM872.59 1139.55L872.59 1082.05L929.7 1082.05L929.7 1139.55L872.59 1139.55ZM872.59 1079.56L872.59 1022.08L929.7 1022.08L929.7 1079.56L872.59 1079.56ZM872.59 1019.59L872.59 962.1L929.7 962.1L929.7 1019.59L872.59 1019.59ZM872.59 959.61L872.59 900.64L929.7 900.64L929.7 959.61L872.59 959.61ZM872.59 899.64L872.59 840.66L929.7 840.66L929.7 899.64L872.59 899.64ZM872.59 839.66L872.59 780.69L929.7 780.69L929.7 839.66L872.59 839.66ZM872.59 779.69L872.59 720.71L929.7 720.71L929.7 779.69L872.59 779.69ZM872.59 719.71L872.59 660.73L929.7 660.73L929.7 719.71L872.59 719.71ZM872.59 659.73L872.59 600.76L929.7 600.76L929.7 659.73L872.59 659.73ZM872.59 599.76L872.59 540.78L929.7 540.78L929.7 599.76L872.59 599.76ZM872.59 539.78L872.59 480.8L929.7 480.8L929.7 539.78L872.59 539.78ZM872.59 479.8L872.59 420.83L929.7 420.83L929.7 479.8L872.59 479.8ZM872.59 419.83L872.59 360.85L929.7 360.85L929.7 419.83L872.59 419.83ZM872.59 359.85L872.59 300.88L929.7 300.88L929.7 359.85L872.59 359.85ZM872.59 299.88L872.59 240.9L929.7 240.9L929.7 299.88L872.59 299.88ZM872.59 239.9L872.59 180.92L929.7 180.92L929.7 239.9L872.59 239.9ZM872.59 179.92L872.59 120.95L929.7 120.95L929.7 179.92L872.59 179.92ZM872.59 119.95L872.59 60.97L929.7 60.97L929.7 119.95L872.59 119.95ZM1046.92 1139.55L1046.92 1082.05L1104.03 1082.05L1104.03 1139.55L1046.92 1139.55ZM1046.92 1079.56L1046.92 1022.08L1104.03 1022.08L1104.03 1079.56L1046.92 1079.56ZM1046.92 1019.59L1046.92 962.1L1104.03 962.1L1104.03 1019.59L1046.92 1019.59ZM1046.92 959.61L1046.92 900.64L1104.03 900.64L1104.03 959.61L1046.92 959.61ZM1046.92 899.64L1046.92 840.66L1104.03 840.66L1104.03 899.64L1046.92 899.64ZM1046.92 839.66L1046.92 780.69L1104.03 780.69L1104.03 839.66L1046.92 839.66ZM1046.92 779.69L1046.92 720.71L1104.03 720.71L1104.03 779.69L1046.92 779.69ZM1046.92 719.71L1046.92 660.73L1104.03 660.73L1104.03 719.71L1046.92 719.71ZM1046.92 659.73L1046.92 600.76L1104.03 600.76L1104.03 659.73L1046.92 659.73ZM1046.92 599.76L1046.92 540.78L1104.03 540.78L1104.03 599.76L1046.92 599.76ZM1046.92 539.78L1046.92 480.8L1104.03 480.8L1104.03 539.78L1046.92 539.78ZM1046.92 479.8L1046.92 420.83L1104.03 420.83L1104.03 479.8L1046.92 479.8ZM1046.92 419.83L1046.92 360.85L1104.03 360.85L1104.03 419.83L1046.92 419.83ZM1046.92 359.85L1046.92 300.88L1104.03 300.88L1104.03 359.85L1046.92 359.85ZM1046.92 299.88L1046.92 240.9L1104.03 240.9L1104.03 299.88L1046.92 299.88ZM1046.92 239.9L1046.92 180.92L1104.03 180.92L1104.03 239.9L1046.92 239.9ZM1046.92 179.92L1046.92 120.95L1104.03 120.95L1104.03 179.92L1046.92 179.92ZM1046.92 119.95L1046.92 60.97L1104.03 60.97L1104.03 119.95L1046.92 119.95ZM1105.03 1139.55L1105.03 1082.05L1162.13 1082.05L1162.13 1139.55L1105.03 1139.55ZM1105.03 1079.56L1105.03 1022.08L1162.13 1022.08L1162.13 1079.56L1105.03 1079.56ZM1105.03 1019.59L1105.03 962.1L1162.13 962.1L1162.13 1019.59L1105.03 1019.59ZM1105.03 959.61L1105.03 900.64L1162.13 900.64L1162.13 959.61L1105.03 959.61ZM1105.03 899.64L1105.03 840.66L1162.13 840.66L1162.13 899.64L1105.03 899.64ZM1105.03 839.66L1105.03 780.69L1162.13 780.69L1162.13 839.66L1105.03 839.66ZM1105.03 779.69L1105.03 720.71L1162.13 720.71L1162.13 779.69L1105.03 779.69ZM1105.03 719.71L1105.03 660.73L1162.13 660.73L1162.13 719.71L1105.03 719.71ZM1105.03 659.73L1105.03 600.76L1162.13 600.76L1162.13 659.73L1105.03 659.73ZM1105.03 599.76L1105.03 540.78L1162.13 540.78L1162.13 599.76L1105.03 599.76ZM1105.03 539.78L1105.03 480.8L1162.13 480.8L1162.13 539.78L1105.03 539.78ZM1105.03 479.8L1105.03 420.83L1162.13 420.83L1162.13 479.8L1105.03 479.8ZM1105.03 419.83L1105.03 360.85L1162.13 360.85L1162.13 419.83L1105.03 419.83ZM1105.03 359.85L1105.03 300.88L1162.13 300.88L1162.13 359.85L1105.03 359.85ZM1105.03 299.88L1105.03 240.9L1162.13 240.9L1162.13 299.88L1105.03 299.88ZM1105.03 239.9L1105.03 180.92L1162.13 180.92L1162.13 239.9L1105.03 239.9ZM1105.03 179.92L1105.03 120.95L1162.13 120.95L1162.13 179.92L1105.03 179.92ZM1105.03 119.95L1105.03 60.97L1162.13 60.97L1162.13 119.95L1105.03 119.95ZM1163.13 1139.55L1163.13 1082.05L1220.24 1082.05L1220.24 1139.55L1163.13 1139.55ZM1163.13 1079.56L1163.13 1022.08L1220.24 1022.08L1220.24 1079.56L1163.13 1079.56ZM1163.13 1019.59L1163.13 962.1L1220.24 962.1L1220.24 1019.59L1163.13 1019.59ZM1163.13 959.61L1163.13 900.64L1220.24 900.64L1220.24 959.61L1163.13 959.61ZM1163.13 899.64L1163.13 840.66L1220.24 840.66L1220.24 899.64L1163.13 899.64ZM1163.13 839.66L1163.13 780.69L1220.24 780.69L1220.24 839.66L1163.13 839.66ZM1163.13 779.69L1163.13 720.71L1220.24 720.71L1220.24 779.69L1163.13 779.69ZM1163.13 719.71L1163.13 660.73L1220.24 660.73L1220.24 719.71L1163.13 719.71ZM1163.13 659.73L1163.13 600.76L1220.24 600.76L1220.24 659.73L1163.13 659.73ZM1163.13 599.76L1163.13 540.78L1220.24 540.78L1220.24 599.76L1163.13 599.76ZM1163.13 539.78L1163.13 480.8L1220.24 480.8L1220.24 539.78L1163.13 539.78ZM1163.13 479.8L1163.13 420.83L1220.24 420.83L1220.24 479.8L1163.13 479.8ZM1163.13 419.83L1163.13 360.85L1220.24 360.85L1220.24 419.83L1163.13 419.83ZM1163.13 359.85L1163.13 300.88L1220.24 300.88L1220.24 359.85L1163.13 359.85ZM1163.13 299.88L1163.13 240.9L1220.24 240.9L1220.24 299.88L1163.13 299.88ZM1163.13 239.9L1163.13 180.92L1220.24 180.92L1220.24 239.9L1163.13 239.9ZM1163.13 179.92L1163.13 120.95L1220.24 120.95L1220.24 179.92L1163.13 179.92ZM1163.13 119.95L1163.13 60.97L1220.24 60.97L1220.24 119.95L1163.13 119.95ZM1221.24 1139.55L1221.24 1082.05L1278.34 1082.05L1278.34 1139.55L1221.24 1139.55ZM1221.24 1079.56L1221.24 1022.08L1278.34 1022.08L1278.34 1079.56L1221.24 1079.56ZM1221.24 1019.59L1221.24 962.1L1278.34 962.1L1278.34 1019.59L1221.24 1019.59ZM1221.24 959.61L1221.24 900.64L1278.34 900.64L1278.34 959.61L1221.24 959.61ZM1221.24 899.64L1221.24 840.66L1278.34 840.66L1278.34 899.64L1221.24 899.64ZM1221.24 839.66L1221.24 780.69L1278.34 780.69L1278.34 839.66L1221.24 839.66ZM1221.24 779.69L1221.24 720.71L1278.34 720.71L1278.34 779.69L1221.24 779.69ZM1221.24 719.71L1221.24 660.73L1278.34 660.73L1278.34 719.71L1221.24 719.71ZM1221.24 659.73L1221.24 600.76L1278.34 600.76L1278.34 659.73L1221.24 659.73ZM1221.24 599.76L1221.24 540.78L1278.34 540.78L1278.34 599.76L1221.24 599.76ZM1221.24 539.78L1221.24 480.8L1278.34 480.8L1278.34 539.78L1221.24 539.78ZM1221.24 479.8L1221.24 420.83L1278.34 420.83L1278.34 479.8L1221.24 479.8ZM1221.24 419.83L1221.24 360.85L1278.34 360.85L1278.34 419.83L1221.24 419.83ZM1221.24 359.85L1221.24 300.88L1278.34 300.88L1278.34 359.85L1221.24 359.85ZM1221.24 299.88L1221.24 240.9L1278.34 240.9L1278.34 299.88L1221.24 299.88ZM1221.24 239.9L1221.24 180.92L1278.34 180.92L1278.34 239.9L1221.24 239.9ZM1221.24 179.92L1221.24 120.95L1278.34 120.95L1278.34 179.92L1221.24 179.92ZM1221.24 119.95L1221.24 60.97L1278.34 60.97L1278.34 119.95L1221.24 119.95ZM1279.34 1139.55L1279.34 1082.05L1336.45 1082.05L1336.45 1139.55L1279.34 1139.55ZM1279.34 1079.56L1279.34 1022.08L1336.45 1022.08L1336.45 1079.56L1279.34 1079.56ZM1279.34 1019.59L1279.34 962.1L1336.45 962.1L1336.45 1019.59L1279.34 1019.59ZM1279.34 959.61L1279.34 900.64L1336.45 900.64L1336.45 959.61L1279.34 959.61ZM1279.34 899.64L1279.34 840.66L1336.45 840.66L1336.45 899.64L1279.34 899.64ZM1279.34 839.66L1279.34 780.69L1336.45 780.69L1336.45 839.66L1279.34 839.66ZM1279.34 779.69L1279.34 720.71L1336.45 720.71L1336.45 779.69L1279.34 779.69ZM1279.34 719.71L1279.34 660.73L1336.45 660.73L1336.45 719.71L1279.34 719.71ZM1279.34 659.73L1279.34 600.76L1336.45 600.76L1336.45 659.73L1279.34 659.73ZM1279.34 599.76L1279.34 540.78L1336.45 540.78L1336.45 599.76L1279.34 599.76ZM1279.34 539.78L1279.34 480.8L1336.45 480.8L1336.45 539.78L1279.34 539.78ZM1279.34 479.8L1279.34 420.83L1336.45 420.83L1336.45 479.8L1279.34 479.8ZM1279.34 419.83L1279.34 360.85L1336.45 360.85L1336.45 419.83L1279.34 419.83ZM1279.34 359.85L1279.34 300.88L1336.45 300.88L1336.45 359.85L1279.34 359.85ZM1279.34 299.88L1279.34 240.9L1336.45 240.9L1336.45 299.88L1279.34 299.88ZM1279.34 239.9L1279.34 180.92L1336.45 180.92L1336.45 239.9L1279.34 239.9ZM1279.34 179.92L1279.34 120.95L1336.45 120.95L1336.45 179.92L1279.34 179.92ZM1279.34 119.95L1279.34 60.97L1336.45 60.97L1336.45 119.95L1279.34 119.95ZM1337.45 1139.55L1337.45 1082.05L1394.56 1082.05L1394.56 1139.55L1337.45 1139.55ZM1337.45 1079.56L1337.45 1022.08L1394.56 1022.08L1394.56 1079.56L1337.45 1079.56ZM1337.45 1019.59L1337.45 962.1L1394.56 962.1L1394.56 1019.59L1337.45 1019.59ZM1337.45 959.61L1337.45 900.64L1394.56 900.64L1394.56 959.61L1337.45 959.61ZM1337.45 899.64L1337.45 840.66L1394.56 840.66L1394.56 899.64L1337.45 899.64ZM1337.45 839.66L1337.45 780.69L1394.56 780.69L1394.56 839.66L1337.45 839.66ZM1337.45 779.69L1337.45 720.71L1394.56 720.71L1394.56 779.69L1337.45 779.69ZM1337.45 719.71L1337.45 660.73L1394.56 660.73L1394.56 719.71L1337.45 719.71ZM1337.45 659.73L1337.45 600.76L1394.56 600.76L1394.56 659.73L1337.45 659.73ZM1337.45 599.76L1337.45 540.78L1394.56 540.78L1394.56 599.76L1337.45 599.76ZM1337.45 539.78L1337.45 480.8L1394.56 480.8L1394.56 539.78L1337.45 539.78ZM1337.45 479.8L1337.45 420.83L1394.56 420.83L1394.56 479.8L1337.45 479.8ZM1337.45 419.83L1337.45 360.85L1394.56 360.85L1394.56 419.83L1337.45 419.83ZM1337.45 359.85L1337.45 300.88L1394.56 300.88L1394.56 359.85L1337.45 359.85ZM1337.45 299.88L1337.45 240.9L1394.56 240.9L1394.56 299.88L1337.45 299.88ZM1337.45 239.9L1337.45 180.92L1394.56 180.92L1394.56 239.9L1337.45 239.9ZM1337.45 179.92L1337.45 120.95L1394.56 120.95L1394.56 179.92L1337.45 179.92ZM1337.45 119.95L1337.45 60.97L1394.56 60.97L1394.56 119.95L1337.45 119.95ZM1395.56 1139.55L1395.56 1082.05L1452.66 1082.05L1452.66 1139.55L1395.56 1139.55ZM1395.56 1079.56L1395.56 1022.08L1452.66 1022.08L1452.66 1079.56L1395.56 1079.56ZM1395.56 1019.59L1395.56 962.1L1452.66 962.1L1452.66 1019.59L1395.56 1019.59ZM1395.56 959.61L1395.56 900.64L1452.66 900.64L1452.66 959.61L1395.56 959.61ZM1395.56 899.64L1395.56 840.66L1452.66 840.66L1452.66 899.64L1395.56 899.64ZM1395.56 839.66L1395.56 780.69L1452.66 780.69L1452.66 839.66L1395.56 839.66ZM1395.56 779.69L1395.56 720.71L1452.66 720.71L1452.66 779.69L1395.56 779.69ZM1395.56 719.71L1395.56 660.73L1452.66 660.73L1452.66 719.71L1395.56 719.71ZM1395.56 659.73L1395.56 600.76L1452.66 600.76L1452.66 659.73L1395.56 659.73ZM1395.56 599.76L1395.56 540.78L1452.66 540.78L1452.66 599.76L1395.56 599.76ZM1395.56 539.78L1395.56 480.8L1452.66 480.8L1452.66 539.78L1395.56 539.78ZM1395.56 479.8L1395.56 420.83L1452.66 420.83L1452.66 479.8L1395.56 479.8ZM1395.56 419.83L1395.56 360.85L1452.66 360.85L1452.66 419.83L1395.56 419.83ZM1395.56 359.85L1395.56 300.88L1452.66 300.88L1452.66 359.85L1395.56 359.85ZM1395.56 299.88L1395.56 240.9L1452.66 240.9L1452.66 299.88L1395.56 299.88ZM1395.56 239.9L1395.56 180.92L1452.66 180.92L1452.66 239.9L1395.56 239.9ZM1395.56 179.92L1395.56 120.95L1452.66 120.95L1452.66 179.92L1395.56 179.92ZM1395.56 119.95L1395.56 60.97L1452.66 60.97L1452.66 119.95L1395.56 119.95ZM1453.66 1139.55L1453.66 1082.05L1510.77 1082.05L1510.77 1139.55L1453.66 1139.55ZM1453.66 1079.56L1453.66 1022.08L1510.77 1022.08L1510.77 1079.56L1453.66 1079.56ZM1453.66 1019.59L1453.66 962.1L1510.77 962.1L1510.77 1019.59L1453.66 1019.59ZM1453.66 959.61L1453.66 900.64L1510.77 900.64L1510.77 959.61L1453.66 959.61ZM1453.66 899.64L1453.66 840.66L1510.77 840.66L1510.77 899.64L1453.66 899.64ZM1453.66 839.66L1453.66 780.69L1510.77 780.69L1510.77 839.66L1453.66 839.66ZM1453.66 779.69L1453.66 720.71L1510.77 720.71L1510.77 779.69L1453.66 779.69ZM1453.66 719.71L1453.66 660.73L1510.77 660.73L1510.77 719.71L1453.66 719.71ZM1453.66 659.73L1453.66 600.76L1510.77 600.76L1510.77 659.73L1453.66 659.73ZM1453.66 599.76L1453.66 540.78L1510.77 540.78L1510.77 599.76L1453.66 599.76ZM1453.66 539.78L1453.66 480.8L1510.77 480.8L1510.77 539.78L1453.66 539.78ZM1453.66 479.8L1453.66 420.83L1510.77 420.83L1510.77 479.8L1453.66 479.8ZM1453.66 419.83L1453.66 360.85L1510.77 360.85L1510.77 419.83L1453.66 419.83ZM1453.66 359.85L1453.66 300.88L1510.77 300.88L1510.77 359.85L1453.66 359.85ZM1453.66 299.88L1453.66 240.9L1510.77 240.9L1510.77 299.88L1453.66 299.88ZM1453.66 239.9L1453.66 180.92L1510.77 180.92L1510.77 239.9L1453.66 239.9ZM1453.66 179.92L1453.66 120.95L1510.77 120.95L1510.77 179.92L1453.66 179.92ZM1453.66 119.95L1453.66 60.97L1510.77 60.97L1510.77 119.95L1453.66 119.95ZM1511.77 1139.55L1511.77 1082.05L1568.87 1082.05L1568.87 1139.55L1511.77 1139.55ZM1511.77 1079.56L1511.77 1022.08L1568.87 1022.08L1568.87 1079.56L1511.77 1079.56ZM1511.77 1019.59L1511.77 962.1L1568.87 962.1L1568.87 1019.59L1511.77 1019.59ZM1511.77 959.61L1511.77 900.64L1568.87 900.64L1568.87 959.61L1511.77 959.61ZM1511.77 899.64L1511.77 840.66L1568.87 840.66L1568.87 899.64L1511.77 899.64ZM1511.77 839.66L1511.77 780.69L1568.87 780.69L1568.87 839.66L1511.77 839.66ZM1511.77 779.69L1511.77 720.71L1568.87 720.71L1568.87 779.69L1511.77 779.69ZM1511.77 719.71L1511.77 660.73L1568.87 660.73L1568.87 719.71L1511.77 719.71ZM1511.77 659.73L1511.77 600.76L1568.87 600.76L1568.87 659.73L1511.77 659.73ZM1511.77 599.76L1511.77 540.78L1568.87 540.78L1568.87 599.76L1511.77 599.76ZM1511.77 539.78L1511.77 480.8L1568.87 480.8L1568.87 539.78L1511.77 539.78ZM1511.77 479.8L1511.77 420.83L1568.87 420.83L1568.87 479.8L1511.77 479.8ZM1511.77 419.83L1511.77 360.85L1568.87 360.85L1568.87 419.83L1511.77 419.83ZM1511.77 359.85L1511.77 300.88L1568.87 300.88L1568.87 359.85L1511.77 359.85ZM1511.77 299.88L1511.77 240.9L1568.87 240.9L1568.87 299.88L1511.77 299.88ZM1511.77 239.9L1511.77 180.92L1568.87 180.92L1568.87 239.9L1511.77 239.9ZM1511.77 179.92L1511.77 120.95L1568.87 120.95L1568.87 179.92L1511.77 179.92ZM1511.77 119.95L1511.77 60.97L1568.87 60.97L1568.87 119.95L1511.77 119.95ZM1569.87 1139.55L1569.87 1082.05L1626.98 1082.05L1626.98 1139.55L1569.87 1139.55ZM1569.87 1079.56L1569.87 1022.08L1626.98 1022.08L1626.98 1079.56L1569.87 1079.56ZM1569.87 1019.59L1569.87 962.1L1626.98 962.1L1626.98 1019.59L1569.87 1019.59ZM1569.87 959.61L1569.87 900.64L1626.98 900.64L1626.98 959.61L1569.87 959.61ZM1569.87 899.64L1569.87 840.66L1626.98 840.66L1626.98 899.64L1569.87 899.64ZM1569.87 839.66L1569.87 780.69L1626.98 780.69L1626.98 839.66L1569.87 839.66ZM1569.87 779.69L1569.87 720.71L1626.98 720.71L1626.98 779.69L1569.87 779.69ZM1569.87 719.71L1569.87 660.73L1626.98 660.73L1626.98 719.71L1569.87 719.71ZM1569.87 659.73L1569.87 600.76L1626.98 600.76L1626.98 659.73L1569.87 659.73ZM1569.87 599.76L1569.87 540.78L1626.98 540.78L1626.98 599.76L1569.87 599.76ZM1569.87 539.78L1569.87 480.8L1626.98 480.8L1626.98 539.78L1569.87 539.78ZM1569.87 479.8L1569.87 420.83L1626.98 420.83L1626.98 479.8L1569.87 479.8ZM1569.87 419.83L1569.87 360.85L1626.98 360.85L1626.98 419.83L1569.87 419.83ZM1569.87 359.85L1569.87 300.88L1626.98 300.88L1626.98 359.85L1569.87 359.85ZM1569.87 299.88L1569.87 240.9L1626.98 240.9L1626.98 299.88L1569.87 299.88ZM1569.87 239.9L1569.87 180.92L1626.98 180.92L1626.98 239.9L1569.87 239.9ZM1569.87 179.92L1569.87 120.95L1626.98 120.95L1626.98 179.92L1569.87 179.92ZM1569.87 119.95L1569.87 60.97L1626.98 60.97L1626.98 119.95L1569.87 119.95ZM1627.98 1139.55L1627.98 1082.05L1685.09 1082.05L1685.09 1139.55L1627.98 1139.55ZM1627.98 1079.56L1627.98 1022.08L1685.09 1022.08L1685.09 1079.56L1627.98 1079.56ZM1627.98 1019.59L1627.98 962.1L1685.09 962.1L1685.09 1019.59L1627.98 1019.59ZM1627.98 959.61L1627.98 900.64L1685.09 900.64L1685.09 959.61L1627.98 959.61ZM1627.98 899.64L1627.98 840.66L1685.09 840.66L1685.09 899.64L1627.98 899.64ZM1627.98 839.66L1627.98 780.69L1685.09 780.69L1685.09 839.66L1627.98 839.66ZM1627.98 779.69L1627.98 720.71L1685.09 720.71L1685.09 779.69L1627.98 779.69ZM1627.98 719.71L1627.98 660.73L1685.09 660.73L1685.09 719.71L1627.98 719.71ZM1627.98 659.73L1627.98 600.76L1685.09 600.76L1685.09 659.73L1627.98 659.73ZM1627.98 599.76L1627.98 540.78L1685.09 540.78L1685.09 599.76L1627.98 599.76ZM1627.98 539.78L1627.98 480.8L1685.09 480.8L1685.09 539.78L1627.98 539.78ZM1627.98 479.8L1627.98 420.83L1685.09 420.83L1685.09 479.8L1627.98 479.8ZM1627.98 419.83L1627.98 360.85L1685.09 360.85L1685.09 419.83L1627.98 419.83ZM1627.98 359.85L1627.98 300.88L1685.09 300.88L1685.09 359.85L1627.98 359.85ZM1627.98 299.88L1627.98 240.9L1685.09 240.9L1685.09 299.88L1627.98 299.88ZM1627.98 239.9L1627.98 180.92L1685.09 180.92L1685.09 239.9L1627.98 239.9ZM1627.98 179.92L1627.98 120.95L1685.09 120.95L1685.09 179.92L1627.98 179.92ZM1627.98 119.95L1627.98 60.97L1685.09 60.97L1685.09 119.95L1627.98 119.95ZM1686.09 1139.55L1686.09 1082.05L1743.2 1082.05L1743.2 1139.55L1686.09 1139.55ZM1686.09 1079.56L1686.09 1022.08L1743.2 1022.08L1743.2 1079.56L1686.09 1079.56ZM1686.09 1019.59L1686.09 962.1L1743.2 962.1L1743.2 1019.59L1686.09 1019.59ZM1686.09 959.61L1686.09 900.64L1743.2 900.64L1743.2 959.61L1686.09 959.61ZM1686.09 899.64L1686.09 840.66L1743.2 840.66L1743.2 899.64L1686.09 899.64ZM1686.09 839.66L1686.09 780.69L1743.2 780.69L1743.2 839.66L1686.09 839.66ZM1686.09 779.69L1686.09 720.71L1743.2 720.71L1743.2 779.69L1686.09 779.69ZM1686.09 719.71L1686.09 660.73L1743.2 660.73L1743.2 719.71L1686.09 719.71ZM1686.09 659.73L1686.09 600.76L1743.2 600.76L1743.2 659.73L1686.09 659.73ZM1686.09 599.76L1686.09 540.78L1743.2 540.78L1743.2 599.76L1686.09 599.76ZM1686.09 539.78L1686.09 480.8L1743.2 480.8L1743.2 539.78L1686.09 539.78ZM1686.09 479.8L1686.09 420.83L1743.2 420.83L1743.2 479.8L1686.09 479.8ZM1686.09 419.83L1686.09 360.85L1743.2 360.85L1743.2 419.83L1686.09 419.83ZM1686.09 359.85L1686.09 300.88L1743.2 300.88L1743.2 359.85L1686.09 359.85ZM1686.09 299.88L1686.09 240.9L1743.2 240.9L1743.2 299.88L1686.09 299.88ZM1686.09 239.9L1686.09 180.92L1743.2 180.92L1743.2 239.9L1686.09 239.9ZM1686.09 179.92L1686.09 120.95L1743.2 120.95L1743.2 179.92L1686.09 179.92ZM1686.09 119.95L1686.09 60.97L1743.2 60.97L1743.2 119.95L1686.09 119.95ZM1744.2 1139.55L1744.2 1082.05L1801.3 1082.05L1801.3 1139.55L1744.2 1139.55ZM1744.2 1079.56L1744.2 1022.08L1801.3 1022.08L1801.3 1079.56L1744.2 1079.56ZM1744.2 1019.59L1744.2 962.1L1801.3 962.1L1801.3 1019.59L1744.2 1019.59ZM1744.2 959.61L1744.2 900.64L1801.3 900.64L1801.3 959.61L1744.2 959.61ZM1744.2 899.64L1744.2 840.66L1801.3 840.66L1801.3 899.64L1744.2 899.64ZM1744.2 839.66L1744.2 780.69L1801.3 780.69L1801.3 839.66L1744.2 839.66ZM1744.2 779.69L1744.2 720.71L1801.3 720.71L1801.3 779.69L1744.2 779.69ZM1744.2 719.71L1744.2 660.73L1801.3 660.73L1801.3 719.71L1744.2 719.71ZM1744.2 659.73L1744.2 600.76L1801.3 600.76L1801.3 659.73L1744.2 659.73ZM1744.2 599.76L1744.2 540.78L1801.3 540.78L1801.3 599.76L1744.2 599.76ZM1744.2 539.78L1744.2 480.8L1801.3 480.8L1801.3 539.78L1744.2 539.78ZM1744.2 479.8L1744.2 420.83L1801.3 420.83L1801.3 479.8L1744.2 479.8ZM1744.2 419.83L1744.2 360.85L1801.3 360.85L1801.3 419.83L1744.2 419.83ZM1744.2 359.85L1744.2 300.88L1801.3 300.88L1801.3 359.85L1744.2 359.85ZM1744.2 299.88L1744.2 240.9L1801.3 240.9L1801.3 299.88L1744.2 299.88ZM1744.2 239.9L1744.2 180.92L1801.3 180.92L1801.3 239.9L1744.2 239.9ZM1744.2 179.92L1744.2 120.95L1801.3 120.95L1801.3 179.92L1744.2 179.92ZM1744.2 119.95L1744.2 60.97L1801.3 60.97L1801.3 119.95L1744.2 119.95ZM1802.3 1139.55L1802.3 1082.05L1859.41 1082.05L1859.41 1139.55L1802.3 1139.55ZM1802.3 1079.56L1802.3 1022.08L1859.41 1022.08L1859.41 1079.56L1802.3 1079.56ZM1802.3 1019.59L1802.3 962.1L1859.41 962.1L1859.41 1019.59L1802.3 1019.59ZM1802.3 959.61L1802.3 900.64L1859.41 900.64L1859.41 959.61L1802.3 959.61ZM1802.3 899.64L1802.3 840.66L1859.41 840.66L1859.41 899.64L1802.3 899.64ZM1802.3 839.66L1802.3 780.69L1859.41 780.69L1859.41 839.66L1802.3 839.66ZM1802.3 779.69L1802.3 720.71L1859.41 720.71L1859.41 779.69L1802.3 779.69ZM1802.3 719.71L1802.3 660.73L1859.41 660.73L1859.41 719.71L1802.3 719.71ZM1802.3 659.73L1802.3 600.76L1859.41 600.76L1859.41 659.73L1802.3 659.73ZM1802.3 599.76L1802.3 540.78L1859.41 540.78L1859.41 599.76L1802.3 599.76ZM1802.3 539.78L1802.3 480.8L1859.41 480.8L1859.41 539.78L1802.3 539.78ZM1802.3 479.8L1802.3 420.83L1859.41 420.83L1859.41 479.8L1802.3 479.8ZM1802.3 419.83L1802.3 360.85L1859.41 360.85L1859.41 419.83L1802.3 419.83ZM1802.3 359.85L1802.3 300.88L1859.41 300.88L1859.41 359.85L1802.3 359.85ZM1802.3 299.88L1802.3 240.9L1859.41 240.9L1859.41 299.88L1802.3 299.88ZM1802.3 239.9L1802.3 180.92L1859.41 180.92L1859.41 239.9L1802.3 239.9ZM1802.3 179.92L1802.3 120.95L1859.41 120.95L1859.41 179.92L1802.3 179.92ZM1802.3 119.95L1802.3 60.97L1859.41 60.97L1859.41 119.95L1802.3 119.95ZM0.99 1199.52L0 1199.52L0 2.48L0.99 2.48L0.99 1199.52Z" fill="url(#paint_linear_40_454_0)" fill-opacity="0" fill-rule="evenodd"/>
	<path id="Vector" d="M0 1202L1 1202L1 0L0 0L0 1202ZM582.06 1.24L581.06 1.24L581.06 59.97L523.96 59.97L523.96 1.24L522.96 1.24L522.96 59.97L465.85 59.97L465.85 1.24L464.85 1.24L464.85 59.97L407.74 59.97L407.74 1.24L406.74 1.24L406.74 59.97L349.64 59.97L349.64 1.24L348.64 1.24L348.64 59.97L291.53 59.97L291.53 1.24L290.53 1.24L290.53 59.97L233.43 59.97L233.43 1.24L232.43 1.24L232.43 59.97L175.31 59.97L175.31 1.24L174.31 1.24L174.31 59.97L117.21 59.97L117.21 1.24L116.21 1.24L116.21 59.97L59.1 59.97L59.1 1.24L58.1 1.24L58.1 59.97L1.24 59.97L1.24 60.97L58.1 60.97L58.1 119.95L1.24 119.95L1.24 120.95L58.1 120.95L58.1 179.92L1.24 179.92L1.24 180.92L58.1 180.92L58.1 239.9L1.24 239.9L1.24 240.9L58.1 240.9L58.1 299.88L1.24 299.88L1.24 300.88L58.1 300.88L58.1 359.85L1.24 359.85L1.24 360.85L58.1 360.85L58.1 419.83L1.24 419.83L1.24 420.83L58.1 420.83L58.1 479.8L1.24 479.8L1.24 480.8L58.1 480.8L58.1 539.78L1.24 539.78L1.24 540.78L58.1 540.78L58.1 599.76L1.24 599.76L1.24 600.76L58.1 600.76L58.1 659.73L1.24 659.73L1.24 660.73L58.1 660.73L58.1 719.71L1.24 719.71L1.24 720.71L58.1 720.71L58.1 779.69L1.24 779.69L1.24 780.69L58.1 780.69L58.1 839.66L1.24 839.66L1.24 840.66L58.1 840.66L58.1 899.64L1.24 899.64L1.24 900.64L58.1 900.64L58.1 959.61L1.24 959.61L1.24 962.1L58.1 962.1L58.1 1019.59L1.24 1019.59L1.24 1022.08L58.1 1022.08L58.1 1079.56L1.24 1079.56L1.24 1082.05L58.1 1082.05L58.1 1139.55L1.24 1139.55L1.24 1142.03L58.1 1142.03L58.1 1200.76L59.1 1200.76L59.1 1142.03L116.21 1142.03L116.21 1200.76L117.21 1200.76L117.21 1142.03L174.31 1142.03L174.31 1200.76L175.31 1200.76L175.31 1142.03L232.43 1142.03L232.43 1200.76L233.43 1200.76L233.43 1142.03L290.53 1142.03L290.53 1200.76L291.53 1200.76L291.53 1142.03L348.64 1142.03L348.64 1200.76L349.64 1200.76L349.64 1142.03L406.74 1142.03L406.74 1200.76L407.74 1200.76L407.74 1142.03L464.85 1142.03L464.85 1200.76L465.85 1200.76L465.85 1142.03L522.96 1142.03L522.96 1200.76L523.96 1200.76L523.96 1142.03L581.06 1142.03L581.06 1200.76L582.06 1200.76L582.06 1142.03L639.17 1142.03L639.17 1200.76L640.17 1200.76L640.17 1142.03L697.27 1142.03L697.27 1200.76L698.27 1200.76L698.27 1142.03L755.38 1142.03L755.38 1200.76L756.38 1200.76L756.38 1142.03L813.49 1142.03L813.49 1200.76L814.49 1200.76L814.49 1142.03L871.59 1142.03L871.59 1200.76L872.59 1200.76L872.59 1142.03L929.7 1142.03L929.7 1200.76L930.7 1200.76L930.7 1142.03L987.81 1142.03L987.81 1200.76L988.81 1200.76L988.81 1142.03L1045.92 1142.03L1045.92 1200.76L1046.92 1200.76L1046.92 1142.03L1104.03 1142.03L1104.03 1200.76L1105.03 1200.76L1105.03 1142.03L1162.13 1142.03L1162.13 1200.76L1163.13 1200.76L1163.13 1142.03L1220.24 1142.03L1220.24 1200.76L1221.24 1200.76L1221.24 1142.03L1278.34 1142.03L1278.34 1200.76L1279.34 1200.76L1279.34 1142.03L1336.45 1142.03L1336.45 1200.76L1337.45 1200.76L1337.45 1142.03L1394.56 1142.03L1394.56 1200.76L1395.56 1200.76L1395.56 1142.03L1452.66 1142.03L1452.66 1200.76L1453.66 1200.76L1453.66 1142.03L1510.77 1142.03L1510.77 1200.76L1511.77 1200.76L1511.77 1142.03L1568.87 1142.03L1568.87 1200.76L1569.87 1200.76L1569.87 1142.03L1626.98 1142.03L1626.98 1200.76L1627.98 1200.76L1627.98 1142.03L1685.09 1142.03L1685.09 1200.76L1686.09 1200.76L1686.09 1142.03L1743.2 1142.03L1743.2 1200.76L1744.2 1200.76L1744.2 1142.03L1801.3 1142.03L1801.3 1200.76L1802.3 1200.76L1802.3 1142.03L1859.41 1142.03L1859.41 1200.76L1860.41 1200.76L1860.41 1142.03L1918.76 1142.03L1918.76 1139.55L1860.41 1139.55L1860.41 1082.05L1918.76 1082.05L1918.76 1079.56L1860.41 1079.56L1860.41 1022.08L1918.76 1022.08L1918.76 1019.59L1860.41 1019.59L1860.41 962.1L1918.76 962.1L1918.76 959.61L1860.41 959.61L1860.41 900.64L1918.76 900.64L1918.76 899.64L1860.41 899.64L1860.41 840.66L1918.76 840.66L1918.76 839.66L1860.41 839.66L1860.41 780.69L1918.76 780.69L1918.76 779.69L1860.41 779.69L1860.41 720.71L1918.76 720.71L1918.76 719.71L1860.41 719.71L1860.41 660.73L1918.76 660.73L1918.76 659.73L1860.41 659.73L1860.41 600.76L1918.76 600.76L1918.76 599.76L1860.41 599.76L1860.41 540.78L1918.76 540.78L1918.76 539.78L1860.41 539.78L1860.41 480.8L1918.76 480.8L1918.76 479.8L1860.41 479.8L1860.41 420.83L1918.76 420.83L1918.76 419.83L1860.41 419.83L1860.41 360.85L1918.76 360.85L1918.76 359.85L1860.41 359.85L1860.41 300.88L1918.76 300.88L1918.76 299.88L1860.41 299.88L1860.41 240.9L1918.76 240.9L1918.76 239.9L1860.41 239.9L1860.41 180.92L1918.76 180.92L1918.76 179.92L1860.41 179.92L1860.41 120.95L1918.76 120.95L1918.76 119.95L1860.41 119.95L1860.41 60.97L1918.76 60.97L1918.76 59.97L1860.41 59.97L1860.41 1.24L1859.41 1.24L1859.41 59.97L1802.3 59.97L1802.3 1.24L1801.3 1.24L1801.3 59.97L1744.2 59.97L1744.2 1.24L1743.2 1.24L1743.2 59.97L1686.09 59.97L1686.09 1.24L1685.09 1.24L1685.09 59.97L1627.98 59.97L1627.98 1.24L1626.98 1.24L1626.98 59.97L1569.87 59.97L1569.87 1.24L1568.87 1.24L1568.87 59.97L1511.77 59.97L1511.77 1.24L1510.77 1.24L1510.77 59.97L1453.66 59.97L1453.66 1.24L1452.66 1.24L1452.66 59.97L1395.56 59.97L1395.56 1.24L1394.56 1.24L1394.56 59.97L1337.45 59.97L1337.45 1.24L1336.45 1.24L1336.45 59.97L1279.34 59.97L1279.34 1.24L1278.34 1.24L1278.34 59.97L1221.24 59.97L1221.24 1.24L1220.24 1.24L1220.24 59.97L1163.13 59.97L1163.13 1.24L1162.13 1.24L1162.13 59.97L1105.03 59.97L1105.03 1.24L1104.03 1.24L1104.03 59.97L1046.92 59.97L1046.92 1.24L1045.92 1.24L1045.92 59.97L988.81 59.97L988.81 1.24L987.81 1.24L987.81 59.97L930.7 59.97L930.7 1.24L929.7 1.24L929.7 59.97L872.59 59.97L872.59 1.24L871.59 1.24L871.59 59.97L814.49 59.97L814.49 1.24L813.49 1.24L813.49 59.97L756.38 59.97L756.38 1.24L755.38 1.24L755.38 59.97L698.27 59.97L698.27 1.24L697.27 1.24L697.27 59.97L640.17 59.97L640.17 1.24L639.17 1.24L639.17 59.97L582.06 59.97L582.06 1.24ZM581.06 60.97L581.06 119.95L523.96 119.95L523.96 60.97L581.06 60.97ZM581.06 120.95L581.06 179.92L523.96 179.92L523.96 120.95L581.06 120.95ZM581.06 180.92L581.06 239.9L523.96 239.9L523.96 180.92L581.06 180.92ZM581.06 240.9L581.06 299.88L523.96 299.88L523.96 240.9L581.06 240.9ZM581.06 300.88L581.06 359.85L523.96 359.85L523.96 300.88L581.06 300.88ZM581.06 360.85L581.06 419.83L523.96 419.83L523.96 360.85L581.06 360.85ZM581.06 420.83L581.06 479.8L523.96 479.8L523.96 420.83L581.06 420.83ZM581.06 480.8L581.06 539.78L523.96 539.78L523.96 480.8L581.06 480.8ZM581.06 540.78L581.06 599.76L523.96 599.76L523.96 540.78L581.06 540.78ZM581.06 600.76L581.06 659.73L523.96 659.73L523.96 600.76L581.06 600.76ZM581.06 660.73L581.06 719.71L523.96 719.71L523.96 660.73L581.06 660.73ZM581.06 720.71L581.06 779.69L523.96 779.69L523.96 720.71L581.06 720.71ZM581.06 780.69L581.06 839.66L523.96 839.66L523.96 780.69L581.06 780.69ZM581.06 840.66L581.06 899.64L523.96 899.64L523.96 840.66L581.06 840.66ZM581.06 900.64L581.06 959.61L523.96 959.61L523.96 900.64L581.06 900.64ZM581.06 962.1L581.06 1019.59L523.96 1019.59L523.96 962.1L581.06 962.1ZM581.06 1022.08L581.06 1079.56L523.96 1079.56L523.96 1022.08L581.06 1022.08ZM581.06 1082.05L581.06 1139.55L523.96 1139.55L523.96 1082.05L581.06 1082.05ZM582.06 1139.55L582.06 1082.05L639.17 1082.05L639.17 1139.55L582.06 1139.55ZM582.06 1079.56L582.06 1022.08L639.17 1022.08L639.17 1079.56L582.06 1079.56ZM582.06 1019.59L582.06 962.1L639.17 962.1L639.17 1019.59L582.06 1019.59ZM582.06 959.61L582.06 900.64L639.17 900.64L639.17 959.61L582.06 959.61ZM582.06 899.64L582.06 840.66L639.17 840.66L639.17 899.64L582.06 899.64ZM582.06 839.66L582.06 780.69L639.17 780.69L639.17 839.66L582.06 839.66ZM582.06 779.69L582.06 720.71L639.17 720.71L639.17 779.69L582.06 779.69ZM582.06 719.71L582.06 660.73L639.17 660.73L639.17 719.71L582.06 719.71ZM582.06 659.73L582.06 600.76L639.17 600.76L639.17 659.73L582.06 659.73ZM582.06 599.76L582.06 540.78L639.17 540.78L639.17 599.76L582.06 599.76ZM582.06 539.78L582.06 480.8L639.17 480.8L639.17 539.78L582.06 539.78ZM582.06 479.8L582.06 420.83L639.17 420.83L639.17 479.8L582.06 479.8ZM582.06 419.83L582.06 360.85L639.17 360.85L639.17 419.83L582.06 419.83ZM582.06 359.85L582.06 300.88L639.17 300.88L639.17 359.85L582.06 359.85ZM582.06 299.88L582.06 240.9L639.17 240.9L639.17 299.88L582.06 299.88ZM582.06 239.9L582.06 180.92L639.17 180.92L639.17 239.9L582.06 239.9ZM582.06 179.92L582.06 120.95L639.17 120.95L639.17 179.92L582.06 179.92ZM582.06 119.95L582.06 60.97L639.17 60.97L639.17 119.95L582.06 119.95ZM987.81 60.97L987.81 119.95L930.7 119.95L930.7 60.97L987.81 60.97ZM987.81 120.95L987.81 179.92L930.7 179.92L930.7 120.95L987.81 120.95ZM987.81 180.92L987.81 239.9L930.7 239.9L930.7 180.92L987.81 180.92ZM987.81 240.9L987.81 299.88L930.7 299.88L930.7 240.9L987.81 240.9ZM987.81 300.88L987.81 359.85L930.7 359.85L930.7 300.88L987.81 300.88ZM987.81 360.85L987.81 419.83L930.7 419.83L930.7 360.85L987.81 360.85ZM987.81 420.83L987.81 479.8L930.7 479.8L930.7 420.83L987.81 420.83ZM987.81 480.8L987.81 539.78L930.7 539.78L930.7 480.8L987.81 480.8ZM987.81 540.78L987.81 599.76L930.7 599.76L930.7 540.78L987.81 540.78ZM987.81 600.76L987.81 659.73L930.7 659.73L930.7 600.76L987.81 600.76ZM987.81 660.73L987.81 719.71L930.7 719.71L930.7 660.73L987.81 660.73ZM987.81 720.71L987.81 779.69L930.7 779.69L930.7 720.71L987.81 720.71ZM987.81 780.69L987.81 839.66L930.7 839.66L930.7 780.69L987.81 780.69ZM987.81 840.66L987.81 899.64L930.7 899.64L930.7 840.66L987.81 840.66ZM987.81 900.64L987.81 959.61L930.7 959.61L930.7 900.64L987.81 900.64ZM987.81 962.1L987.81 1019.59L930.7 1019.59L930.7 962.1L987.81 962.1ZM987.81 1022.08L987.81 1079.56L930.7 1079.56L930.7 1022.08L987.81 1022.08ZM987.81 1082.05L987.81 1139.55L930.7 1139.55L930.7 1082.05L987.81 1082.05ZM988.81 1139.55L988.81 1082.05L1045.92 1082.05L1045.92 1139.55L988.81 1139.55ZM988.81 1079.56L988.81 1022.08L1045.92 1022.08L1045.92 1079.56L988.81 1079.56ZM988.81 1019.59L988.81 962.1L1045.92 962.1L1045.92 1019.59L988.81 1019.59ZM988.81 959.61L988.81 900.64L1045.92 900.64L1045.92 959.61L988.81 959.61ZM988.81 899.64L988.81 840.66L1045.92 840.66L1045.92 899.64L988.81 899.64ZM988.81 839.66L988.81 780.69L1045.92 780.69L1045.92 839.66L988.81 839.66ZM988.81 779.69L988.81 720.71L1045.92 720.71L1045.92 779.69L988.81 779.69ZM988.81 719.71L988.81 660.73L1045.92 660.73L1045.92 719.71L988.81 719.71ZM988.81 659.73L988.81 600.76L1045.92 600.76L1045.92 659.73L988.81 659.73ZM988.81 599.76L988.81 540.78L1045.92 540.78L1045.92 599.76L988.81 599.76ZM988.81 539.78L988.81 480.8L1045.92 480.8L1045.92 539.78L988.81 539.78ZM988.81 479.8L988.81 420.83L1045.92 420.83L1045.92 479.8L988.81 479.8ZM988.81 419.83L988.81 360.85L1045.92 360.85L1045.92 419.83L988.81 419.83ZM988.81 359.85L988.81 300.88L1045.92 300.88L1045.92 359.85L988.81 359.85ZM988.81 299.88L988.81 240.9L1045.92 240.9L1045.92 299.88L988.81 299.88ZM988.81 239.9L988.81 180.92L1045.92 180.92L1045.92 239.9L988.81 239.9ZM988.81 179.92L988.81 120.95L1045.92 120.95L1045.92 179.92L988.81 179.92ZM988.81 119.95L988.81 60.97L1045.92 60.97L1045.92 119.95L988.81 119.95ZM59.1 1139.55L59.1 1082.05L116.21 1082.05L116.21 1139.55L59.1 1139.55ZM59.1 1079.56L59.1 1022.08L116.21 1022.08L116.21 1079.56L59.1 1079.56ZM59.1 1019.59L59.1 962.1L116.21 962.1L116.21 1019.59L59.1 1019.59ZM59.1 959.61L59.1 900.64L116.21 900.64L116.21 959.61L59.1 959.61ZM59.1 899.64L59.1 840.66L116.21 840.66L116.21 899.64L59.1 899.64ZM59.1 839.66L59.1 780.69L116.21 780.69L116.21 839.66L59.1 839.66ZM59.1 779.69L59.1 720.71L116.21 720.71L116.21 779.69L59.1 779.69ZM59.1 719.71L59.1 660.73L116.21 660.73L116.21 719.71L59.1 719.71ZM59.1 659.73L59.1 600.76L116.21 600.76L116.21 659.73L59.1 659.73ZM59.1 599.76L59.1 540.78L116.21 540.78L116.21 599.76L59.1 599.76ZM59.1 539.78L59.1 480.8L116.21 480.8L116.21 539.78L59.1 539.78ZM59.1 479.8L59.1 420.83L116.21 420.83L116.21 479.8L59.1 479.8ZM59.1 419.83L59.1 360.85L116.21 360.85L116.21 419.83L59.1 419.83ZM59.1 359.85L59.1 300.88L116.21 300.88L116.21 359.85L59.1 359.85ZM59.1 299.88L59.1 240.9L116.21 240.9L116.21 299.88L59.1 299.88ZM59.1 239.9L59.1 180.92L116.21 180.92L116.21 239.9L59.1 239.9ZM59.1 179.92L59.1 120.95L116.21 120.95L116.21 179.92L59.1 179.92ZM59.1 119.95L59.1 60.97L116.21 60.97L116.21 119.95L59.1 119.95ZM117.21 1139.55L117.21 1082.05L174.31 1082.05L174.31 1139.55L117.21 1139.55ZM117.21 1079.56L117.21 1022.08L174.31 1022.08L174.31 1079.56L117.21 1079.56ZM117.21 1019.59L117.21 962.1L174.31 962.1L174.31 1019.59L117.21 1019.59ZM117.21 959.61L117.21 900.64L174.31 900.64L174.31 959.61L117.21 959.61ZM117.21 899.64L117.21 840.66L174.31 840.66L174.31 899.64L117.21 899.64ZM117.21 839.66L117.21 780.69L174.31 780.69L174.31 839.66L117.21 839.66ZM117.21 779.69L117.21 720.71L174.31 720.71L174.31 779.69L117.21 779.69ZM117.21 719.71L117.21 660.73L174.31 660.73L174.31 719.71L117.21 719.71ZM117.21 659.73L117.21 600.76L174.31 600.76L174.31 659.73L117.21 659.73ZM117.21 599.76L117.21 540.78L174.31 540.78L174.31 599.76L117.21 599.76ZM117.21 539.78L117.21 480.8L174.31 480.8L174.31 539.78L117.21 539.78ZM117.21 479.8L117.21 420.83L174.31 420.83L174.31 479.8L117.21 479.8ZM117.21 419.83L117.21 360.85L174.31 360.85L174.31 419.83L117.21 419.83ZM117.21 359.85L117.21 300.88L174.31 300.88L174.31 359.85L117.21 359.85ZM117.21 299.88L117.21 240.9L174.31 240.9L174.31 299.88L117.21 299.88ZM117.21 239.9L117.21 180.92L174.31 180.92L174.31 239.9L117.21 239.9ZM117.21 179.92L117.21 120.95L174.31 120.95L174.31 179.92L117.21 179.92ZM117.21 119.95L117.21 60.97L174.31 60.97L174.31 119.95L117.21 119.95ZM175.31 1139.55L175.31 1082.05L232.43 1082.05L232.43 1139.55L175.31 1139.55ZM175.31 1079.56L175.31 1022.08L232.43 1022.08L232.43 1079.56L175.31 1079.56ZM175.31 1019.59L175.31 962.1L232.43 962.1L232.43 1019.59L175.31 1019.59ZM175.31 959.61L175.31 900.64L232.43 900.64L232.43 959.61L175.31 959.61ZM175.31 899.64L175.31 840.66L232.43 840.66L232.43 899.64L175.31 899.64ZM175.31 839.66L175.31 780.69L232.43 780.69L232.43 839.66L175.31 839.66ZM175.31 779.69L175.31 720.71L232.43 720.71L232.43 779.69L175.31 779.69ZM175.31 719.71L175.31 660.73L232.43 660.73L232.43 719.71L175.31 719.71ZM175.31 659.73L175.31 600.76L232.43 600.76L232.43 659.73L175.31 659.73ZM175.31 599.76L175.31 540.78L232.43 540.78L232.43 599.76L175.31 599.76ZM175.31 539.78L175.31 480.8L232.43 480.8L232.43 539.78L175.31 539.78ZM175.31 479.8L175.31 420.83L232.43 420.83L232.43 479.8L175.31 479.8ZM175.31 419.83L175.31 360.85L232.43 360.85L232.43 419.83L175.31 419.83ZM175.31 359.85L175.31 300.88L232.43 300.88L232.43 359.85L175.31 359.85ZM175.31 299.88L175.31 240.9L232.43 240.9L232.43 299.88L175.31 299.88ZM175.31 239.9L175.31 180.92L232.43 180.92L232.43 239.9L175.31 239.9ZM175.31 179.92L175.31 120.95L232.43 120.95L232.43 179.92L175.31 179.92ZM175.31 119.95L175.31 60.97L232.43 60.97L232.43 119.95L175.31 119.95ZM233.43 1139.55L233.43 1082.05L290.53 1082.05L290.53 1139.55L233.43 1139.55ZM233.43 1079.56L233.43 1022.08L290.53 1022.08L290.53 1079.56L233.43 1079.56ZM233.43 1019.59L233.43 962.1L290.53 962.1L290.53 1019.59L233.43 1019.59ZM233.43 959.61L233.43 900.64L290.53 900.64L290.53 959.61L233.43 959.61ZM233.43 899.64L233.43 840.66L290.53 840.66L290.53 899.64L233.43 899.64ZM233.43 839.66L233.43 780.69L290.53 780.69L290.53 839.66L233.43 839.66ZM233.43 779.69L233.43 720.71L290.53 720.71L290.53 779.69L233.43 779.69ZM233.43 719.71L233.43 660.73L290.53 660.73L290.53 719.71L233.43 719.71ZM233.43 659.73L233.43 600.76L290.53 600.76L290.53 659.73L233.43 659.73ZM233.43 599.76L233.43 540.78L290.53 540.78L290.53 599.76L233.43 599.76ZM233.43 539.78L233.43 480.8L290.53 480.8L290.53 539.78L233.43 539.78ZM233.43 479.8L233.43 420.83L290.53 420.83L290.53 479.8L233.43 479.8ZM233.43 419.83L233.43 360.85L290.53 360.85L290.53 419.83L233.43 419.83ZM233.43 359.85L233.43 300.88L290.53 300.88L290.53 359.85L233.43 359.85ZM233.43 299.88L233.43 240.9L290.53 240.9L290.53 299.88L233.43 299.88ZM233.43 239.9L233.43 180.92L290.53 180.92L290.53 239.9L233.43 239.9ZM233.43 179.92L233.43 120.95L290.53 120.95L290.53 179.92L233.43 179.92ZM233.43 119.95L233.43 60.97L290.53 60.97L290.53 119.95L233.43 119.95ZM291.53 1139.55L291.53 1082.05L348.64 1082.05L348.64 1139.55L291.53 1139.55ZM291.53 1079.56L291.53 1022.08L348.64 1022.08L348.64 1079.56L291.53 1079.56ZM291.53 1019.59L291.53 962.1L348.64 962.1L348.64 1019.59L291.53 1019.59ZM291.53 959.61L291.53 900.64L348.64 900.64L348.64 959.61L291.53 959.61ZM291.53 899.64L291.53 840.66L348.64 840.66L348.64 899.64L291.53 899.64ZM291.53 839.66L291.53 780.69L348.64 780.69L348.64 839.66L291.53 839.66ZM291.53 779.69L291.53 720.71L348.64 720.71L348.64 779.69L291.53 779.69ZM291.53 719.71L291.53 660.73L348.64 660.73L348.64 719.71L291.53 719.71ZM291.53 659.73L291.53 600.76L348.64 600.76L348.64 659.73L291.53 659.73ZM291.53 599.76L291.53 540.78L348.64 540.78L348.64 599.76L291.53 599.76ZM291.53 539.78L291.53 480.8L348.64 480.8L348.64 539.78L291.53 539.78ZM291.53 479.8L291.53 420.83L348.64 420.83L348.64 479.8L291.53 479.8ZM291.53 419.83L291.53 360.85L348.64 360.85L348.64 419.83L291.53 419.83ZM291.53 359.85L291.53 300.88L348.64 300.88L348.64 359.85L291.53 359.85ZM291.53 299.88L291.53 240.9L348.64 240.9L348.64 299.88L291.53 299.88ZM291.53 239.9L291.53 180.92L348.64 180.92L348.64 239.9L291.53 239.9ZM291.53 179.92L291.53 120.95L348.64 120.95L348.64 179.92L291.53 179.92ZM291.53 119.95L291.53 60.97L348.64 60.97L348.64 119.95L291.53 119.95ZM349.64 1139.55L349.64 1082.05L406.74 1082.05L406.74 1139.55L349.64 1139.55ZM349.64 1079.56L349.64 1022.08L406.74 1022.08L406.74 1079.56L349.64 1079.56ZM349.64 1019.59L349.64 962.1L406.74 962.1L406.74 1019.59L349.64 1019.59ZM349.64 959.61L349.64 900.64L406.74 900.64L406.74 959.61L349.64 959.61ZM349.64 899.64L349.64 840.66L406.74 840.66L406.74 899.64L349.64 899.64ZM349.64 839.66L349.64 780.69L406.74 780.69L406.74 839.66L349.64 839.66ZM349.64 779.69L349.64 720.71L406.74 720.71L406.74 779.69L349.64 779.69ZM349.64 719.71L349.64 660.73L406.74 660.73L406.74 719.71L349.64 719.71ZM349.64 659.73L349.64 600.76L406.74 600.76L406.74 659.73L349.64 659.73ZM349.64 599.76L349.64 540.78L406.74 540.78L406.74 599.76L349.64 599.76ZM349.64 539.78L349.64 480.8L406.74 480.8L406.74 539.78L349.64 539.78ZM349.64 479.8L349.64 420.83L406.74 420.83L406.74 479.8L349.64 479.8ZM349.64 419.83L349.64 360.85L406.74 360.85L406.74 419.83L349.64 419.83ZM349.64 359.85L349.64 300.88L406.74 300.88L406.74 359.85L349.64 359.85ZM349.64 299.88L349.64 240.9L406.74 240.9L406.74 299.88L349.64 299.88ZM349.64 239.9L349.64 180.92L406.74 180.92L406.74 239.9L349.64 239.9ZM349.64 179.92L349.64 120.95L406.74 120.95L406.74 179.92L349.64 179.92ZM349.64 119.95L349.64 60.97L406.74 60.97L406.74 119.95L349.64 119.95ZM407.74 1139.55L407.74 1082.05L464.85 1082.05L464.85 1139.55L407.74 1139.55ZM407.74 1079.56L407.74 1022.08L464.85 1022.08L464.85 1079.56L407.74 1079.56ZM407.74 1019.59L407.74 962.1L464.85 962.1L464.85 1019.59L407.74 1019.59ZM407.74 959.61L407.74 900.64L464.85 900.64L464.85 959.61L407.74 959.61ZM407.74 899.64L407.74 840.66L464.85 840.66L464.85 899.64L407.74 899.64ZM407.74 839.66L407.74 780.69L464.85 780.69L464.85 839.66L407.74 839.66ZM407.74 779.69L407.74 720.71L464.85 720.71L464.85 779.69L407.74 779.69ZM407.74 719.71L407.74 660.73L464.85 660.73L464.85 719.71L407.74 719.71ZM407.74 659.73L407.74 600.76L464.85 600.76L464.85 659.73L407.74 659.73ZM407.74 599.76L407.74 540.78L464.85 540.78L464.85 599.76L407.74 599.76ZM407.74 539.78L407.74 480.8L464.85 480.8L464.85 539.78L407.74 539.78ZM407.74 479.8L407.74 420.83L464.85 420.83L464.85 479.8L407.74 479.8ZM407.74 419.83L407.74 360.85L464.85 360.85L464.85 419.83L407.74 419.83ZM407.74 359.85L407.74 300.88L464.85 300.88L464.85 359.85L407.74 359.85ZM407.74 299.88L407.74 240.9L464.85 240.9L464.85 299.88L407.74 299.88ZM407.74 239.9L407.74 180.92L464.85 180.92L464.85 239.9L407.74 239.9ZM407.74 179.92L407.74 120.95L464.85 120.95L464.85 179.92L407.74 179.92ZM407.74 119.95L407.74 60.97L464.85 60.97L464.85 119.95L407.74 119.95ZM465.85 1139.55L465.85 1082.05L522.96 1082.05L522.96 1139.55L465.85 1139.55ZM465.85 1079.56L465.85 1022.08L522.96 1022.08L522.96 1079.56L465.85 1079.56ZM465.85 1019.59L465.85 962.1L522.96 962.1L522.96 1019.59L465.85 1019.59ZM465.85 959.61L465.85 900.64L522.96 900.64L522.96 959.61L465.85 959.61ZM465.85 899.64L465.85 840.66L522.96 840.66L522.96 899.64L465.85 899.64ZM465.85 839.66L465.85 780.69L522.96 780.69L522.96 839.66L465.85 839.66ZM465.85 779.69L465.85 720.71L522.96 720.71L522.96 779.69L465.85 779.69ZM465.85 719.71L465.85 660.73L522.96 660.73L522.96 719.71L465.85 719.71ZM465.85 659.73L465.85 600.76L522.96 600.76L522.96 659.73L465.85 659.73ZM465.85 599.76L465.85 540.78L522.96 540.78L522.96 599.76L465.85 599.76ZM465.85 539.78L465.85 480.8L522.96 480.8L522.96 539.78L465.85 539.78ZM465.85 479.8L465.85 420.83L522.96 420.83L522.96 479.8L465.85 479.8ZM465.85 419.83L465.85 360.85L522.96 360.85L522.96 419.83L465.85 419.83ZM465.85 359.85L465.85 300.88L522.96 300.88L522.96 359.85L465.85 359.85ZM465.85 299.88L465.85 240.9L522.96 240.9L522.96 299.88L465.85 299.88ZM465.85 239.9L465.85 180.92L522.96 180.92L522.96 239.9L465.85 239.9ZM465.85 179.92L465.85 120.95L522.96 120.95L522.96 179.92L465.85 179.92ZM465.85 119.95L465.85 60.97L522.96 60.97L522.96 119.95L465.85 119.95ZM640.17 1139.55L640.17 1082.05L697.27 1082.05L697.27 1139.55L640.17 1139.55ZM640.17 1079.56L640.17 1022.08L697.27 1022.08L697.27 1079.56L640.17 1079.56ZM640.17 1019.59L640.17 962.1L697.27 962.1L697.27 1019.59L640.17 1019.59ZM640.17 959.61L640.17 900.64L697.27 900.64L697.27 959.61L640.17 959.61ZM640.17 899.64L640.17 840.66L697.27 840.66L697.27 899.64L640.17 899.64ZM640.17 839.66L640.17 780.69L697.27 780.69L697.27 839.66L640.17 839.66ZM640.17 779.69L640.17 720.71L697.27 720.71L697.27 779.69L640.17 779.69ZM640.17 719.71L640.17 660.73L697.27 660.73L697.27 719.71L640.17 719.71ZM640.17 659.73L640.17 600.76L697.27 600.76L697.27 659.73L640.17 659.73ZM640.17 599.76L640.17 540.78L697.27 540.78L697.27 599.76L640.17 599.76ZM640.17 539.78L640.17 480.8L697.27 480.8L697.27 539.78L640.17 539.78ZM640.17 479.8L640.17 420.83L697.27 420.83L697.27 479.8L640.17 479.8ZM640.17 419.83L640.17 360.85L697.27 360.85L697.27 419.83L640.17 419.83ZM640.17 359.85L640.17 300.88L697.27 300.88L697.27 359.85L640.17 359.85ZM640.17 299.88L640.17 240.9L697.27 240.9L697.27 299.88L640.17 299.88ZM640.17 239.9L640.17 180.92L697.27 180.92L697.27 239.9L640.17 239.9ZM640.17 179.92L640.17 120.95L697.27 120.95L697.27 179.92L640.17 179.92ZM640.17 119.95L640.17 60.97L697.27 60.97L697.27 119.95L640.17 119.95ZM698.27 1139.55L698.27 1082.05L755.38 1082.05L755.38 1139.55L698.27 1139.55ZM698.27 1079.56L698.27 1022.08L755.38 1022.08L755.38 1079.56L698.27 1079.56ZM698.27 1019.59L698.27 962.1L755.38 962.1L755.38 1019.59L698.27 1019.59ZM698.27 959.61L698.27 900.64L755.38 900.64L755.38 959.61L698.27 959.61ZM698.27 899.64L698.27 840.66L755.38 840.66L755.38 899.64L698.27 899.64ZM698.27 839.66L698.27 780.69L755.38 780.69L755.38 839.66L698.27 839.66ZM698.27 779.69L698.27 720.71L755.38 720.71L755.38 779.69L698.27 779.69ZM698.27 719.71L698.27 660.73L755.38 660.73L755.38 719.71L698.27 719.71ZM698.27 659.73L698.27 600.76L755.38 600.76L755.38 659.73L698.27 659.73ZM698.27 599.76L698.27 540.78L755.38 540.78L755.38 599.76L698.27 599.76ZM698.27 539.78L698.27 480.8L755.38 480.8L755.38 539.78L698.27 539.78ZM698.27 479.8L698.27 420.83L755.38 420.83L755.38 479.8L698.27 479.8ZM698.27 419.83L698.27 360.85L755.38 360.85L755.38 419.83L698.27 419.83ZM698.27 359.85L698.27 300.88L755.38 300.88L755.38 359.85L698.27 359.85ZM698.27 299.88L698.27 240.9L755.38 240.9L755.38 299.88L698.27 299.88ZM698.27 239.9L698.27 180.92L755.38 180.92L755.38 239.9L698.27 239.9ZM698.27 179.92L698.27 120.95L755.38 120.95L755.38 179.92L698.27 179.92ZM698.27 119.95L698.27 60.97L755.38 60.97L755.38 119.95L698.27 119.95ZM756.38 1139.55L756.38 1082.05L813.49 1082.05L813.49 1139.55L756.38 1139.55ZM756.38 1079.56L756.38 1022.08L813.49 1022.08L813.49 1079.56L756.38 1079.56ZM756.38 1019.59L756.38 962.1L813.49 962.1L813.49 1019.59L756.38 1019.59ZM756.38 959.61L756.38 900.64L813.49 900.64L813.49 959.61L756.38 959.61ZM756.38 899.64L756.38 840.66L813.49 840.66L813.49 899.64L756.38 899.64ZM756.38 839.66L756.38 780.69L813.49 780.69L813.49 839.66L756.38 839.66ZM756.38 779.69L756.38 720.71L813.49 720.71L813.49 779.69L756.38 779.69ZM756.38 719.71L756.38 660.73L813.49 660.73L813.49 719.71L756.38 719.71ZM756.38 659.73L756.38 600.76L813.49 600.76L813.49 659.73L756.38 659.73ZM756.38 599.76L756.38 540.78L813.49 540.78L813.49 599.76L756.38 599.76ZM756.38 539.78L756.38 480.8L813.49 480.8L813.49 539.78L756.38 539.78ZM756.38 479.8L756.38 420.83L813.49 420.83L813.49 479.8L756.38 479.8ZM756.38 419.83L756.38 360.85L813.49 360.85L813.49 419.83L756.38 419.83ZM756.38 359.85L756.38 300.88L813.49 300.88L813.49 359.85L756.38 359.85ZM756.38 299.88L756.38 240.9L813.49 240.9L813.49 299.88L756.38 299.88ZM756.38 239.9L756.38 180.92L813.49 180.92L813.49 239.9L756.38 239.9ZM756.38 179.92L756.38 120.95L813.49 120.95L813.49 179.92L756.38 179.92ZM756.38 119.95L756.38 60.97L813.49 60.97L813.49 119.95L756.38 119.95ZM814.49 1139.55L814.49 1082.05L871.59 1082.05L871.59 1139.55L814.49 1139.55ZM814.49 1079.56L814.49 1022.08L871.59 1022.08L871.59 1079.56L814.49 1079.56ZM814.49 1019.59L814.49 962.1L871.59 962.1L871.59 1019.59L814.49 1019.59ZM814.49 959.61L814.49 900.64L871.59 900.64L871.59 959.61L814.49 959.61ZM814.49 899.64L814.49 840.66L871.59 840.66L871.59 899.64L814.49 899.64ZM814.49 839.66L814.49 780.69L871.59 780.69L871.59 839.66L814.49 839.66ZM814.49 779.69L814.49 720.71L871.59 720.71L871.59 779.69L814.49 779.69ZM814.49 719.71L814.49 660.73L871.59 660.73L871.59 719.71L814.49 719.71ZM814.49 659.73L814.49 600.76L871.59 600.76L871.59 659.73L814.49 659.73ZM814.49 599.76L814.49 540.78L871.59 540.78L871.59 599.76L814.49 599.76ZM814.49 539.78L814.49 480.8L871.59 480.8L871.59 539.78L814.49 539.78ZM814.49 479.8L814.49 420.83L871.59 420.83L871.59 479.8L814.49 479.8ZM814.49 419.83L814.49 360.85L871.59 360.85L871.59 419.83L814.49 419.83ZM814.49 359.85L814.49 300.88L871.59 300.88L871.59 359.85L814.49 359.85ZM814.49 299.88L814.49 240.9L871.59 240.9L871.59 299.88L814.49 299.88ZM814.49 239.9L814.49 180.92L871.59 180.92L871.59 239.9L814.49 239.9ZM814.49 179.92L814.49 120.95L871.59 120.95L871.59 179.92L814.49 179.92ZM814.49 119.95L814.49 60.97L871.59 60.97L871.59 119.95L814.49 119.95ZM872.59 1139.55L872.59 1082.05L929.7 1082.05L929.7 1139.55L872.59 1139.55ZM872.59 1079.56L872.59 1022.08L929.7 1022.08L929.7 1079.56L872.59 1079.56ZM872.59 1019.59L872.59 962.1L929.7 962.1L929.7 1019.59L872.59 1019.59ZM872.59 959.61L872.59 900.64L929.7 900.64L929.7 959.61L872.59 959.61ZM872.59 899.64L872.59 840.66L929.7 840.66L929.7 899.64L872.59 899.64ZM872.59 839.66L872.59 780.69L929.7 780.69L929.7 839.66L872.59 839.66ZM872.59 779.69L872.59 720.71L929.7 720.71L929.7 779.69L872.59 779.69ZM872.59 719.71L872.59 660.73L929.7 660.73L929.7 719.71L872.59 719.71ZM872.59 659.73L872.59 600.76L929.7 600.76L929.7 659.73L872.59 659.73ZM872.59 599.76L872.59 540.78L929.7 540.78L929.7 599.76L872.59 599.76ZM872.59 539.78L872.59 480.8L929.7 480.8L929.7 539.78L872.59 539.78ZM872.59 479.8L872.59 420.83L929.7 420.83L929.7 479.8L872.59 479.8ZM872.59 419.83L872.59 360.85L929.7 360.85L929.7 419.83L872.59 419.83ZM872.59 359.85L872.59 300.88L929.7 300.88L929.7 359.85L872.59 359.85ZM872.59 299.88L872.59 240.9L929.7 240.9L929.7 299.88L872.59 299.88ZM872.59 239.9L872.59 180.92L929.7 180.92L929.7 239.9L872.59 239.9ZM872.59 179.92L872.59 120.95L929.7 120.95L929.7 179.92L872.59 179.92ZM872.59 119.95L872.59 60.97L929.7 60.97L929.7 119.95L872.59 119.95ZM1046.92 1139.55L1046.92 1082.05L1104.03 1082.05L1104.03 1139.55L1046.92 1139.55ZM1046.92 1079.56L1046.92 1022.08L1104.03 1022.08L1104.03 1079.56L1046.92 1079.56ZM1046.92 1019.59L1046.92 962.1L1104.03 962.1L1104.03 1019.59L1046.92 1019.59ZM1046.92 959.61L1046.92 900.64L1104.03 900.64L1104.03 959.61L1046.92 959.61ZM1046.92 899.64L1046.92 840.66L1104.03 840.66L1104.03 899.64L1046.92 899.64ZM1046.92 839.66L1046.92 780.69L1104.03 780.69L1104.03 839.66L1046.92 839.66ZM1046.92 779.69L1046.92 720.71L1104.03 720.71L1104.03 779.69L1046.92 779.69ZM1046.92 719.71L1046.92 660.73L1104.03 660.73L1104.03 719.71L1046.92 719.71ZM1046.92 659.73L1046.92 600.76L1104.03 600.76L1104.03 659.73L1046.92 659.73ZM1046.92 599.76L1046.92 540.78L1104.03 540.78L1104.03 599.76L1046.92 599.76ZM1046.92 539.78L1046.92 480.8L1104.03 480.8L1104.03 539.78L1046.92 539.78ZM1046.92 479.8L1046.92 420.83L1104.03 420.83L1104.03 479.8L1046.92 479.8ZM1046.92 419.83L1046.92 360.85L1104.03 360.85L1104.03 419.83L1046.92 419.83ZM1046.92 359.85L1046.92 300.88L1104.03 300.88L1104.03 359.85L1046.92 359.85ZM1046.92 299.88L1046.92 240.9L1104.03 240.9L1104.03 299.88L1046.92 299.88ZM1046.92 239.9L1046.92 180.92L1104.03 180.92L1104.03 239.9L1046.92 239.9ZM1046.92 179.92L1046.92 120.95L1104.03 120.95L1104.03 179.92L1046.92 179.92ZM1046.92 119.95L1046.92 60.97L1104.03 60.97L1104.03 119.95L1046.92 119.95ZM1105.03 1139.55L1105.03 1082.05L1162.13 1082.05L1162.13 1139.55L1105.03 1139.55ZM1105.03 1079.56L1105.03 1022.08L1162.13 1022.08L1162.13 1079.56L1105.03 1079.56ZM1105.03 1019.59L1105.03 962.1L1162.13 962.1L1162.13 1019.59L1105.03 1019.59ZM1105.03 959.61L1105.03 900.64L1162.13 900.64L1162.13 959.61L1105.03 959.61ZM1105.03 899.64L1105.03 840.66L1162.13 840.66L1162.13 899.64L1105.03 899.64ZM1105.03 839.66L1105.03 780.69L1162.13 780.69L1162.13 839.66L1105.03 839.66ZM1105.03 779.69L1105.03 720.71L1162.13 720.71L1162.13 779.69L1105.03 779.69ZM1105.03 719.71L1105.03 660.73L1162.13 660.73L1162.13 719.71L1105.03 719.71ZM1105.03 659.73L1105.03 600.76L1162.13 600.76L1162.13 659.73L1105.03 659.73ZM1105.03 599.76L1105.03 540.78L1162.13 540.78L1162.13 599.76L1105.03 599.76ZM1105.03 539.78L1105.03 480.8L1162.13 480.8L1162.13 539.78L1105.03 539.78ZM1105.03 479.8L1105.03 420.83L1162.13 420.83L1162.13 479.8L1105.03 479.8ZM1105.03 419.83L1105.03 360.85L1162.13 360.85L1162.13 419.83L1105.03 419.83ZM1105.03 359.85L1105.03 300.88L1162.13 300.88L1162.13 359.85L1105.03 359.85ZM1105.03 299.88L1105.03 240.9L1162.13 240.9L1162.13 299.88L1105.03 299.88ZM1105.03 239.9L1105.03 180.92L1162.13 180.92L1162.13 239.9L1105.03 239.9ZM1105.03 179.92L1105.03 120.95L1162.13 120.95L1162.13 179.92L1105.03 179.92ZM1105.03 119.95L1105.03 60.97L1162.13 60.97L1162.13 119.95L1105.03 119.95ZM1163.13 1139.55L1163.13 1082.05L1220.24 1082.05L1220.24 1139.55L1163.13 1139.55ZM1163.13 1079.56L1163.13 1022.08L1220.24 1022.08L1220.24 1079.56L1163.13 1079.56ZM1163.13 1019.59L1163.13 962.1L1220.24 962.1L1220.24 1019.59L1163.13 1019.59ZM1163.13 959.61L1163.13 900.64L1220.24 900.64L1220.24 959.61L1163.13 959.61ZM1163.13 899.64L1163.13 840.66L1220.24 840.66L1220.24 899.64L1163.13 899.64ZM1163.13 839.66L1163.13 780.69L1220.24 780.69L1220.24 839.66L1163.13 839.66ZM1163.13 779.69L1163.13 720.71L1220.24 720.71L1220.24 779.69L1163.13 779.69ZM1163.13 719.71L1163.13 660.73L1220.24 660.73L1220.24 719.71L1163.13 719.71ZM1163.13 659.73L1163.13 600.76L1220.24 600.76L1220.24 659.73L1163.13 659.73ZM1163.13 599.76L1163.13 540.78L1220.24 540.78L1220.24 599.76L1163.13 599.76ZM1163.13 539.78L1163.13 480.8L1220.24 480.8L1220.24 539.78L1163.13 539.78ZM1163.13 479.8L1163.13 420.83L1220.24 420.83L1220.24 479.8L1163.13 479.8ZM1163.13 419.83L1163.13 360.85L1220.24 360.85L1220.24 419.83L1163.13 419.83ZM1163.13 359.85L1163.13 300.88L1220.24 300.88L1220.24 359.85L1163.13 359.85ZM1163.13 299.88L1163.13 240.9L1220.24 240.9L1220.24 299.88L1163.13 299.88ZM1163.13 239.9L1163.13 180.92L1220.24 180.92L1220.24 239.9L1163.13 239.9ZM1163.13 179.92L1163.13 120.95L1220.24 120.95L1220.24 179.92L1163.13 179.92ZM1163.13 119.95L1163.13 60.97L1220.24 60.97L1220.24 119.95L1163.13 119.95ZM1221.24 1139.55L1221.24 1082.05L1278.34 1082.05L1278.34 1139.55L1221.24 1139.55ZM1221.24 1079.56L1221.24 1022.08L1278.34 1022.08L1278.34 1079.56L1221.24 1079.56ZM1221.24 1019.59L1221.24 962.1L1278.34 962.1L1278.34 1019.59L1221.24 1019.59ZM1221.24 959.61L1221.24 900.64L1278.34 900.64L1278.34 959.61L1221.24 959.61ZM1221.24 899.64L1221.24 840.66L1278.34 840.66L1278.34 899.64L1221.24 899.64ZM1221.24 839.66L1221.24 780.69L1278.34 780.69L1278.34 839.66L1221.24 839.66ZM1221.24 779.69L1221.24 720.71L1278.34 720.71L1278.34 779.69L1221.24 779.69ZM1221.24 719.71L1221.24 660.73L1278.34 660.73L1278.34 719.71L1221.24 719.71ZM1221.24 659.73L1221.24 600.76L1278.34 600.76L1278.34 659.73L1221.24 659.73ZM1221.24 599.76L1221.24 540.78L1278.34 540.78L1278.34 599.76L1221.24 599.76ZM1221.24 539.78L1221.24 480.8L1278.34 480.8L1278.34 539.78L1221.24 539.78ZM1221.24 479.8L1221.24 420.83L1278.34 420.83L1278.34 479.8L1221.24 479.8ZM1221.24 419.83L1221.24 360.85L1278.34 360.85L1278.34 419.83L1221.24 419.83ZM1221.24 359.85L1221.24 300.88L1278.34 300.88L1278.34 359.85L1221.24 359.85ZM1221.24 299.88L1221.24 240.9L1278.34 240.9L1278.34 299.88L1221.24 299.88ZM1221.24 239.9L1221.24 180.92L1278.34 180.92L1278.34 239.9L1221.24 239.9ZM1221.24 179.92L1221.24 120.95L1278.34 120.95L1278.34 179.92L1221.24 179.92ZM1221.24 119.95L1221.24 60.97L1278.34 60.97L1278.34 119.95L1221.24 119.95ZM1279.34 1139.55L1279.34 1082.05L1336.45 1082.05L1336.45 1139.55L1279.34 1139.55ZM1279.34 1079.56L1279.34 1022.08L1336.45 1022.08L1336.45 1079.56L1279.34 1079.56ZM1279.34 1019.59L1279.34 962.1L1336.45 962.1L1336.45 1019.59L1279.34 1019.59ZM1279.34 959.61L1279.34 900.64L1336.45 900.64L1336.45 959.61L1279.34 959.61ZM1279.34 899.64L1279.34 840.66L1336.45 840.66L1336.45 899.64L1279.34 899.64ZM1279.34 839.66L1279.34 780.69L1336.45 780.69L1336.45 839.66L1279.34 839.66ZM1279.34 779.69L1279.34 720.71L1336.45 720.71L1336.45 779.69L1279.34 779.69ZM1279.34 719.71L1279.34 660.73L1336.45 660.73L1336.45 719.71L1279.34 719.71ZM1279.34 659.73L1279.34 600.76L1336.45 600.76L1336.45 659.73L1279.34 659.73ZM1279.34 599.76L1279.34 540.78L1336.45 540.78L1336.45 599.76L1279.34 599.76ZM1279.34 539.78L1279.34 480.8L1336.45 480.8L1336.45 539.78L1279.34 539.78ZM1279.34 479.8L1279.34 420.83L1336.45 420.83L1336.45 479.8L1279.34 479.8ZM1279.34 419.83L1279.34 360.85L1336.45 360.85L1336.45 419.83L1279.34 419.83ZM1279.34 359.85L1279.34 300.88L1336.45 300.88L1336.45 359.85L1279.34 359.85ZM1279.34 299.88L1279.34 240.9L1336.45 240.9L1336.45 299.88L1279.34 299.88ZM1279.34 239.9L1279.34 180.92L1336.45 180.92L1336.45 239.9L1279.34 239.9ZM1279.34 179.92L1279.34 120.95L1336.45 120.95L1336.45 179.92L1279.34 179.92ZM1279.34 119.95L1279.34 60.97L1336.45 60.97L1336.45 119.95L1279.34 119.95ZM1337.45 1139.55L1337.45 1082.05L1394.56 1082.05L1394.56 1139.55L1337.45 1139.55ZM1337.45 1079.56L1337.45 1022.08L1394.56 1022.08L1394.56 1079.56L1337.45 1079.56ZM1337.45 1019.59L1337.45 962.1L1394.56 962.1L1394.56 1019.59L1337.45 1019.59ZM1337.45 959.61L1337.45 900.64L1394.56 900.64L1394.56 959.61L1337.45 959.61ZM1337.45 899.64L1337.45 840.66L1394.56 840.66L1394.56 899.64L1337.45 899.64ZM1337.45 839.66L1337.45 780.69L1394.56 780.69L1394.56 839.66L1337.45 839.66ZM1337.45 779.69L1337.45 720.71L1394.56 720.71L1394.56 779.69L1337.45 779.69ZM1337.45 719.71L1337.45 660.73L1394.56 660.73L1394.56 719.71L1337.45 719.71ZM1337.45 659.73L1337.45 600.76L1394.56 600.76L1394.56 659.73L1337.45 659.73ZM1337.45 599.76L1337.45 540.78L1394.56 540.78L1394.56 599.76L1337.45 599.76ZM1337.45 539.78L1337.45 480.8L1394.56 480.8L1394.56 539.78L1337.45 539.78ZM1337.45 479.8L1337.45 420.83L1394.56 420.83L1394.56 479.8L1337.45 479.8ZM1337.45 419.83L1337.45 360.85L1394.56 360.85L1394.56 419.83L1337.45 419.83ZM1337.45 359.85L1337.45 300.88L1394.56 300.88L1394.56 359.85L1337.45 359.85ZM1337.45 299.88L1337.45 240.9L1394.56 240.9L1394.56 299.88L1337.45 299.88ZM1337.45 239.9L1337.45 180.92L1394.56 180.92L1394.56 239.9L1337.45 239.9ZM1337.45 179.92L1337.45 120.95L1394.56 120.95L1394.56 179.92L1337.45 179.92ZM1337.45 119.95L1337.45 60.97L1394.56 60.97L1394.56 119.95L1337.45 119.95ZM1395.56 1139.55L1395.56 1082.05L1452.66 1082.05L1452.66 1139.55L1395.56 1139.55ZM1395.56 1079.56L1395.56 1022.08L1452.66 1022.08L1452.66 1079.56L1395.56 1079.56ZM1395.56 1019.59L1395.56 962.1L1452.66 962.1L1452.66 1019.59L1395.56 1019.59ZM1395.56 959.61L1395.56 900.64L1452.66 900.64L1452.66 959.61L1395.56 959.61ZM1395.56 899.64L1395.56 840.66L1452.66 840.66L1452.66 899.64L1395.56 899.64ZM1395.56 839.66L1395.56 780.69L1452.66 780.69L1452.66 839.66L1395.56 839.66ZM1395.56 779.69L1395.56 720.71L1452.66 720.71L1452.66 779.69L1395.56 779.69ZM1395.56 719.71L1395.56 660.73L1452.66 660.73L1452.66 719.71L1395.56 719.71ZM1395.56 659.73L1395.56 600.76L1452.66 600.76L1452.66 659.73L1395.56 659.73ZM1395.56 599.76L1395.56 540.78L1452.66 540.78L1452.66 599.76L1395.56 599.76ZM1395.56 539.78L1395.56 480.8L1452.66 480.8L1452.66 539.78L1395.56 539.78ZM1395.56 479.8L1395.56 420.83L1452.66 420.83L1452.66 479.8L1395.56 479.8ZM1395.56 419.83L1395.56 360.85L1452.66 360.85L1452.66 419.83L1395.56 419.83ZM1395.56 359.85L1395.56 300.88L1452.66 300.88L1452.66 359.85L1395.56 359.85ZM1395.56 299.88L1395.56 240.9L1452.66 240.9L1452.66 299.88L1395.56 299.88ZM1395.56 239.9L1395.56 180.92L1452.66 180.92L1452.66 239.9L1395.56 239.9ZM1395.56 179.92L1395.56 120.95L1452.66 120.95L1452.66 179.92L1395.56 179.92ZM1395.56 119.95L1395.56 60.97L1452.66 60.97L1452.66 119.95L1395.56 119.95ZM1453.66 1139.55L1453.66 1082.05L1510.77 1082.05L1510.77 1139.55L1453.66 1139.55ZM1453.66 1079.56L1453.66 1022.08L1510.77 1022.08L1510.77 1079.56L1453.66 1079.56ZM1453.66 1019.59L1453.66 962.1L1510.77 962.1L1510.77 1019.59L1453.66 1019.59ZM1453.66 959.61L1453.66 900.64L1510.77 900.64L1510.77 959.61L1453.66 959.61ZM1453.66 899.64L1453.66 840.66L1510.77 840.66L1510.77 899.64L1453.66 899.64ZM1453.66 839.66L1453.66 780.69L1510.77 780.69L1510.77 839.66L1453.66 839.66ZM1453.66 779.69L1453.66 720.71L1510.77 720.71L1510.77 779.69L1453.66 779.69ZM1453.66 719.71L1453.66 660.73L1510.77 660.73L1510.77 719.71L1453.66 719.71ZM1453.66 659.73L1453.66 600.76L1510.77 600.76L1510.77 659.73L1453.66 659.73ZM1453.66 599.76L1453.66 540.78L1510.77 540.78L1510.77 599.76L1453.66 599.76ZM1453.66 539.78L1453.66 480.8L1510.77 480.8L1510.77 539.78L1453.66 539.78ZM1453.66 479.8L1453.66 420.83L1510.77 420.83L1510.77 479.8L1453.66 479.8ZM1453.66 419.83L1453.66 360.85L1510.77 360.85L1510.77 419.83L1453.66 419.83ZM1453.66 359.85L1453.66 300.88L1510.77 300.88L1510.77 359.85L1453.66 359.85ZM1453.66 299.88L1453.66 240.9L1510.77 240.9L1510.77 299.88L1453.66 299.88ZM1453.66 239.9L1453.66 180.92L1510.77 180.92L1510.77 239.9L1453.66 239.9ZM1453.66 179.92L1453.66 120.95L1510.77 120.95L1510.77 179.92L1453.66 179.92ZM1453.66 119.95L1453.66 60.97L1510.77 60.97L1510.77 119.95L1453.66 119.95ZM1511.77 1139.55L1511.77 1082.05L1568.87 1082.05L1568.87 1139.55L1511.77 1139.55ZM1511.77 1079.56L1511.77 1022.08L1568.87 1022.08L1568.87 1079.56L1511.77 1079.56ZM1511.77 1019.59L1511.77 962.1L1568.87 962.1L1568.87 1019.59L1511.77 1019.59ZM1511.77 959.61L1511.77 900.64L1568.87 900.64L1568.87 959.61L1511.77 959.61ZM1511.77 899.64L1511.77 840.66L1568.87 840.66L1568.87 899.64L1511.77 899.64ZM1511.77 839.66L1511.77 780.69L1568.87 780.69L1568.87 839.66L1511.77 839.66ZM1511.77 779.69L1511.77 720.71L1568.87 720.71L1568.87 779.69L1511.77 779.69ZM1511.77 719.71L1511.77 660.73L1568.87 660.73L1568.87 719.71L1511.77 719.71ZM1511.77 659.73L1511.77 600.76L1568.87 600.76L1568.87 659.73L1511.77 659.73ZM1511.77 599.76L1511.77 540.78L1568.87 540.78L1568.87 599.76L1511.77 599.76ZM1511.77 539.78L1511.77 480.8L1568.87 480.8L1568.87 539.78L1511.77 539.78ZM1511.77 479.8L1511.77 420.83L1568.87 420.83L1568.87 479.8L1511.77 479.8ZM1511.77 419.83L1511.77 360.85L1568.87 360.85L1568.87 419.83L1511.77 419.83ZM1511.77 359.85L1511.77 300.88L1568.87 300.88L1568.87 359.85L1511.77 359.85ZM1511.77 299.88L1511.77 240.9L1568.87 240.9L1568.87 299.88L1511.77 299.88ZM1511.77 239.9L1511.77 180.92L1568.87 180.92L1568.87 239.9L1511.77 239.9ZM1511.77 179.92L1511.77 120.95L1568.87 120.95L1568.87 179.92L1511.77 179.92ZM1511.77 119.95L1511.77 60.97L1568.87 60.97L1568.87 119.95L1511.77 119.95ZM1569.87 1139.55L1569.87 1082.05L1626.98 1082.05L1626.98 1139.55L1569.87 1139.55ZM1569.87 1079.56L1569.87 1022.08L1626.98 1022.08L1626.98 1079.56L1569.87 1079.56ZM1569.87 1019.59L1569.87 962.1L1626.98 962.1L1626.98 1019.59L1569.87 1019.59ZM1569.87 959.61L1569.87 900.64L1626.98 900.64L1626.98 959.61L1569.87 959.61ZM1569.87 899.64L1569.87 840.66L1626.98 840.66L1626.98 899.64L1569.87 899.64ZM1569.87 839.66L1569.87 780.69L1626.98 780.69L1626.98 839.66L1569.87 839.66ZM1569.87 779.69L1569.87 720.71L1626.98 720.71L1626.98 779.69L1569.87 779.69ZM1569.87 719.71L1569.87 660.73L1626.98 660.73L1626.98 719.71L1569.87 719.71ZM1569.87 659.73L1569.87 600.76L1626.98 600.76L1626.98 659.73L1569.87 659.73ZM1569.87 599.76L1569.87 540.78L1626.98 540.78L1626.98 599.76L1569.87 599.76ZM1569.87 539.78L1569.87 480.8L1626.98 480.8L1626.98 539.78L1569.87 539.78ZM1569.87 479.8L1569.87 420.83L1626.98 420.83L1626.98 479.8L1569.87 479.8ZM1569.87 419.83L1569.87 360.85L1626.98 360.85L1626.98 419.83L1569.87 419.83ZM1569.87 359.85L1569.87 300.88L1626.98 300.88L1626.98 359.85L1569.87 359.85ZM1569.87 299.88L1569.87 240.9L1626.98 240.9L1626.98 299.88L1569.87 299.88ZM1569.87 239.9L1569.87 180.92L1626.98 180.92L1626.98 239.9L1569.87 239.9ZM1569.87 179.92L1569.87 120.95L1626.98 120.95L1626.98 179.92L1569.87 179.92ZM1569.87 119.95L1569.87 60.97L1626.98 60.97L1626.98 119.95L1569.87 119.95ZM1627.98 1139.55L1627.98 1082.05L1685.09 1082.05L1685.09 1139.55L1627.98 1139.55ZM1627.98 1079.56L1627.98 1022.08L1685.09 1022.08L1685.09 1079.56L1627.98 1079.56ZM1627.98 1019.59L1627.98 962.1L1685.09 962.1L1685.09 1019.59L1627.98 1019.59ZM1627.98 959.61L1627.98 900.64L1685.09 900.64L1685.09 959.61L1627.98 959.61ZM1627.98 899.64L1627.98 840.66L1685.09 840.66L1685.09 899.64L1627.98 899.64ZM1627.98 839.66L1627.98 780.69L1685.09 780.69L1685.09 839.66L1627.98 839.66ZM1627.98 779.69L1627.98 720.71L1685.09 720.71L1685.09 779.69L1627.98 779.69ZM1627.98 719.71L1627.98 660.73L1685.09 660.73L1685.09 719.71L1627.98 719.71ZM1627.98 659.73L1627.98 600.76L1685.09 600.76L1685.09 659.73L1627.98 659.73ZM1627.98 599.76L1627.98 540.78L1685.09 540.78L1685.09 599.76L1627.98 599.76ZM1627.98 539.78L1627.98 480.8L1685.09 480.8L1685.09 539.78L1627.98 539.78ZM1627.98 479.8L1627.98 420.83L1685.09 420.83L1685.09 479.8L1627.98 479.8ZM1627.98 419.83L1627.98 360.85L1685.09 360.85L1685.09 419.83L1627.98 419.83ZM1627.98 359.85L1627.98 300.88L1685.09 300.88L1685.09 359.85L1627.98 359.85ZM1627.98 299.88L1627.98 240.9L1685.09 240.9L1685.09 299.88L1627.98 299.88ZM1627.98 239.9L1627.98 180.92L1685.09 180.92L1685.09 239.9L1627.98 239.9ZM1627.98 179.92L1627.98 120.95L1685.09 120.95L1685.09 179.92L1627.98 179.92ZM1627.98 119.95L1627.98 60.97L1685.09 60.97L1685.09 119.95L1627.98 119.95ZM1686.09 1139.55L1686.09 1082.05L1743.2 1082.05L1743.2 1139.55L1686.09 1139.55ZM1686.09 1079.56L1686.09 1022.08L1743.2 1022.08L1743.2 1079.56L1686.09 1079.56ZM1686.09 1019.59L1686.09 962.1L1743.2 962.1L1743.2 1019.59L1686.09 1019.59ZM1686.09 959.61L1686.09 900.64L1743.2 900.64L1743.2 959.61L1686.09 959.61ZM1686.09 899.64L1686.09 840.66L1743.2 840.66L1743.2 899.64L1686.09 899.64ZM1686.09 839.66L1686.09 780.69L1743.2 780.69L1743.2 839.66L1686.09 839.66ZM1686.09 779.69L1686.09 720.71L1743.2 720.71L1743.2 779.69L1686.09 779.69ZM1686.09 719.71L1686.09 660.73L1743.2 660.73L1743.2 719.71L1686.09 719.71ZM1686.09 659.73L1686.09 600.76L1743.2 600.76L1743.2 659.73L1686.09 659.73ZM1686.09 599.76L1686.09 540.78L1743.2 540.78L1743.2 599.76L1686.09 599.76ZM1686.09 539.78L1686.09 480.8L1743.2 480.8L1743.2 539.78L1686.09 539.78ZM1686.09 479.8L1686.09 420.83L1743.2 420.83L1743.2 479.8L1686.09 479.8ZM1686.09 419.83L1686.09 360.85L1743.2 360.85L1743.2 419.83L1686.09 419.83ZM1686.09 359.85L1686.09 300.88L1743.2 300.88L1743.2 359.85L1686.09 359.85ZM1686.09 299.88L1686.09 240.9L1743.2 240.9L1743.2 299.88L1686.09 299.88ZM1686.09 239.9L1686.09 180.92L1743.2 180.92L1743.2 239.9L1686.09 239.9ZM1686.09 179.92L1686.09 120.95L1743.2 120.95L1743.2 179.92L1686.09 179.92ZM1686.09 119.95L1686.09 60.97L1743.2 60.97L1743.2 119.95L1686.09 119.95ZM1744.2 1139.55L1744.2 1082.05L1801.3 1082.05L1801.3 1139.55L1744.2 1139.55ZM1744.2 1079.56L1744.2 1022.08L1801.3 1022.08L1801.3 1079.56L1744.2 1079.56ZM1744.2 1019.59L1744.2 962.1L1801.3 962.1L1801.3 1019.59L1744.2 1019.59ZM1744.2 959.61L1744.2 900.64L1801.3 900.64L1801.3 959.61L1744.2 959.61ZM1744.2 899.64L1744.2 840.66L1801.3 840.66L1801.3 899.64L1744.2 899.64ZM1744.2 839.66L1744.2 780.69L1801.3 780.69L1801.3 839.66L1744.2 839.66ZM1744.2 779.69L1744.2 720.71L1801.3 720.71L1801.3 779.69L1744.2 779.69ZM1744.2 719.71L1744.2 660.73L1801.3 660.73L1801.3 719.71L1744.2 719.71ZM1744.2 659.73L1744.2 600.76L1801.3 600.76L1801.3 659.73L1744.2 659.73ZM1744.2 599.76L1744.2 540.78L1801.3 540.78L1801.3 599.76L1744.2 599.76ZM1744.2 539.78L1744.2 480.8L1801.3 480.8L1801.3 539.78L1744.2 539.78ZM1744.2 479.8L1744.2 420.83L1801.3 420.83L1801.3 479.8L1744.2 479.8ZM1744.2 419.83L1744.2 360.85L1801.3 360.85L1801.3 419.83L1744.2 419.83ZM1744.2 359.85L1744.2 300.88L1801.3 300.88L1801.3 359.85L1744.2 359.85ZM1744.2 299.88L1744.2 240.9L1801.3 240.9L1801.3 299.88L1744.2 299.88ZM1744.2 239.9L1744.2 180.92L1801.3 180.92L1801.3 239.9L1744.2 239.9ZM1744.2 179.92L1744.2 120.95L1801.3 120.95L1801.3 179.92L1744.2 179.92ZM1744.2 119.95L1744.2 60.97L1801.3 60.97L1801.3 119.95L1744.2 119.95ZM1802.3 1139.55L1802.3 1082.05L1859.41 1082.05L1859.41 1139.55L1802.3 1139.55ZM1802.3 1079.56L1802.3 1022.08L1859.41 1022.08L1859.41 1079.56L1802.3 1079.56ZM1802.3 1019.59L1802.3 962.1L1859.41 962.1L1859.41 1019.59L1802.3 1019.59ZM1802.3 959.61L1802.3 900.64L1859.41 900.64L1859.41 959.61L1802.3 959.61ZM1802.3 899.64L1802.3 840.66L1859.41 840.66L1859.41 899.64L1802.3 899.64ZM1802.3 839.66L1802.3 780.69L1859.41 780.69L1859.41 839.66L1802.3 839.66ZM1802.3 779.69L1802.3 720.71L1859.41 720.71L1859.41 779.69L1802.3 779.69ZM1802.3 719.71L1802.3 660.73L1859.41 660.73L1859.41 719.71L1802.3 719.71ZM1802.3 659.73L1802.3 600.76L1859.41 600.76L1859.41 659.73L1802.3 659.73ZM1802.3 599.76L1802.3 540.78L1859.41 540.78L1859.41 599.76L1802.3 599.76ZM1802.3 539.78L1802.3 480.8L1859.41 480.8L1859.41 539.78L1802.3 539.78ZM1802.3 479.8L1802.3 420.83L1859.41 420.83L1859.41 479.8L1802.3 479.8ZM1802.3 419.83L1802.3 360.85L1859.41 360.85L1859.41 419.83L1802.3 419.83ZM1802.3 359.85L1802.3 300.88L1859.41 300.88L1859.41 359.85L1802.3 359.85ZM1802.3 299.88L1802.3 240.9L1859.41 240.9L1859.41 299.88L1802.3 299.88ZM1802.3 239.9L1802.3 180.92L1859.41 180.92L1859.41 239.9L1802.3 239.9ZM1802.3 179.92L1802.3 120.95L1859.41 120.95L1859.41 179.92L1802.3 179.92ZM1802.3 119.95L1802.3 60.97L1859.41 60.97L1859.41 119.95L1802.3 119.95ZM0.99 1199.52L0 1199.52L0 2.48L0.99 2.48L0.99 1199.52Z" fill="url(#paint_linear_40_454_1)" fill-opacity="1.000000" fill-rule="evenodd"/>
</svg>
