<svg width="24.000000" height="24.000000" viewBox="0 0 24 24" fill="none" xmlns="http://www.w3.org/2000/svg" xmlns:xlink="http://www.w3.org/1999/xlink">
	<desc>
			Created with Pixso.
	</desc>
	<defs>
		<clipPath id="clip7_6815">
			<rect id="Icon/bot-circle" rx="-0.500000" width="23.000000" height="23.000000" transform="translate(0.500000 0.500000)" fill="white" fill-opacity="0"/>
		</clipPath>
	</defs>
	<rect id="Icon" rx="-0.500000" width="23.000000" height="23.000000" transform="translate(0.500000 0.500000)" fill="#FFFFFF" fill-opacity="0"/>
	<rect id="Icon/bot-circle" rx="-0.500000" width="23.000000" height="23.000000" transform="translate(0.500000 0.500000)" fill="#FFFFFF" fill-opacity="0"/>
	<g clip-path="url(#clip7_6815)">
		<path id="Subtract" d="M12 0C5.37256 0 0 5.37256 0 12C0 18.6274 5.37256 24 12 24C18.6274 24 24 18.6274 24 12C24 5.37256 18.6274 0 12 0ZM18.2983 9.16162L18.2983 11.2522C18.5034 11.2712 18.8062 11.3535 18.9478 11.6965C18.9888 11.7976 19.0063 11.907 18.998 12.0161L18.998 13.3782C18.998 13.5645 18.9243 13.7432 18.793 13.875C18.6616 14.0068 18.4839 14.0808 18.2983 14.0808L18.2983 17.5945C18.2983 17.9673 18.1509 18.3247 17.8882 18.5884C17.6255 18.8518 17.2695 19 16.8984 19L7.09961 19C6.72852 19 6.37256 18.8518 6.10986 18.5884C5.84717 18.3247 5.69971 17.9673 5.69971 17.5945L5.69971 14.0808C5.51416 14.0808 5.33643 14.0068 5.20508 13.875C5.07373 13.7432 5 13.5645 5 13.3782L5 11.9727C5 11.7949 5.06689 11.624 5.1875 11.4939C5.30811 11.364 5.47314 11.2847 5.64941 11.272L5.69971 11.2686L5.69971 9.16162C5.69971 8.78882 5.84717 8.4314 6.10986 8.16772C6.37256 7.9043 6.72852 7.7561 7.09961 7.7561L11.2993 7.7561L11.2993 6.83423C11.0854 6.6416 10.9492 6.36475 10.9492 6.0542C10.9492 5.77466 11.0596 5.50635 11.2568 5.30884C11.4536 5.11108 11.7207 5 11.999 5C12.2773 5 12.5444 5.11108 12.7412 5.30884C12.9385 5.50635 13.0488 5.77466 13.0488 6.0542C13.0488 6.36475 12.9126 6.6416 12.6987 6.83423L12.6987 7.7561L16.8984 7.7561C17.2695 7.7561 17.6255 7.9043 17.8882 8.16772C18.1509 8.4314 18.2983 8.78882 18.2983 9.16162ZM9.54932 10.5671C8.96973 10.5671 8.49951 11.1968 8.49951 11.9727C8.49951 12.7485 8.96973 13.3782 9.54932 13.3782C10.1289 13.3782 10.5991 12.7485 10.5991 11.9727C10.5991 11.1968 10.1289 10.5671 9.54932 10.5671ZM13.3989 11.9727C13.3989 12.7485 13.8691 13.3782 14.4487 13.3782C15.0283 13.3782 15.4985 12.7485 15.4985 11.9727C15.4985 11.1968 15.0283 10.5671 14.4487 10.5671C13.8691 10.5671 13.3989 11.1968 13.3989 11.9727ZM9.19922 16.189C9.19922 16.189 14.0967 16.187 14.7974 16.189L14.7998 14.7834C14.0996 14.7822 9.19922 14.7834 9.19922 14.7834L9.19922 16.189Z" clip-rule="evenodd" fill="#FFFFFF" fill-opacity="1.000000" fill-rule="evenodd"/>
	</g>
</svg>
