<svg width="18.000000" height="18.000000" viewBox="0 0 18 18" fill="none" xmlns="http://www.w3.org/2000/svg" xmlns:xlink="http://www.w3.org/1999/xlink">
	<desc>
			Created with Pixso.
	</desc>
	<defs>
		<clipPath id="clip7_7384">
			<rect id="Icon/send" rx="-0.500000" width="17.000000" height="17.000000" transform="translate(0.500000 0.500000)" fill="white" fill-opacity="0"/>
		</clipPath>
	</defs>
	<rect id="Icon/send" rx="-0.500000" width="17.000000" height="17.000000" transform="translate(0.500000 0.500000)" fill="#FFFFFF" fill-opacity="0"/>
	<g clip-path="url(#clip7_7384)">
		<path id="Vector" d="M16.91 3.1C17.3 2.15 16.25 1.22 15.17 1.57L1.89 5.77C0.81 6.11 0.67 7.41 1.68 7.92L5.91 10.07L9.69 6.76C9.87 6.61 10.1 6.53 10.33 6.54C10.57 6.54 10.8 6.62 10.97 6.77C11.14 6.92 11.23 7.12 11.23 7.32C11.24 7.53 11.14 7.73 10.98 7.88L7.2 11.19L9.65 14.9C10.23 15.78 11.72 15.66 12.11 14.71L16.91 3.1Z" fill="#FFFFFF" fill-opacity="1.000000" fill-rule="nonzero"/>
	</g>
</svg>
