<svg width="40.000000" height="40.000000" viewBox="0 0 40 40" fill="none" xmlns="http://www.w3.org/2000/svg" xmlns:xlink="http://www.w3.org/1999/xlink">
	<desc>
			Created with Pixso.
	</desc>
	<defs>
		<clipPath id="clip7_7403">
			<rect id="Img/default-avatar" rx="-0.500000" width="39.000000" height="39.000000" transform="translate(0.500000 0.500000)" fill="white" fill-opacity="0"/>
		</clipPath>
	</defs>
	<g clip-path="url(#clip7_7403)">
		<path id="Vector" d="M40 20C40 31.04 31.04 40 20 40C8.95 40 0 31.04 0 20C0 8.95 8.95 0 20 0C31.04 0 40 8.95 40 20Z" fill="#313E62" fill-opacity="1.000000" fill-rule="evenodd"/>
		<path id="Vector" d="M20 21.4C21.67 21.4 23.28 20.73 24.47 19.55C25.66 18.36 26.32 16.75 26.32 15.07C26.32 13.39 25.66 11.79 24.47 10.6C23.28 9.41 21.67 8.75 20 8.75C18.32 8.75 16.71 9.41 15.52 10.6C14.33 11.79 13.67 13.39 13.67 15.07C13.67 16.75 14.33 18.36 15.52 19.55C16.71 20.73 18.32 21.4 20 21.4ZM15.83 22.81C11.92 22.81 8.75 25.98 8.75 29.9C8.75 30.64 9.35 31.25 10.09 31.25L29.9 31.25C30.64 31.25 31.25 30.64 31.25 29.9C31.25 25.98 28.07 22.81 24.16 22.81L15.83 22.81Z" fill="#FFFFFF" fill-opacity="1.000000" fill-rule="nonzero"/>
	</g>
</svg>
