<svg width="24.000000" height="24.000000" viewBox="0 0 24 24" fill="none" xmlns="http://www.w3.org/2000/svg" xmlns:xlink="http://www.w3.org/1999/xlink">
	<desc>
			Created with Pixso.
	</desc>
	<defs>
		<clipPath id="clip7_6852">
			<rect id="Icon/habr-2" rx="-0.500000" width="23.000000" height="23.000000" transform="translate(0.500000 0.500000)" fill="white" fill-opacity="0"/>
		</clipPath>
	</defs>
	<rect id="Icon/habr-2" rx="-0.500000" width="23.000000" height="23.000000" transform="translate(0.500000 0.500000)" fill="#FFFFFF" fill-opacity="0"/>
	<g clip-path="url(#clip7_6852)">
		<path id="Subtract" d="" fill="#FFFFFF" fill-opacity="1.000000" fill-rule="nonzero"/>
		<path id="Subtract" d="M12 0C5.37256 0 0 5.37256 0 12C0 18.6274 5.37256 24 12 24C18.6274 24 24 18.6274 24 12C24 5.37256 18.6274 0 12 0ZM5.25586 10.6641C5.28906 10.7427 5.30469 10.8325 5.29932 10.9316L5.28662 10.9436L5.16064 10.9324C4.95996 10.8694 4.77246 10.6462 4.75537 10.3984C5.01904 10.4209 5.13281 10.5269 5.25586 10.6641ZM7.2793 16.4153C6.06592 17.9519 4.33301 14.9641 5.82764 14.2383C5.68457 13.4385 4.64844 13.2537 4.54688 12.3442L4.5415 12.2876C4.51855 11.8765 4.7666 11.7153 5.01221 11.5562C5.17529 11.4504 5.33691 11.3455 5.41748 11.1685C5.68945 10.5662 5.63232 9.96704 5.70752 9.27148L5.62061 9.27783C5.1709 9.46411 4.6665 9.74756 4.59668 10.3013C4.90332 10.2935 5.15723 10.4294 5.25586 10.6641C5.27588 10.686 5.2959 10.7092 5.31689 10.7327C5.31836 10.8035 5.3208 10.875 5.32178 10.9465L5.28662 10.9436L5.17236 11.0486C5.0459 11.0278 4.67236 10.8887 4.37842 10.7539C4.43994 10.7585 4.50391 10.7615 4.56689 10.7632L4.44092 10.584C4.29736 10.5781 4.19043 10.5786 4.07959 10.5981C4.04102 10.5735 4.01318 10.5515 4 10.5337L4.01172 10.4238C4.16748 10.3149 4.28809 10.3005 4.4585 10.2561C4.56641 9.4104 5.2583 9.43506 5.79297 9.02002C5.93213 8.6333 6.09912 8.31519 6.18457 8.04102L6.36914 7.91919L6.31152 7.92358L5.23975 7.26465L5.27979 7.15283C5.85205 7.31787 6.28906 7.51343 6.76123 7.72876C7.06299 7.54321 7.21436 7.24414 7.57227 7.10034L7.47217 6.97144C6.97119 6.67114 6.46973 6.37158 5.97168 6.04419L6.11572 6.03369C6.96826 6.24536 7.36279 6.49683 7.93555 6.91138L8.14795 6.78735L6.75586 5.6626L6.81982 5.60376L6.82568 5.54907L7.91211 6.06982L8.43164 6.55005C8.4502 6.55371 8.6665 6.43799 8.93018 6.29736C9.28662 6.10718 9.72852 5.87109 9.88232 5.82251C10.4102 5.66089 10.9609 5.57642 11.5151 5.57178C12.042 5.56201 12.5542 5.60645 13.0439 5.65405C13.0703 5.604 13.1104 5.54053 13.1553 5.46777C13.3545 5.14893 13.6621 4.65649 13.4385 4.37549C13.1768 3.75708 11.9678 4.53052 11.5137 4.85352C11.4531 4.89746 11.4053 4.93286 11.376 4.95557C11.4141 4.89282 11.4604 4.83472 11.5137 4.78271C11.9741 4.31738 13.23 3.6416 13.5981 4.22803C13.8296 4.59888 13.5386 5.04565 13.3037 5.40552C13.2334 5.51367 13.168 5.61426 13.1235 5.70215C13.4624 5.76245 13.728 5.92383 13.9692 6.07764L14.2578 5.78564L14.3672 5.83252C14.3657 5.88159 14.3506 5.92969 14.3232 5.97144C14.3135 5.87427 14.312 5.89478 14.2808 5.83813L14.189 5.89917L14.0552 6.07202L14.0723 6.17969C14.2676 6.20996 14.2617 6.29077 14.3564 6.45874L14.4175 6.42749C14.4561 6.3147 14.5039 6.20679 14.5513 6.09937C14.6787 5.81152 14.8052 5.52588 14.7549 5.15259C14.6465 5.08374 14.5464 5.07031 14.3989 5.0144L14.6299 4.99805L14.8447 5.11841C14.9634 5.64771 14.7104 6.20215 14.4536 6.6145L14.5 6.71997C14.8945 6.46655 15.5938 5.66602 15.748 5.21777L15.5088 5.31689L15.7285 5.13843L15.8696 5.15527C15.7822 5.66382 15.2554 6.01172 14.9673 6.36084C15.6646 5.96851 16.292 5.42798 17.001 4.9939C17.0454 4.9668 17.1074 4.92407 17.1777 4.87598C17.3989 4.72412 17.7012 4.5166 17.7915 4.55762L17.8369 4.66309L17.7798 4.66724L14.5762 7.0686L14.5347 7.45166L14.9814 7.55664C15.4468 7.29663 15.9136 7.03735 16.3794 6.77808L16.3994 6.85815L15.1704 7.65161C15.1895 7.65015 15.2085 7.64868 15.2275 7.64722C15.3472 7.76562 15.5825 7.86475 15.8037 7.87891L16.8389 7.28955L16.772 7.37524L16.2124 7.7959C16.4541 7.65723 16.9487 7.61475 17.1919 7.45459L17.0903 7.59766C17.3032 7.60474 17.3364 7.67139 17.4448 7.76343L17.4351 7.84546L17.3721 7.9043C17.2974 7.8916 17.2222 7.87891 17.1504 7.83838L17.3174 7.8811C17.3374 7.87036 17.3579 7.85986 17.3809 7.82227C17.3574 7.77832 17.333 7.73511 17.3101 7.69116C16.8135 7.59766 16.4263 7.70679 15.9897 8.00146L16.0122 8.05444L16.395 8.21826C16.5854 8.04102 16.7764 7.86475 16.9634 7.71533L16.3921 8.24585L16.4404 8.32373C16.9116 8.49585 17.1079 8.94556 17.457 9.23047C17.7065 9.11963 17.9004 9.15576 18.0688 9.18701C18.1904 9.20972 18.2983 9.22998 18.4043 9.19067L18.6812 9.00854C18.8286 9.05835 18.9468 9.11914 19.0293 9.22827C18.8735 9.17017 18.8301 9.08447 18.6182 9.06665C18.5474 9.13159 18.4966 9.21167 18.4585 9.30225L18.3545 9.30542C18.3711 9.36499 18.3857 9.42456 18.4009 9.48389L18.4009 9.48364C18.3252 9.79883 18.3345 10.1865 18.2339 10.5083C17.9644 11.3652 17.3076 11.9333 16.4233 12.1855C16.4272 12.219 16.4287 12.2524 16.4277 12.2861C16.4268 12.3396 16.4224 12.3989 16.418 12.4583C16.4067 12.6072 16.3955 12.7559 16.4419 12.8096C17.0566 13.01 18.9414 12.6665 19.6182 12.5037L19.3066 12.4717C19.312 12.4255 19.3169 12.3804 19.3511 12.332L19.7446 12.386L19.8452 12.5149C19.3892 13.0305 17.1318 13.051 16.271 13.0667L15.9897 13.5483L16.0483 13.5442L17.0923 13.6609C18.271 13.811 19.7163 13.7241 21 13.4668C20.522 13.8538 19.022 14.1199 18.1875 14.1001C18.2314 14.217 18.2275 14.2815 18.1558 14.4011C17.6738 14.5198 17.125 14.3391 16.5996 14.166C16.4126 14.1042 16.2285 14.0437 16.0513 13.9978C16.0635 14.0151 16.0757 14.0344 16.0879 14.0547C16.0674 14.0327 16.0469 14.0117 16.0269 13.9915C15.9019 13.96 15.7803 13.9363 15.6641 13.9253C15.689 13.937 15.7134 13.949 15.7383 13.9607C15.6909 13.9546 15.6431 13.9592 15.5981 13.9741C15.5532 13.989 15.5122 14.0137 15.4795 14.0464L15.3296 14.1116C15.7954 14.6406 16.2622 15.1697 16.7295 15.6982L16.6626 15.7847L16.5762 15.791L15.1069 14.3176L15.0459 14.3489C14.877 14.749 14.5532 14.9976 14.2861 15.3C14.9116 15.0747 15.561 15.6343 15.2671 16.2634C15.4824 15.5049 14.4595 15.0508 14.0352 15.5076C14.0688 15.5571 14.0581 15.5508 14.1123 15.584C14.2319 15.6479 14.3887 15.5862 14.4463 15.6692L14.1323 15.6641C14.1367 15.6804 14.1416 15.6968 14.1455 15.7129C14.0933 15.6226 14.0415 15.553 14.001 15.5161C13.4722 15.7434 13.0229 16.072 12.3091 16.1528L12.3911 16.2336L12.8159 17.0361C12.9551 17.0479 13.0806 17.0708 13.2065 17.0938C13.417 17.1321 13.6299 17.1709 13.9146 17.1594C14.0503 17.0793 14.1494 17.0659 14.2388 16.9348C14.2642 16.9087 14.2856 16.8804 14.3042 16.8501C14.2158 17.248 13.8086 17.3997 12.7568 17.2834C13.0127 18.0498 12.731 19.4934 11.9629 19.8682C12.7144 19.0054 12.7559 18.3699 12.6475 17.2366L11.8228 16.9419L11.4937 17.0737C11.0361 17.1553 10.6128 16.8513 10.5195 16.5715L10.4585 16.6033L9.62402 17.7227L9.54053 18.4897C9.3457 19.2192 9.31152 20.6465 8.72656 20.9937L8.64062 21C9.16162 20.6692 9.36865 18.8113 9.45166 17.9805C8.69873 18.574 8.16406 19.6436 7.28369 20.063C8.25244 18.8572 9.37012 18.5471 9.57764 16.5566C8.81055 17.187 7.20508 19.4941 6.24316 19.647C6.19238 19.6128 6.14844 19.5698 6.11426 19.5203C6.17188 19.0217 6.49609 18.7617 6.69287 18.3918C6.71045 18.4089 6.72754 18.4258 6.74463 18.4429L6.80273 18.4387C6.70312 18.7419 6.50732 19.0237 6.38428 19.3928C7.19287 18.9387 8.73145 17.2388 9.33008 16.4661L8.85205 16.3901C8.79297 16.8599 8.40186 17.4775 8.08252 17.6956L8.03076 17.6445C8.19922 17.2708 8.50195 17.0603 8.62451 16.6516C8.57471 16.6902 8.49756 16.7651 8.40527 16.855C8.09473 17.157 7.61182 17.6262 7.42383 17.4429L7.47949 17.1948L7.54102 17.1631L7.65234 17.1821L7.61133 17.2939C8.03906 17.0178 8.31934 16.6133 8.71729 16.3186L8.69482 16.2661L8.32617 16.084C8.33154 16.0723 8.3374 16.0591 8.34375 16.0437L8.05762 16.0012L8.07471 15.842C8.09961 15.8376 8.11963 15.8386 8.13379 15.8391C8.15967 15.8401 8.16455 15.8403 8.14258 15.8052C8.06787 15.7131 8.04541 15.6987 7.86279 15.6987L7.58789 16.1621C7.62256 16.1702 7.65527 16.1785 7.68701 16.1868C7.82617 16.2222 7.94775 16.2529 8.15625 16.2466C8.13232 16.2688 8.10205 16.2891 8.06104 16.3108C7.85986 16.3782 7.70117 16.3435 7.54346 16.3091C7.4917 16.2976 7.43994 16.2864 7.38672 16.2788C7.39111 16.272 7.39502 16.2654 7.39941 16.2585L6.98242 16.0984C6.01221 16.9661 5.15967 15.6272 5.71729 15.2166L5.69385 15.1641L5.42627 14.967L5.42041 15.0217C5.00928 15.7668 5.97998 16.8484 6.67334 16.7932C6.90039 16.6724 7.11865 16.5803 7.2793 16.4153ZM7.2793 16.4153C7.31299 16.3728 7.3457 16.3269 7.37842 16.2776C7.38135 16.2778 7.38428 16.2783 7.38672 16.2788C7.35498 16.3296 7.31885 16.3745 7.2793 16.4153ZM8.15625 16.2466C8.16846 16.2461 8.18115 16.2456 8.19385 16.2449C8.26904 16.1697 8.28467 16.175 8.32617 16.084L8.26074 16.0515C8.22754 16.1453 8.20605 16.2002 8.15625 16.2466ZM14.3042 16.8501C14.4966 16.5332 14.3179 16.0107 14.1455 15.7129C14.2773 16.2 14.3638 16.5813 14.3042 16.8501ZM16.0879 14.0547C16.3521 14.2383 16.6006 14.5188 16.3823 14.9685C16.4238 14.6582 16.2798 14.2617 16.0879 14.0547ZM18.4009 9.48364L18.4956 9.30127L18.4585 9.30225C18.4346 9.35913 18.416 9.41992 18.4009 9.48364ZM4.07959 10.5981C4.0542 10.6025 4.02881 10.6079 4.00293 10.6145C4.00146 10.6194 4 10.6243 4 10.6294C4.0376 10.7068 4.1958 10.7393 4.37842 10.7539C4.25781 10.6982 4.15039 10.6436 4.07959 10.5981ZM11.9673 5.28003L11.9673 5.28003L11.9678 5.28003L11.9673 5.28003ZM12.1899 5.21069L11.9673 5.28003L11.8345 5.26294C11.8594 5.25684 11.8818 5.25562 11.8994 5.25488C11.937 5.25293 11.9517 5.2522 11.9214 5.20288C11.7603 5.21558 11.6729 5.1958 11.6001 5.13916C11.584 5.12598 11.5693 5.11182 11.5552 5.09644L11.5615 5.08716C11.5771 5.08618 11.5933 5.08521 11.6094 5.08521L11.7158 5.0979L11.6362 5.08374L11.6421 5.04761L12.1055 5.02563L12.1216 4.91797C11.9136 4.90381 11.6987 4.93042 11.5923 5.0376L11.6001 5.02563C11.6387 4.96484 11.6772 4.9043 11.7163 4.84375C11.9307 4.75732 12.063 4.7041 12.292 4.74731C12.3413 4.89526 12.2861 5.05762 12.1899 5.21069ZM11.5923 5.0376L11.5615 5.08716L11.5547 5.0874C11.5649 5.06909 11.5776 5.05273 11.5923 5.0376ZM12.8071 6.01099L12.874 5.92456L12.877 5.89697L12.3101 5.82837C12.4531 5.93506 12.626 5.99854 12.8071 6.01099ZM10.23 6.03931L10.2329 6.01099L9.66895 6.16553L9.66602 6.19385L10.0029 6.17041L10.23 6.03931ZM14.0366 6.5437L13.8804 6.60034L13.8794 6.60034C13.9253 6.54248 13.9502 6.52783 13.9551 6.5083C13.959 6.49268 13.9512 6.47412 13.9312 6.42896C13.5879 6.32129 13.2793 6.13428 12.9087 6.01099L12.6885 6.09595L12.7124 6.14209C13.2578 6.29224 13.5684 6.71802 13.8149 7.10742L13.9053 7.10181C14.0234 6.95386 14.1768 6.8291 14.1992 6.67676L14.0366 6.5437ZM12.4331 6.24268C12.2144 6.11475 11.9292 6.04541 11.6177 6.021L11.6177 6.02173C11.2173 5.99561 10.8149 6.02734 10.4243 6.11572L10.4214 6.13916L11.6177 6.30151C11.7661 6.32178 11.915 6.34253 12.0645 6.36255C11.9023 6.38647 11.7358 6.37573 11.5552 6.33887C11.9546 6.70093 12.7427 6.69727 13.2549 6.9248C13.1284 6.56641 12.7642 6.42749 12.52 6.19385C12.4907 6.21143 12.4619 6.22778 12.4331 6.24268ZM12.4331 6.24268C12.3101 6.30566 12.1885 6.34448 12.0645 6.36255C12.0972 6.36719 12.1299 6.37134 12.1626 6.37573L12.4644 6.29077L12.499 6.24414L12.4414 6.24756C12.4385 6.24585 12.4355 6.24414 12.4331 6.24268ZM9.30859 6.74121L9.47754 6.37646L9.47705 6.37573C9.17725 6.43872 8.96582 6.56494 8.72461 6.67114L8.72217 6.70093L9.30859 6.74121ZM9.9126 6.53809C9.89209 6.55249 9.87256 6.56763 9.85449 6.58398C9.93945 6.87939 10.1201 6.96875 10.3394 7.10742C10.6182 6.84888 11.0723 6.81909 11.3652 6.55786L11.3062 6.56274C11.1631 6.43066 10.7412 6.34424 10.3672 6.38745C10.1792 6.36841 9.97021 6.36401 9.85449 6.45654L9.9126 6.53809ZM9.9126 6.53809C10.0327 6.45483 10.1948 6.40723 10.3672 6.38745C10.4146 6.39209 10.4609 6.39771 10.5034 6.40308C10.5425 6.40771 10.5786 6.41235 10.6108 6.41553L9.92725 6.55933L9.9126 6.53809ZM9.77441 6.5603L9.66699 6.698L9.76123 6.69165L9.77441 6.5603ZM9.65137 6.87378C9.65723 6.82983 9.66113 6.78589 9.66602 6.74194L9.66553 6.74194L9.62109 6.74487L9.47705 6.84326L9.65137 6.87378ZM9.84814 7.65576C9.87402 7.18604 9.83105 7.0415 9.66602 6.92407L9.66602 6.9248C9.67383 7.24219 9.73975 7.52319 9.84814 7.65576ZM12.877 7.10742C12.7642 6.98364 12.5312 6.93042 12.3105 6.9248L12.3818 7.00488C12.4355 7.09131 12.6113 7.09692 12.7588 7.10156C12.8018 7.10303 12.8428 7.10425 12.877 7.10742ZM17.2217 6.96802L17.4604 6.92554L17.5991 6.99634C17.5435 7.22095 17.4131 7.32568 17.2817 7.47363L17.5371 7.02734L17.3687 6.95801L17.2217 6.96802ZM8.34375 7.10669L8.30176 7.10962L8.25098 7.18115L8.15479 7.28955L8.28027 7.28174L8.34375 7.10669ZM9.09717 7.12598C9.09766 7.12036 9.09912 7.1145 9.09912 7.10742L8.77295 7.10742C8.75586 7.16772 8.73779 7.22803 8.72217 7.28809L8.73145 7.28833C8.84473 7.29248 8.8584 7.29297 8.95215 7.2583L9.09717 7.12598ZM11.9321 7.26831L11.7842 7.10742L11.7563 7.10962C11.3564 7.12524 10.9653 7.22534 10.6108 7.40283C10.6265 7.42627 10.6421 7.44971 10.6577 7.4729L10.6855 7.47168C10.9019 7.3645 11.2104 7.32007 11.5229 7.29443C11.6616 7.2832 11.8003 7.27539 11.9321 7.26831ZM9.23438 7.29028L9.17188 7.32568L9.17188 7.32495L9.09912 7.4375L9.28857 7.4729L9.23438 7.29028ZM14.293 7.42627L14.3359 7.46655L14.355 7.29102L14.1992 7.43262L14.293 7.42627ZM8.62012 8.08154C8.65332 7.89575 8.6875 7.71094 8.72217 7.52539L8.35107 7.4729C8.3291 7.72949 8.35498 8.06665 8.45752 8.2041L8.51367 8.14526L8.62012 8.08154ZM10.7993 7.66431C10.8174 7.68237 10.8354 7.70044 10.8535 7.71875C10.8745 7.80469 10.895 7.89062 10.915 7.97656C11.1338 7.95117 11.354 7.9436 11.5737 7.95386C11.8286 7.9646 12.0635 7.99585 12.3105 8.02124L12.2188 7.4729C12.0498 7.47656 11.8135 7.47876 11.5737 7.4978C11.2832 7.51978 10.9868 7.56641 10.7993 7.66431ZM13.3892 7.56519L12.6885 7.4729C12.7725 7.62256 12.793 7.85205 12.8823 8.02124L13.4438 7.56079L13.3892 7.56519ZM8.11719 8.21265C8.08887 8.05151 8.06055 7.89038 8.08203 7.65503L7.86523 7.67065C7.7168 8.01587 7.62354 8.38062 7.58838 8.7522C7.77686 8.66089 7.96631 8.57031 8.15479 8.47803C8.14697 8.38232 8.13184 8.29761 8.11719 8.21265ZM7.58838 7.65576L7.55957 7.65796L7.35107 7.72314C6.92529 8.01758 6.91748 8.76367 7.29834 8.93579C7.45947 8.65796 7.49658 7.95898 7.58838 7.65576ZM8.9502 8.02197C9.13037 7.92627 9.44141 7.94971 9.66602 7.86621L9.59961 7.87036C9.40967 7.79883 9.21875 7.72656 9.02783 7.65576L8.91064 7.80225C8.92383 7.87549 8.93701 7.94873 8.9502 8.02197ZM10.4629 7.65576L10.2329 7.7251L10.4551 7.83838L10.6108 7.83276L10.4629 7.65576ZM12.6284 8.02124C12.6475 7.85205 12.6099 7.74561 12.5024 7.65576C12.5029 7.68042 12.502 7.70605 12.501 7.73218C12.4966 7.85156 12.4917 7.97656 12.6284 8.02124ZM13.6167 7.65576L13.4438 7.81787L13.5068 7.81226L13.6323 7.83838L13.6167 7.65576ZM15.3325 8.05029L14.7344 7.83838L14.582 7.93555L14.5771 7.99292L15.1758 8.2041C15.2261 8.17212 15.2769 8.14014 15.3271 8.10693C15.3296 8.08862 15.3315 8.06934 15.3325 8.05029ZM14.5742 7.87451L14.5771 7.84058L14.5161 7.84619C14.4619 7.85352 14.4507 7.83765 14.4419 7.83887C14.4336 7.84009 14.4272 7.85669 14.3877 7.92432L14.4395 8.02124L14.5742 7.87451ZM15.8994 7.98096L15.9468 7.97729C15.9824 7.9314 16.0195 7.88525 16.0566 7.83911C16.0029 7.88599 15.9512 7.93335 15.8994 7.98096ZM8.92627 8.2041L9.18311 8.19482L9.37891 8.17212L9.66602 8.02124C9.39404 8.05029 9.09131 8.05664 8.91064 8.12671C8.91602 8.15308 8.92041 8.17847 8.92627 8.2041ZM9.29004 8.57031C9.43164 8.42847 9.63867 8.24658 9.85449 8.19482C9.83301 8.0752 9.82568 8.08154 9.75537 8.02124C9.5957 8.11255 9.2627 8.40454 9.29004 8.57031ZM6.68262 9.01953C6.6123 8.78101 6.55811 8.5979 6.59912 8.20459L6.6001 8.2041L6.46143 8.31885C6.33154 8.5752 6.16357 8.77417 6.07764 9.0979C6.08496 9.1062 6.09229 9.1145 6.1001 9.1228C6.40723 9.10718 6.61914 9.2063 6.81982 9.30127C6.8584 9.1814 6.81104 9.13257 6.69189 9.05176C6.68896 9.04102 6.68555 9.03027 6.68262 9.01953ZM8.91211 8.2478L8.91064 8.26416L8.96875 8.38672L9.09912 8.2041C9.03711 8.21948 8.97461 8.23364 8.91211 8.2478ZM13.5879 8.25488L13.4438 8.23364L13.6323 8.2041L13.5879 8.25488ZM15.5674 8.35986L15.8994 8.57031C15.8652 8.45483 15.8301 8.33862 15.7969 8.22241C15.7231 8.20874 15.6899 8.20068 15.6592 8.20557C15.626 8.21094 15.5957 8.23096 15.5215 8.2749L15.5674 8.35986ZM16.021 8.57031L16.0879 8.50073L16.0723 8.45898L15.8994 8.38672C15.9268 8.48022 15.9409 8.53052 16.021 8.57031ZM16.751 8.93579L16.8438 8.89673L16.6064 8.60571C16.5249 8.56689 16.4688 8.51758 16.4214 8.47583C16.3252 8.39087 16.2632 8.33569 16.0879 8.45898C16.1401 8.52759 16.1929 8.59595 16.2456 8.66431C16.4141 8.75513 16.5825 8.84546 16.751 8.93579ZM14.0103 8.38745L14.1436 8.46533C14.1084 8.42627 14.1064 8.41699 14.1006 8.41333C14.0942 8.40918 14.083 8.41284 14.0103 8.38745ZM8.60303 8.56958L8.57324 8.5708C8.51074 8.74585 8.50391 8.84863 8.67725 8.93506L8.72168 8.80811L8.60303 8.56958ZM7.77686 9.11768L8.34375 8.78491L8.33398 8.59717L8.28223 8.57031C8.05762 8.64526 7.78906 8.9165 7.77686 9.11768ZM16.21 10.0322L16.4648 9.80347L16.4653 9.80273C16.3906 9.64185 16.2808 9.71973 16.1709 9.61084C16.1196 9.56006 16.1392 9.50952 16.1592 9.45557C16.1758 9.4126 16.1929 9.36768 16.1753 9.31885C16.0542 8.98169 15.4531 8.71191 15.1099 8.57031L14.9541 8.68628L15.6631 9.27417L16.0884 9.86353L16.1392 10.7632C16.1821 10.7285 16.2427 10.7043 16.2769 10.6611L16.0923 9.86865L16.21 10.0322ZM16.0923 9.86865L16.0879 9.84937L16.0884 9.86353L16.0923 9.86865ZM12.6943 8.7771L12.6875 8.80811C12.7642 8.86279 12.8315 8.91577 12.98 8.93579C13.1514 8.82373 13.0708 8.69922 12.6943 8.7771ZM8.44775 8.93506C8.24658 9.10498 8.05811 9.25659 7.77686 9.33936L8.29395 9.48315L8.5332 9.17871L8.44775 8.93506ZM13.2095 8.93579L13.0684 9.04688L13.0679 9.04688L13.0664 9.07886L13.2549 9.11841L13.2095 8.93579ZM13.7178 8.93652L13.6323 9.05615C13.6699 9.0769 13.7075 9.09766 13.7451 9.11841L14.0103 9.0249L13.9863 8.99243L13.749 8.93579L13.7178 8.93652ZM16.4648 9.08594C16.4595 9.06738 16.4526 9.0498 16.4468 9.03125L16.2764 8.93579L16.418 9.11841L16.4648 9.08594ZM16.8438 8.99243L17.0322 9.05835L16.9575 8.93579L16.8438 8.99243ZM16.9517 9.43994C16.8677 9.45508 16.8564 9.45728 16.8022 9.35303L17.0146 9.30542L16.938 9.18774C16.8691 9.17798 16.8164 9.16333 16.7686 9.1499C16.6768 9.12451 16.603 9.10376 16.4692 9.1311L16.4653 9.16235L16.7422 9.66675L17.0322 9.42725C16.9995 9.4314 16.9731 9.43604 16.9517 9.43994ZM6.64404 9.29126L5.97607 9.11841L5.97607 9.11914L5.94727 9.14966L5.88867 10.0322C6.04297 9.6355 6.33008 9.53931 6.64111 9.31958C6.6416 9.31006 6.64258 9.30078 6.64404 9.29126ZM14.0103 9.22754L14.1006 9.30127L14.1992 9.11841L14.0103 9.22754ZM8.61914 9.48315L8.72168 9.35864L8.70654 9.30054L8.53467 9.44922L8.5332 9.46899L8.61914 9.48315ZM17.7861 10.0322C18.2515 9.62915 18.4531 9.10083 17.4102 9.37842C17.5347 9.59668 17.6602 9.8147 17.7861 10.0322ZM14.9546 10.6301L15.5928 10.946C15.9282 10.2356 15.4868 9.47119 14.9946 9.30127C15.0303 9.65894 14.9995 10.051 14.9712 10.4131C14.9653 10.4868 14.9595 10.5593 14.9546 10.6301ZM16.2812 9.30396L16.2764 9.33594C16.3379 9.42236 16.3555 9.43433 16.4653 9.48389L16.3228 9.30127C16.3154 9.30176 16.3076 9.30225 16.3003 9.30273C16.2939 9.30322 16.2876 9.30347 16.2812 9.30396ZM14.7173 10.3977C14.8232 10.001 14.7578 9.69507 14.5029 9.48389C14.5 9.50024 14.4985 9.51733 14.4961 9.53418C14.4595 9.58667 14.4248 9.63916 14.3877 9.69141C14.4985 9.92676 14.6074 10.1626 14.7173 10.3977ZM16.5366 12.0432C17.896 11.3022 17.9702 11.208 18.3545 9.48389L18.2959 9.5144L17.8516 10.0598C17.9043 11.0635 17.4004 11.5068 16.5137 11.7478L16.4653 11.9404C16.4897 11.9744 16.5146 12.0085 16.5366 12.0432ZM17.2217 9.48389L16.8438 9.68091L16.9307 9.84937C17.0474 9.73047 17.146 9.64697 17.2217 9.48389ZM17.5732 10.3994C17.5815 10.3928 17.5903 10.386 17.5991 10.3787L17.2773 9.66675L17.2104 9.69727L16.8438 10.1116L16.8569 10.751L16.8364 10.761L16.4653 11.4949L16.5605 11.4885C16.6123 11.4656 16.6636 11.4436 16.7129 11.4224C17.231 11.199 17.6074 11.0371 17.5991 10.3977L17.5732 10.3994ZM17.3984 10.4832L17.5674 10.3999L17.5732 10.3994C17.5181 10.4417 17.4697 10.4668 17.3984 10.4832ZM17.3984 10.4832L17.3335 10.5154L17.2363 10.5054C17.3032 10.5 17.3555 10.4932 17.3984 10.4832ZM17.3335 10.5154L17.3921 10.5217L17.3892 10.5479L16.8574 10.7632L16.8569 10.751L17.3335 10.5154ZM8.15527 9.84863L8.3291 9.96777C8.25781 9.86792 8.28906 9.89771 8.15527 9.84863ZM6.61279 9.98413C6.4585 10.1846 6.10742 11.0542 6.34863 11.2717L6.5874 11.3123C6.6416 10.7781 6.79443 10.2554 7.02148 9.87134L6.93164 9.84937C6.79688 9.8877 6.69434 9.8855 6.61279 9.98413ZM7.52539 10.2356L7.20508 9.90332L7.58838 10.1484C7.55225 10.0591 7.5166 9.97046 7.47949 9.88208L7.18262 9.84937C7.1626 9.93945 7.11572 10.0613 7.06201 10.1995C6.92822 10.5439 6.75537 10.99 6.87109 11.2981L7.06006 11.3123C7.16113 10.8835 7.39941 10.6052 7.52539 10.2356ZM8.42529 9.92676L8.34375 9.84937C8.42529 9.90381 8.37402 9.85278 8.42529 9.92676ZM8.13086 10.0869C8.12061 10.0679 8.08301 10.0637 7.96631 10.0322C8.01953 10.1292 8.02686 10.1562 8.13086 10.2144C8.12646 10.1357 8.14062 10.1047 8.13086 10.0869ZM14.0796 10.033L14.0396 10.0825L14.0103 10.1794L14.1992 10.2148L14.0796 10.033ZM16.2769 10.1533L16.2871 10.2148L16.3555 10.2107C16.3921 10.1865 16.4292 10.1641 16.4663 10.1406L16.4438 10.033C16.3584 10.0591 16.3267 10.0952 16.2769 10.1533ZM7.21729 11.3115C7.35986 10.958 7.59814 10.71 7.77686 10.3452L7.70947 10.2144L7.65137 10.2461C7.61572 10.3303 7.55713 10.4304 7.49414 10.5376C7.34619 10.7913 7.17383 11.0859 7.21729 11.3115ZM8.22607 10.397L8.34473 10.2788L8.28662 10.2144L8.21631 10.2405C8.19971 10.2771 8.18311 10.3 8.17139 10.3159C8.14502 10.3516 8.14404 10.353 8.22607 10.397ZM16.4678 10.3347L16.4653 10.3687C16.4849 10.4985 16.4995 10.6938 16.542 10.8247C16.5166 10.865 16.4912 10.9055 16.4653 10.946L16.5127 10.9431L16.5488 10.8457C16.5659 10.8911 16.5864 10.9265 16.6123 10.946C16.6567 10.7136 16.668 10.4019 16.6382 10.2148L16.4678 10.3347ZM16.5488 10.8457L16.5796 10.7632C16.5674 10.7837 16.5547 10.8042 16.542 10.8247C16.5439 10.8318 16.5464 10.8389 16.5488 10.8457ZM6.13477 10.4006C6.11523 10.5212 6.09619 10.6423 6.07764 10.7632C6.11182 10.6414 6.14746 10.5195 6.18311 10.3977L6.13477 10.4006ZM14.3037 10.6499L14.0103 10.5806C14.0508 10.6853 14.2617 10.717 14.3877 10.7632C14.3809 10.6875 14.3833 10.6797 14.3037 10.6499ZM16.1011 10.97L16.0879 11.1606C16.1113 11.2568 16.124 11.2732 16.188 11.3123C16.2622 11.1387 16.2993 10.9792 16.2622 10.7632C16.2563 10.7639 16.25 10.7654 16.2437 10.7654L16.1128 10.8071L16.1011 10.97ZM8.15527 11.1279C8.27637 11.0776 8.27344 11.1011 8.34473 11.0139L8.23779 10.9453L8.15527 11.1279ZM14.9287 10.968L14.8706 10.946L14.8003 11.0259C14.7246 11.1443 14.7827 11.4163 14.8657 11.4751L14.9541 11.4949L14.9287 10.968ZM15.5098 11.1614C15.2925 11.0974 15.3003 11.0254 15.144 10.946C15.1562 11.0164 15.1533 11.0825 15.1499 11.1548C15.1455 11.2476 15.1411 11.3503 15.1675 11.4856L15.3989 11.4941C15.4126 11.4724 15.4258 11.4529 15.4375 11.4348C15.5049 11.3323 15.542 11.2761 15.5098 11.1614ZM5.8418 11.3064L5.78076 11.1294C5.76465 11.1309 5.74951 11.1309 5.7334 11.1309L5.69922 11.3123L5.8418 11.3064ZM7.73389 11.3123L7.68701 11.3135L7.67773 11.3533C7.60107 11.4062 7.57373 11.4495 7.5957 11.4949L7.73389 11.3123ZM15.8301 11.3123L15.7451 11.3816L15.71 11.4773L15.8672 11.4949L15.8994 11.4297L15.8301 11.3123ZM14.9585 11.7068C14.9521 11.7192 14.9478 11.7285 14.9976 11.762L14.9604 11.677C14.9658 11.6914 14.9619 11.6997 14.9585 11.7068ZM4.95117 12.189C4.95898 12.2651 4.98096 12.3396 5.01514 12.4087L5.01514 12.408L5.05078 12.1885L5.1333 11.6777L4.98682 11.8157L4.9541 11.8809C4.94189 11.9832 4.94092 12.0867 4.95117 12.189ZM5.45361 11.6797C5.40576 11.8579 5.36865 12.0386 5.34326 12.2209C5.29395 12.6013 5.32178 12.9563 5.54199 13.1348C5.53857 13.1145 5.53418 13.0923 5.53027 13.0686C5.49854 12.8982 5.45312 12.6506 5.52881 12.4858C5.49658 13.0681 5.71875 13.501 6.07764 13.688C5.92773 13.2939 5.77783 12.8994 5.62939 12.5044L5.57764 12.2209L5.479 11.6777L5.45361 11.6797ZM5.96777 12.7742C6.04297 12.6062 6.14014 12.5327 6.26611 12.4221L6.26611 12.4214L6.22705 12.3506L5.85449 11.6777L5.70801 11.6875L5.69922 11.7712C5.72754 11.9348 5.73926 12.1536 5.77637 12.3506C5.81006 12.5312 5.86377 12.6926 5.96777 12.7742ZM6.26611 11.6777C6.27881 11.9058 6.38184 12.1189 6.54346 12.2258L6.64453 12.1658C6.5791 11.8767 6.59766 11.752 6.26611 11.6777ZM6.83301 11.6777L7.00586 12.0432C7.00732 12.0276 7.0083 12.0122 7.00977 11.9971C7.02295 11.8477 7.03467 11.7195 6.83301 11.6777ZM16.0879 12.0425C16.0728 11.8816 16.0552 11.8201 15.9307 11.8867L15.7168 11.9858L15.71 12.0425L16.0879 12.0425ZM14.5132 11.8604L14.4521 11.8625C14.4316 11.9229 14.4092 11.9829 14.3872 12.0432L14.48 12.0388L14.5762 12.0034L14.5132 11.8604ZM15.5132 12.0432L15.71 11.866L15.4243 11.8604C15.394 11.9155 15.3628 11.9717 15.333 12.0276L15.3853 12.0227L15.5132 12.0432ZM15.1475 12.073C15.1411 12.0854 15.1362 12.0947 15.187 12.1282L15.1499 12.0432C15.1553 12.0576 15.1509 12.0659 15.1475 12.073ZM15.3354 12.728L15.3325 12.76L15.9458 12.7742C15.9565 12.7449 15.9668 12.7163 15.9771 12.6885C16.0449 12.5039 16.1016 12.3494 16.085 12.1621C16.0825 12.1331 16.0781 12.1025 16.0713 12.0715L15.6353 12.0432L15.583 12.1621L15.4473 12.4727L15.4995 12.3018L15.5215 12.2258L15.5044 12.2273L15.354 12.3018L15.3345 12.3108L15.3325 12.3335L15.4043 12.5701L15.3354 12.728ZM15.4043 12.5701L15.4111 12.5913L15.4473 12.4727L15.4043 12.5701ZM14.3877 12.5439L14.4351 12.5403L14.4502 12.4087L14.3877 12.5439ZM14.9546 12.5764L14.979 12.5913L15.144 12.5842L15.0654 12.4087L15.0376 12.4094L14.9546 12.5764ZM6.34326 13.3069C6.34912 13.3118 6.35596 13.3164 6.36328 13.3218L6.62061 12.7761L6.62549 12.7734C6.7627 13.0044 6.96143 13.1091 7.02148 13.4231L6.57324 13.8699C6.43408 13.7708 6.32715 13.6355 6.26611 13.4805L6.26709 13.4797L6.34326 13.3069ZM6.34326 13.3069C6.30029 13.2732 6.29443 13.2493 6.26709 13.1858L6.396 12.7168L6.54688 12.5906L6.64404 12.7268L6.62061 12.7761L6.56445 12.8074L6.34326 13.3069ZM8.34375 12.7493L8.44043 12.9407C8.47119 12.9458 8.50195 12.9509 8.5332 12.9563L8.4082 12.5906L8.38477 12.592L8.34375 12.7493ZM7.55078 12.9568L7.58838 12.8848L7.54785 12.7742L7.39941 12.7898C7.41357 12.8188 7.42773 12.8479 7.44238 12.877L7.55078 12.9568ZM14.8691 12.959C14.7544 12.9551 14.6626 12.9521 14.5771 13.0037L14.6143 13.124C14.6426 13.127 14.666 13.1299 14.6865 13.1326C14.7715 13.1436 14.8042 13.1477 14.9087 13.1077L14.9556 12.9612C14.9253 12.9609 14.8965 12.96 14.8691 12.959ZM7.98193 13.1389L7.96631 13.2969C8.0293 13.3049 8.09229 13.3132 8.15527 13.3218C8.10059 13.2324 8.06982 13.1978 7.98193 13.1389ZM8.45605 13.3218L8.5332 13.3147C8.50342 13.2566 8.4751 13.1978 8.44629 13.1389L8.34375 13.1489L8.38965 13.2056L8.45605 13.3218ZM14.9546 13.1396L15.04 13.2212C14.9834 13.1411 15.0376 13.1948 14.9546 13.1396ZM15.5269 13.2104L15.5215 13.4939L15.6812 13.5059C15.7529 13.3896 15.8257 13.2742 15.8994 13.1587L15.853 13.1624L15.5342 13.1396L15.5269 13.2104ZM8.15527 13.4656L7.96631 13.3218C8.00684 13.4436 8.05908 13.4634 8.15527 13.4656ZM13.2549 13.4038L13.3066 13.5051L13.3696 13.5002L13.4438 13.3528L13.3843 13.3225L13.2549 13.4038ZM13.2549 13.5249L13.1724 13.5051L13.1436 13.5073L13.0664 13.688L13.2515 13.5505C13.2524 13.542 13.2534 13.5334 13.2549 13.5249ZM7.21143 13.6873L6.83301 14.0393C7.02246 14.0435 7.21094 14.0476 7.39941 14.0535L7.21143 13.6873ZM8.15527 13.7566L7.97559 13.6873L7.96631 13.8196L8.05908 13.8098L8.15527 13.7566ZM7.74805 13.8706L7.72559 13.7126L7.58838 13.688L7.74805 13.8706ZM14.9546 14.0181L14.8086 13.688C14.6245 13.7339 14.5146 14.1045 14.6157 14.2368C14.7285 14.1631 14.8418 14.0908 14.9546 14.0181ZM13.7036 13.8706L13.7866 13.8672L13.8208 13.6887L13.687 13.7383L13.6323 13.8069L13.7036 13.8706ZM8.71191 13.9897L8.5376 13.8699C8.53564 13.8848 8.53418 13.8997 8.5332 13.9146L8.71191 13.9897ZM13.1758 14.0483L13.6323 13.9343L13.6108 13.8989L13.4507 13.8706C13.3496 13.9492 13.2397 14.0032 13.0693 14.0356C13.0679 14.0413 13.0664 14.0476 13.0664 14.0535L13.1758 14.0483ZM14.0098 14.0535L14.082 14.0464L14.1987 13.9373L14.1836 13.8904L14.1318 13.8706C14.0688 13.9299 14.0444 13.9463 14.0098 14.0535ZM8.72168 14.1306L8.53467 14.0535L8.1582 14.1411L8.15479 14.1638C8.18896 14.2708 8.20312 14.3694 8.31787 14.4189L8.71875 14.1519C8.71924 14.1448 8.72021 14.1377 8.72168 14.1306ZM8.34375 14.5088L8.63086 14.7852L8.91064 14.5549L8.84619 14.0542L8.34375 14.5088ZM9.85449 14.0542C9.92432 14.2412 10.2495 14.4067 10.4868 14.4197L10.6108 14.2375L9.85449 14.0542ZM13.7056 14.125C13.6821 14.1504 13.6582 14.176 13.6362 14.2014L13.6323 14.2368L13.8218 14.2205L13.7119 14.0542L13.7056 14.125ZM14.0093 14.1433L14.0981 14.2368L14.1494 14.2334L14.1987 14.0542L14.0093 14.1433ZM17.7876 14.0974L18.1655 14.2361L18.1543 14.0542L17.7876 14.0974ZM6.11133 14.4216L5.99609 14.2368L5.88184 14.3005C5.69531 14.4033 5.60498 14.6003 5.51074 14.8013L5.83154 15.0818C5.88135 15.0962 5.93701 15.0837 5.99365 15.071C6.06738 15.0547 6.14258 15.0378 6.20703 15.0813C6.27637 15.1279 6.27441 15.1978 6.27197 15.2742C6.27002 15.3352 6.26807 15.4009 6.30273 15.4622L6.98535 15.8816L7.20996 15.5034C6.79736 15.2971 6.42334 14.9346 6.17871 14.5557C6.13477 14.5896 6.104 14.6201 6.0791 14.6453C6.03125 14.6924 6.00391 14.7195 5.94873 14.7122L6.00781 14.6519L6.11133 14.4216ZM7.39941 14.4197L7.24805 14.2424L7.02148 14.2368L7.39941 14.4197ZM7.39941 14.2368L7.53857 14.5676L7.77783 14.6023C7.69385 14.4778 7.56494 14.2971 7.39941 14.2368ZM9.09912 14.2368L9.16553 14.4197L9.23633 14.261L9.09912 14.2368ZM10.6108 14.4197L10.7524 14.4097C10.7593 14.3516 10.7651 14.2942 10.7725 14.2368L10.6152 14.3757L10.6108 14.4197ZM7.39941 15.3333C7.28809 14.873 6.64453 14.6548 6.26611 14.4197C6.56201 14.8062 6.95068 15.1194 7.39941 15.3333ZM7.39941 15.3333C7.45996 15.4446 7.46729 15.4424 7.58838 15.4934L7.39941 15.3333ZM9.31689 14.4197L9.09912 14.7532L9.09912 14.7539C9.13037 14.9233 9.19727 15.0586 9.30566 15.1506C9.42578 14.9722 9.54688 14.7937 9.66553 14.615L9.31689 14.4197ZM14.1987 14.5181L14.2803 14.7852L14.5732 14.4443C14.5742 14.436 14.5752 14.4277 14.5771 14.4197L14.5474 14.4209C14.4307 14.4543 14.3149 14.4861 14.1987 14.5181ZM12.3462 14.6023L12.1216 14.7695L12.1802 14.7654C12.2705 14.8665 12.4214 14.9402 12.5957 14.9678L13.0664 14.7085L13.0425 14.6589L12.3462 14.6023ZM13.4438 14.6506L13.561 14.7852L13.6411 14.7795L13.8218 14.6023L13.4438 14.6506ZM9.81445 14.7852L9.71289 14.8425L9.67529 14.8962C9.65576 15.0444 9.66406 15.0854 9.73682 15.1506C9.82422 15.0408 9.90723 14.8899 9.81445 14.7852ZM10.7754 14.8701L10.335 14.7852L10.0439 15.2751L10.457 15.3333L10.7993 14.9268L10.7754 14.8701ZM12.1206 14.9678L11.772 14.7852C11.6992 14.8142 11.6274 14.844 11.5547 14.8723L12.1206 14.9678ZM13.4438 14.8872L13.3677 14.8176L13.2852 14.7852L12.877 14.9678L13.1699 14.9536L13.4438 14.8872ZM13.8208 15.0039C13.8477 15.0251 13.8726 15.0457 13.8994 15.0657L13.9751 15.1506L14.1987 15.0046L14.1704 14.7852L13.8789 15.0005L13.8208 15.0039ZM7.96631 15.0918L7.94531 15.0676L7.94531 15.0684L7.58838 14.9678C7.604 15.0486 7.64111 15.1243 7.69482 15.1882C7.74902 15.252 7.81934 15.3018 7.89844 15.3333L7.96631 15.0918ZM8.96045 14.9714L8.91064 15.0903L9.09912 15.1506L9.02734 14.9678L8.96045 14.9714ZM11.1768 15.1316L11.1309 15.0535L10.8394 14.9678C10.7495 15.0918 10.6665 15.1704 10.6108 15.3333L11.1323 15.2952L11.1768 15.1316ZM6.67676 16.24L7.02148 15.9851L6.99951 15.929C6.61963 15.8232 6.34814 15.542 6.0752 15.3022L6.06738 15.2087L5.89111 15.1509L5.89014 15.1499L5.88867 15.1499L5.88867 15.1499L5.88867 15.1499L5.83203 15.1541L5.69922 15.3071C5.72168 15.8589 5.99658 16.3081 6.67676 16.24ZM5.88867 15.1499L5.92334 15.2214C5.97363 15.259 6.02588 15.2952 6.07764 15.3325L6.0752 15.3022C6.01416 15.249 5.95312 15.1975 5.89111 15.1509L5.88867 15.1499L5.88867 15.1499ZM11.7417 15.2024C11.7422 15.1877 11.7432 15.1731 11.7437 15.1584L11.7432 15.1584C11.7148 15.1577 11.6943 15.1553 11.6777 15.1531C11.627 15.147 11.6201 15.146 11.5576 15.2249L11.5547 15.2688L11.6343 15.259L11.7417 15.2024ZM13.2549 15.29L13.6323 15.3333L13.522 15.1506L13.2549 15.29ZM8.07764 15.1548L7.96631 15.4119L8.11377 15.5161L8.30176 15.5042L8.53223 15.3533L8.48779 15.2881C8.43945 15.2688 8.40088 15.2458 8.36523 15.2246C8.28662 15.1775 8.21924 15.1375 8.07764 15.1548ZM12.27 15.3333L11.418 15.5679L11.3662 15.8044C11.4688 15.8391 11.5508 15.8792 11.6294 15.9172C11.814 16.0068 11.9761 16.0857 12.3232 16.0593C12.7803 15.8384 13.2339 15.6938 13.6323 15.5225L13.6084 15.458L12.27 15.3333ZM7.75 15.6543L7.27002 15.5161L7.02148 15.9241L7.46924 16.0645L7.77686 15.7087L7.75 15.6543ZM8.62939 15.5161L8.47754 15.5835L8.15527 15.6562L8.28174 15.6987L8.72168 15.5593L8.69482 15.5295L8.62939 15.5161ZM10.1943 15.6938C10.2065 15.6536 10.2173 15.613 10.23 15.5735L10.2329 15.5344L10.0439 15.5161C10.0757 15.5769 10.1079 15.6379 10.1396 15.6987C10.1572 15.6968 10.1758 15.6946 10.1943 15.6938ZM8.5332 15.9368L8.5918 15.9333C8.67871 16.0056 8.78906 16.0481 8.95508 16.0645L9.28857 15.7881L9.26465 15.7463L8.94873 15.6987L8.5332 15.9368ZM10.8257 15.7009C10.626 15.7026 10.4492 15.7039 10.3086 15.7449L10.2324 15.8342L10.7407 15.8816L10.9878 15.6987C10.9321 15.7 10.8779 15.7004 10.8257 15.7009ZM9.44824 15.8816L9.09912 16.1848L9.62451 16.2471C9.63818 16.1584 9.65137 16.0701 9.66602 15.9807L9.61182 15.8958L9.44824 15.8816ZM10.2329 16.145L10.2129 16.0969C10.1709 16.0903 10.1406 16.0828 10.1162 16.0767C10.0562 16.0615 10.0298 16.0549 9.94434 16.0928L9.85742 16.2224L9.85449 16.2471L9.97852 16.2378L10.2329 16.145ZM9.75977 16.4136L9.66602 17.3442L9.72559 17.3103L10.4214 16.2471L9.75977 16.4136ZM11.231 16.3767C11.272 16.3945 11.313 16.4124 11.3545 16.4299L11.3652 16.2585L11.1763 16.2471L11.231 16.3767ZM11.3657 16.4285L11.7231 16.6125C11.7573 16.4841 11.7417 16.4092 11.7197 16.3037C11.7158 16.2859 11.7119 16.2671 11.708 16.2471L11.3823 16.2705L11.3657 16.4285ZM12.1318 16.2471L11.9614 16.2578C12.0117 16.4016 11.9878 16.5872 11.9316 16.7698L12.6875 16.9788C12.5645 16.7075 12.3896 16.4121 12.1318 16.2471ZM15.144 16.3525L15.3325 16.2478L15.333 16.2478L15.2886 16.3398L15.144 16.3525ZM10.9878 16.585L10.7983 16.4299L10.9561 16.7954C10.979 16.6699 10.9878 16.6807 10.9878 16.585ZM11.1138 16.6487L10.9868 16.7153L11.4873 16.7954L11.5537 16.7329C11.5044 16.7178 11.459 16.6956 11.416 16.6743C11.314 16.6238 11.2236 16.5793 11.1138 16.6487ZM8.26904 17.1616L8.17041 17.2112L8.16943 17.2119L8.15479 17.3435L8.26904 17.1616Z" clip-rule="evenodd" fill="#FFFFFF" fill-opacity="1.000000" fill-rule="evenodd"/>
	</g>
</svg>
