<svg width="18.000000" height="18.000000" viewBox="0 0 18 18" fill="none" xmlns="http://www.w3.org/2000/svg" xmlns:xlink="http://www.w3.org/1999/xlink">
	<desc>
			Created with Pixso.
	</desc>
	<defs>
		<clipPath id="clip4_6982">
			<rect id="Icon/lang" rx="-0.500000" width="17.000000" height="17.000000" transform="translate(0.500000 0.500000)" fill="white" fill-opacity="0"/>
		</clipPath>
	</defs>
	<rect id="Icon/lang" rx="-0.500000" width="17.000000" height="17.000000" transform="translate(0.500000 0.500000)" fill="#FFFFFF" fill-opacity="0"/>
	<g clip-path="url(#clip4_6982)">
		<rect id="Frame 149" rx="-0.500000" width="17.000000" height="17.000000" transform="translate(0.500000 0.500000)" fill="#FFFFFF" fill-opacity="0"/>
		<path id="Vector" d="M17.49 11.96C17.83 11 18 10 18 9C18 7.96 17.82 6.93 17.47 5.95C16.22 2.48 12.89 0 9 0C5.1 0 1.77 2.48 0.52 5.95C0.17 6.93 -0.01 7.96 0 9C-0.01 10.03 0.17 11.06 0.52 12.04C1.77 15.51 5.1 18 9 18C12.89 18 16.22 15.51 17.47 12.04C17.48 12.01 17.49 11.98 17.49 11.96ZM9 16.71C8.65 16.71 8.1 16.08 7.64 14.7C7.4 13.96 7.22 13.2 7.11 12.42L10.89 12.42C10.76 13.26 10.58 14.03 10.35 14.7C9.89 16.08 9.34 16.71 9 16.71L9 16.71ZM6.95 11.13C6.82 9.71 6.82 8.28 6.95 6.86L11.04 6.86C11.17 8.28 11.17 9.71 11.04 11.13L6.95 11.13ZM1.28 9C1.28 8.25 1.39 7.53 1.59 6.86L5.65 6.86C5.53 8.28 5.53 9.71 5.65 11.13L1.59 11.13C1.39 10.44 1.28 9.72 1.28 9L1.28 9ZM9 1.28C9.34 1.28 9.89 1.91 10.35 3.29C10.58 3.96 10.75 4.73 10.88 5.57L7.1 5.57C7.23 4.73 7.41 3.96 7.64 3.29C8.1 1.91 8.65 1.28 8.99 1.28L9 1.28ZM12.33 6.86L16.4 6.86C16.81 8.25 16.81 9.74 16.4 11.13L12.33 11.13C12.46 9.71 12.46 8.28 12.33 6.86ZM15.9 5.56L12.19 5.56C11.96 3.98 11.56 2.56 11.01 1.55C12.06 1.84 13.04 2.35 13.88 3.04C14.72 3.73 15.41 4.59 15.9 5.56ZM6.98 1.55C6.43 2.56 6.03 3.98 5.8 5.56L2.09 5.56C2.58 4.59 3.26 3.73 4.11 3.04C4.95 2.35 5.93 1.84 6.98 1.55L6.98 1.55ZM2.09 12.43L5.8 12.43C6.03 14.01 6.43 15.43 6.98 16.44C5.93 16.15 4.95 15.64 4.11 14.95C3.27 14.26 2.58 13.4 2.09 12.43ZM11.01 16.44C11.56 15.43 11.96 14.01 12.19 12.43L15.9 12.43C15.41 13.4 14.72 14.26 13.88 14.95C13.04 15.64 12.06 16.15 11.01 16.44Z" fill="#FFFFFF" fill-opacity="1.000000" fill-rule="evenodd"/>
	</g>
</svg>
