<svg width="24.000000" height="24.000000" viewBox="0 0 24 24" fill="none" xmlns="http://www.w3.org/2000/svg" xmlns:xlink="http://www.w3.org/1999/xlink">
	<desc>
			Created with Pixso.
	</desc>
	<defs>
		<clipPath id="clip7_6823">
			<rect id="Icon/email-circle" rx="-0.500000" width="23.000000" height="23.000000" transform="translate(0.500000 0.500000)" fill="white" fill-opacity="0"/>
		</clipPath>
	</defs>
	<rect id="Icon/email-circle" rx="-0.500000" width="23.000000" height="23.000000" transform="translate(0.500000 0.500000)" fill="#FFFFFF" fill-opacity="0"/>
	<g clip-path="url(#clip7_6823)">
		<path id="Subtract" d="M12 0C5.37256 0 0 5.37256 0 12C0 18.6274 5.37256 24 12 24C18.6274 24 24 18.6274 24 12C24 5.37256 18.6274 0 12 0ZM5.39111 17.2747C5.65283 17.5359 5.9668 17.6667 6.3335 17.6667L17 17.6667C17.3662 17.667 17.6802 17.5366 17.9414 17.2754C18.2026 17.0139 18.3335 16.7 18.3335 16.3333L18.3335 8.33325C18.334 7.96704 18.2031 7.65332 17.9419 7.39209C17.6807 7.13062 17.3667 7 17 7L6.3335 7C6.15576 6.99976 5.99072 7.03027 5.83789 7.09155C5.67529 7.15674 5.52686 7.25659 5.39209 7.39136C5.13086 7.65259 5 7.96655 5 8.33325L5 16.3333C5 16.5107 5.03027 16.6758 5.09131 16.8286C5.15674 16.9912 5.25684 17.1399 5.39111 17.2747ZM17 9.66675L11.6665 13L6.3335 9.66675L6.3335 8.33325L11.6665 11.6667L17 8.33325L17 9.66675Z" clip-rule="evenodd" fill="#FFFFFF" fill-opacity="1.000000" fill-rule="evenodd"/>
		<g opacity="0.000000"/>
	</g>
</svg>
