<svg width="24.000000" height="24.000000" viewBox="0 0 24 24" fill="none" xmlns="http://www.w3.org/2000/svg" xmlns:xlink="http://www.w3.org/1999/xlink">
	<desc>
			Created with Pixso.
	</desc>
	<defs>
		<clipPath id="clip7_6845">
			<rect id="Icon/blog" rx="-0.500000" width="23.000000" height="23.000000" transform="translate(0.500000 0.500000)" fill="white" fill-opacity="0"/>
		</clipPath>
	</defs>
	<rect id="Icon/blog" rx="-0.500000" width="23.000000" height="23.000000" transform="translate(0.500000 0.500000)" fill="#FFFFFF" fill-opacity="0"/>
	<g clip-path="url(#clip7_6845)">
		<circle id="Ellipse 23" cx="12.000000" cy="12.000000" r="12.000000" fill="#1C64F2" fill-opacity="1.000000"/>
		<path id="Vector" d="M6.41 19C6.01 19 5.67 18.86 5.4 18.59C5.13 18.32 5 17.98 5 17.58L5 6.41C5 6.01 5.13 5.67 5.4 5.4C5.67 5.13 6.01 5 6.41 5L15.12 5L19 8.87L19 17.58C19 17.98 18.86 18.32 18.59 18.59C18.32 18.86 17.98 19 17.58 19L6.41 19ZM8.06 15.5L15.93 15.5L15.93 14.62L8.06 14.62L8.06 15.5ZM8.06 12.43L15.93 12.43L15.93 11.56L8.06 11.56L8.06 12.43ZM14 10L18.12 9.37L14.62 5.87L14 10ZM8.06 9.37L12 9.37L12 8.5L8.06 8.5L8.06 9.37Z" fill="#000000" fill-opacity="1.000000" fill-rule="nonzero"/>
	</g>
</svg>
