<svg width="36.000000" height="36.000000" viewBox="0 0 36 36" fill="none" xmlns="http://www.w3.org/2000/svg" xmlns:xlink="http://www.w3.org/1999/xlink">
	<desc>
			Created with Pixso.
	</desc>
	<defs>
		<clipPath id="clip4_7513">
			<rect id="Frame" rx="-0.500000" width="19.000000" height="19.000000" transform="translate(8.500000 8.500000)" fill="white" fill-opacity="0"/>
		</clipPath>
		<clipPath id="clip4_7514">
			<rect id="Icon/tg-colored" rx="9.500000" width="35.000000" height="35.000000" transform="translate(0.500000 0.500000)" fill="white" fill-opacity="0"/>
		</clipPath>
		<linearGradient x1="-0.141732" y1="17.999996" x2="35.858269" y2="17.999996" id="paint_linear_4_7514_0" gradientUnits="userSpaceOnUse">
			<stop stop-color="#1C64F2"/>
			<stop offset="1.000000" stop-color="#D41CF2"/>
		</linearGradient>
	</defs>
	<rect id="Icon/tg-colored" rx="9.500000" width="35.000000" height="35.000000" transform="translate(0.500000 0.500000)" fill="url(#paint_linear_4_7514_0)" fill-opacity="1.000000"/>
	<g clip-path="url(#clip4_7514)">
		<rect id="Frame" rx="-0.500000" width="19.000000" height="19.000000" transform="translate(8.500000 8.500000)" fill="#FFFFFF" fill-opacity="0"/>
		<g clip-path="url(#clip4_7513)">
			<path id="Vector" d="M24.48 11.69C24.68 11.6 24.91 11.57 25.13 11.6C25.35 11.63 25.56 11.72 25.73 11.86C25.91 12 26.05 12.18 26.13 12.39C26.21 12.6 26.23 12.82 26.19 13.04L24.3 24.51C24.12 25.61 22.91 26.25 21.89 25.7C21.04 25.23 19.79 24.52 18.65 23.78C18.08 23.41 16.35 22.23 16.56 21.38C16.75 20.66 19.66 17.94 21.33 16.33C21.98 15.69 21.68 15.33 20.91 15.91C18.99 17.36 15.91 19.56 14.9 20.18C14 20.73 13.53 20.82 12.97 20.73C11.95 20.56 11 20.3 10.23 19.98C9.18 19.54 9.23 18.11 10.23 17.69L24.48 11.69Z" fill="#FFFFFF" fill-opacity="1.000000" fill-rule="evenodd"/>
		</g>
	</g>
</svg>
