<svg width="97.000000" height="29.000000" viewBox="0 0 97 29" fill="none" xmlns="http://www.w3.org/2000/svg" xmlns:xlink="http://www.w3.org/1999/xlink">
	<desc>
			Created with Pixso.
	</desc>
	<defs>
		<clipPath id="clip4_6967">
			<rect id="Frame 40325" rx="3.500000" width="53.119339" height="28.000000" transform="translate(43.380859 0.500000)" fill="white" fill-opacity="0"/>
		</clipPath>
	</defs>
	<path id="Bot" d="M0 22.22L0 4.71L7.08 4.71Q8.82 4.71 10.19 5.43L10.19 5.43Q10.74 5.72 11.23 6.12Q12.41 7.07 12.78 8.27Q12.95 8.82 12.95 9.44Q12.95 9.73 12.91 10.01L12.91 10.01Q12.78 10.82 12.27 11.58Q11.78 12.31 11.09 12.72L11.09 12.72Q10.84 12.87 10.58 12.97Q11.26 13.12 11.82 13.47Q12.42 13.85 12.88 14.44Q13.17 14.84 13.37 15.27L13.37 15.27Q13.76 16.13 13.76 17.17Q13.76 18.05 13.47 18.82Q13.04 19.91 12.03 20.77Q11.4 21.29 10.69 21.63Q9.42 22.22 7.88 22.22L0 22.22ZM34.92 13.75L38 13.75L38 9.89L34.92 9.89L34.92 6.74L30.71 6.74L30.71 9.89L28.34 9.89L28.34 13.75L30.71 13.75L30.71 16.97Q30.71 19.04 31.7 20.4Q31.92 20.7 32.18 20.96Q32.54 21.32 32.96 21.59Q34.24 22.42 36.05 22.42Q37.27 22.42 38 22.22L38 18.52C37.74 18.59 37.41 18.62 37.03 18.62C36.41 18.62 35.9 18.47 35.51 18.18C35.12 17.89 34.92 17.46 34.92 16.9L34.92 13.75ZM4.47 11.6L6.87 11.6Q7.33 11.6 7.69 11.41Q7.87 11.32 8.02 11.18Q8.27 10.95 8.39 10.66Q8.48 10.44 8.48 10.17Q8.48 9.96 8.42 9.78Q8.31 9.45 8 9.18Q7.84 9.03 7.64 8.94Q7.3 8.77 6.87 8.77L4.47 8.77L4.47 11.6ZM16.52 11.49Q17.23 10.81 18.08 10.37Q19.51 9.65 21.31 9.65Q23.1 9.65 24.53 10.36Q25.39 10.8 26.12 11.49Q27 12.32 27.48 13.34Q28.06 14.58 28.06 16.09Q28.06 17.28 27.68 18.32Q27.48 18.86 27.18 19.35C26.58 20.33 25.77 21.1 24.75 21.65C23.72 22.19 22.57 22.47 21.31 22.47Q19.47 22.47 18.02 21.72Q17.21 21.3 16.52 20.65Q15.67 19.84 15.19 18.85Q14.6 17.61 14.6 16.09Q14.6 14.51 15.23 13.23Q15.7 12.27 16.52 11.49ZM20.13 13.76Q19.77 13.93 19.48 14.24Q19.21 14.5 19.04 14.82Q18.74 15.38 18.74 16.09Q18.74 16.74 19 17.25Q19.18 17.61 19.48 17.9Q19.75 18.17 20.07 18.34Q20.62 18.62 21.31 18.62Q22.07 18.62 22.64 18.3Q22.93 18.14 23.18 17.9Q23.49 17.6 23.67 17.22Q23.92 16.72 23.92 16.09Q23.92 15.4 23.64 14.85Q23.46 14.52 23.18 14.24Q22.91 13.96 22.58 13.79Q22.03 13.49 21.31 13.49Q20.66 13.49 20.13 13.76ZM4.47 18.17L7.48 18.17Q7.92 18.17 8.28 18Q8.53 17.88 8.74 17.68Q9.03 17.41 9.16 17.08Q9.26 16.81 9.26 16.5C9.26 16.03 9.09 15.64 8.75 15.31C8.42 14.99 8.01 14.82 7.53 14.82L4.47 14.82L4.47 18.17Z" fill="#FFFFFF" fill-opacity="1.000000" fill-rule="evenodd"/>
	<rect id="Frame 40325" rx="3.500000" width="53.119339" height="28.000000" transform="translate(43.380859 0.500000)" fill="#1C64F2" fill-opacity="1.000000"/>
	<g clip-path="url(#clip4_6967)">
		<path id="hub" d="M56.63 9.65Q58.58 9.65 59.86 10.57L59.86 10.57Q60.21 10.82 60.52 11.15Q60.62 11.26 60.71 11.37Q61.92 12.84 61.92 15.3L61.92 22.22L57.69 22.22L57.69 15.82C57.69 15.12 57.49 14.56 57.1 14.14Q56.9 13.92 56.66 13.78Q56.18 13.49 55.53 13.49Q54.92 13.49 54.45 13.75Q54.18 13.9 53.96 14.14Q53.86 14.24 53.78 14.36Q53.37 14.95 53.37 15.82L53.37 22.22L49.15 22.22L49.15 4.71L53.37 4.71L53.37 11.32Q54 10.46 54.85 10.04Q55.64 9.65 56.63 9.65ZM88.2 9.89Q87.42 9.65 86.56 9.65C84.94 9.65 83.67 10.23 82.76 11.39L82.76 4.71L78.55 4.71L78.55 22.22L82.76 22.22L82.76 20.72C83.67 21.88 84.94 22.47 86.56 22.47C88.19 22.47 89.58 21.84 90.72 20.6C91.87 19.35 92.44 17.84 92.44 16.07Q92.44 14.83 92.05 13.74Q91.89 13.29 91.66 12.86C91.15 11.87 90.43 11.09 89.53 10.51Q88.89 10.11 88.2 9.89ZM72.39 9.89L76.62 9.89L76.62 22.22L72.39 22.22L72.39 20.82Q71.73 21.7 70.85 22.11Q70.08 22.47 69.15 22.47Q67.19 22.47 65.9 21.54L65.9 21.54Q65.55 21.29 65.25 20.98Q65.15 20.87 65.05 20.75Q63.85 19.28 63.85 16.83L63.85 9.89L68.07 9.89L68.07 16.3C68.07 17 68.26 17.56 68.66 17.99Q68.84 18.18 69.07 18.32Q69.57 18.62 70.25 18.62Q70.9 18.62 71.38 18.33Q71.61 18.19 71.79 17.99C72.19 17.56 72.39 17 72.39 16.3L72.39 9.89ZM86.76 18.4Q86.21 18.65 85.55 18.65C84.77 18.65 84.11 18.4 83.57 17.9C83.03 17.4 82.76 16.79 82.76 16.07C82.76 15.34 83.03 14.73 83.57 14.24C84.11 13.74 84.77 13.49 85.55 13.49Q86.26 13.49 86.83 13.77Q87.2 13.95 87.51 14.24C88.05 14.73 88.32 15.34 88.32 16.07C88.32 16.79 88.05 17.4 87.51 17.9Q87.16 18.22 86.76 18.4Z" fill="#FFFFFF" fill-opacity="1.000000" fill-rule="evenodd"/>
	</g>
</svg>
