<svg width="50.000000" height="50.000000" viewBox="0 0 50 50" fill="none" xmlns="http://www.w3.org/2000/svg" xmlns:xlink="http://www.w3.org/1999/xlink">
	<desc>
			Created with Pixso.
	</desc>
	<defs>
		<filter id="filter_7_7408_dd" x="-87.773438" y="16.957031" width="131.193359" height="67.592453" filterUnits="userSpaceOnUse" color-interpolation-filters="sRGB">
			<feFlood flood-opacity="0" result="BackgroundImageFix"/>
			<feBlend mode="normal" in="SourceGraphic" in2="BackgroundImageFix" result="shape"/>
			<feGaussianBlur stdDeviation="5.33333" result="effect_layerBlur_1"/>
		</filter>
		<filter id="filter_7_7409_dd" x="0.092773" y="-28.899162" width="80.640137" height="58.608131" filterUnits="userSpaceOnUse" color-interpolation-filters="sRGB">
			<feFlood flood-opacity="0" result="BackgroundImageFix"/>
			<feBlend mode="normal" in="SourceGraphic" in2="BackgroundImageFix" result="shape"/>
			<feGaussianBlur stdDeviation="5.33333" result="effect_layerBlur_1"/>
		</filter>
		<clipPath id="clip7_7412">
			<rect id="avatar" rx="-0.500000" width="49.000000" height="49.000000" transform="translate(0.500000 0.500000)" fill="white" fill-opacity="0"/>
		</clipPath>
		<linearGradient x1="25.000000" y1="0.000000" x2="25.000000" y2="50.000000" id="paint_linear_7_7405_0" gradientUnits="userSpaceOnUse">
			<stop offset="0.152560" stop-color="#121825"/>
			<stop offset="1.000000" stop-color="#051744"/>
		</linearGradient>
	</defs>
	<g clip-path="url(#clip7_7412)">
		<path id="Polygon 2" d="M25 0L21.27 0.27L17.63 1.11L14.15 2.47L10.91 4.34L7.99 6.67L5.45 9.41L3.34 12.5L1.72 15.86L0.62 19.43L0.06 23.13L0.06 26.86L0.62 30.56L1.72 34.13L3.34 37.5L5.45 40.58L7.99 43.32L10.91 45.65L14.15 47.52L17.63 48.88L21.27 49.72L25 50L28.72 49.72L32.36 48.88L35.84 47.52L39.08 45.65L42 43.32L44.54 40.58L46.65 37.5L48.27 34.13L49.37 30.56L49.93 26.86L49.93 23.13L49.37 19.43L48.27 15.86L46.65 12.5L44.54 9.41L42 6.67L39.08 4.34L35.84 2.47L32.36 1.11L28.72 0.27L25 0Z" fill="url(#paint_linear_7_7405_0)" fill-opacity="1.000000" fill-rule="evenodd"/>
		<path id="Polygon 2" d="M21.27 0.27L17.63 1.11L14.15 2.47L10.91 4.34L7.99 6.67L5.45 9.41L3.34 12.5L1.72 15.86L0.62 19.43L0.06 23.13L0.06 26.86L0.62 30.56L1.72 34.13L3.34 37.5L5.45 40.58L7.99 43.32L10.91 45.65L14.15 47.52L17.63 48.88L21.27 49.72L25 50L28.72 49.72L32.36 48.88L35.84 47.52L39.08 45.65L42 43.32L44.54 40.58L46.65 37.5L48.27 34.13L49.37 30.56L49.93 26.86L49.93 23.13L49.37 19.43L48.27 15.86L46.65 12.5L44.54 9.41L42 6.67L39.08 4.34L35.84 2.47L32.36 1.11L28.72 0.27L25 0L21.27 0.27ZM21.42 1.27L17.92 2.06L14.58 3.37L11.48 5.17L8.67 7.4L6.23 10.03L4.21 13L2.66 16.23L1.6 19.66L1.06 23.2L1.06 26.79L1.6 30.33L2.66 33.76L4.21 36.99L6.23 39.96L8.67 42.59L11.48 44.82L14.58 46.62L17.92 47.93L21.42 48.72L25 48.99L28.57 48.72L32.07 47.93L35.41 46.62L38.51 44.82L41.32 42.59L43.76 39.96L45.78 36.99L47.33 33.76L48.39 30.33L48.93 26.79L48.93 23.2L48.39 19.66L47.33 16.23L45.78 13L43.76 10.03L41.32 7.4L38.51 5.17L35.41 3.37L32.07 2.06L28.57 1.27L25 1L21.42 1.27Z" fill="#222B44" fill-opacity="1.000000" fill-rule="evenodd"/>
		<mask id="mask7_7406" mask-type="alpha" maskUnits="userSpaceOnUse" x="0.000000" y="0.000000" width="50.000000" height="50.000000">
			<path id="Polygon 1" d="M25 0L21.27 0.27L17.63 1.11L14.15 2.47L10.91 4.34L7.99 6.67L5.45 9.41L3.34 12.5L1.72 15.86L0.62 19.43L0.06 23.13L0.06 26.86L0.62 30.56L1.72 34.13L3.34 37.5L5.45 40.58L7.99 43.32L10.91 45.65L14.15 47.52L17.63 48.88L21.27 49.72L25 50L28.72 49.72L32.36 48.88L35.84 47.52L39.08 45.65L42 43.32L44.54 40.58L46.65 37.5L48.27 34.13L49.37 30.56L49.93 26.86L49.93 23.13L49.37 19.43L48.27 15.86L46.65 12.5L44.54 9.41L42 6.67L39.08 4.34L35.84 2.47L32.36 1.11L28.72 0.27L25 0Z" fill="#121825" fill-opacity="1.000000" fill-rule="evenodd"/>
			<path id="Polygon 1" d="M21.27 0.27L17.63 1.11L14.15 2.47L10.91 4.34L7.99 6.67L5.45 9.41L3.34 12.5L1.72 15.86L0.62 19.43L0.06 23.13L0.06 26.86L0.62 30.56L1.72 34.13L3.34 37.5L5.45 40.58L7.99 43.32L10.91 45.65L14.15 47.52L17.63 48.88L21.27 49.72L25 50L28.72 49.72L32.36 48.88L35.84 47.52L39.08 45.65L42 43.32L44.54 40.58L46.65 37.5L48.27 34.13L49.37 30.56L49.93 26.86L49.93 23.13L49.37 19.43L48.27 15.86L46.65 12.5L44.54 9.41L42 6.67L39.08 4.34L35.84 2.47L32.36 1.11L28.72 0.27L25 0L21.27 0.27ZM21.42 1.27L17.92 2.06L14.58 3.37L11.48 5.17L8.67 7.4L6.23 10.03L4.21 13L2.66 16.23L1.6 19.66L1.06 23.2L1.06 26.79L1.6 30.33L2.66 33.76L4.21 36.99L6.23 39.96L8.67 42.59L11.48 44.82L14.58 46.62L17.92 47.93L21.42 48.72L25 48.99L28.57 48.72L32.07 47.93L35.41 46.62L38.51 44.82L41.32 42.59L43.76 39.96L45.78 36.99L47.33 33.76L48.39 30.33L48.93 26.79L48.93 23.2L48.39 19.66L47.33 16.23L45.78 13L43.76 10.03L41.32 7.4L38.51 5.17L35.41 3.37L32.07 2.06L28.57 1.27L25 1L21.42 1.27Z" fill="#222B44" fill-opacity="1.000000" fill-rule="evenodd"/>
		</mask>
		<g mask="url(#mask7_7406)">
			<path id="Vector" d="M35.15 23.87L35.15 20.74C35.15 20.19 34.92 19.65 34.49 19.26C34.07 18.86 33.5 18.64 32.9 18.64L26.12 18.64L26.12 17.26C26.47 16.97 26.69 16.55 26.69 16.09C26.69 15.67 26.51 15.27 26.19 14.97C25.87 14.68 25.44 14.51 24.99 14.51C24.55 14.51 24.12 14.68 23.8 14.97C23.48 15.27 23.3 15.67 23.3 16.09C23.3 16.55 23.52 16.97 23.87 17.26L23.87 18.64L17.09 18.64C16.49 18.64 15.92 18.86 15.5 19.26C15.07 19.65 14.83 20.19 14.83 20.74L14.83 23.9L14.75 23.9C14.47 23.92 14.2 24.04 14.01 24.24C13.81 24.43 13.71 24.69 13.71 24.95L13.71 27.06C13.71 27.34 13.83 27.61 14.04 27.8C14.25 28 14.54 28.11 14.83 28.11L14.83 33.37C14.83 33.93 15.07 34.47 15.5 34.86C15.92 35.26 16.49 35.48 17.09 35.48L32.9 35.48C33.5 35.48 34.07 35.26 34.49 34.86C34.92 34.47 35.15 33.93 35.15 33.37L35.15 28.11C35.45 28.11 35.74 28 35.95 27.8C36.16 27.61 36.28 27.34 36.28 27.06L36.28 25.02C36.3 24.86 36.27 24.69 36.2 24.54C35.97 24.03 35.49 23.9 35.15 23.87ZM19.35 24.95C19.35 23.79 20.11 22.85 21.04 22.85C21.98 22.85 22.74 23.79 22.74 24.95C22.74 26.12 21.98 27.06 21.04 27.06C20.11 27.06 19.35 26.12 19.35 24.95ZM29.51 31.27C28.38 31.27 20.48 31.27 20.48 31.27L20.48 29.16C20.48 29.16 28.38 29.16 29.51 29.16L29.51 31.27ZM28.95 27.06C28.01 27.06 27.25 26.12 27.25 24.95C27.25 23.79 28.01 22.85 28.95 22.85C29.88 22.85 30.64 23.79 30.64 24.95C30.64 26.12 29.88 27.06 28.95 27.06Z" fill="#FFFFFF" fill-opacity="1.000000" fill-rule="nonzero"/>
		</g>
		<g mask="url(#mask7_7406)">
			<g filter="url(#filter_7_7408_dd)">
				<path id="Ellipse 17" d="M27.41 50.52C27.41 62.91 19.33 68.54 -12.12 68.54C-43.57 68.54 -71.78 55.93 -71.78 43.53C-71.78 31.13 -35.08 33.06 -3.63 33.06C18.14 43.53 27.41 50.52 27.41 50.52Z" fill="#017BFF" fill-opacity="1.000000" fill-rule="nonzero"/>
			</g>
			<g filter="url(#filter_7_7409_dd)">
				<path id="Ellipse 18" d="M43.42 -12.06C57.83 -13.84 63.54 -13.53 64.73 -3.91C60.23 5.52 62.4 11.93 47.98 13.7C44.84 -1.32 16.51 4.16 16.12 -1.22C14.94 -10.83 43.42 -12.06 43.42 -12.06Z" fill="#DB01FF" fill-opacity="1.000000" fill-rule="nonzero"/>
			</g>
		</g>
	</g>
</svg>
