<svg width="36.000000" height="36.000000" viewBox="0 0 36 36" fill="none" xmlns="http://www.w3.org/2000/svg" xmlns:xlink="http://www.w3.org/1999/xlink">
	<desc>
			Created with Pixso.
	</desc>
	<defs>
		<clipPath id="clip4_7520">
			<rect id="Frame" rx="-0.500000" width="19.000000" height="19.000000" transform="translate(8.500000 8.500000)" fill="white" fill-opacity="0"/>
		</clipPath>
		<clipPath id="clip4_7521">
			<rect id="Icon/business-colored" rx="9.500000" width="35.000000" height="35.000000" transform="translate(0.500000 0.500000)" fill="white" fill-opacity="0"/>
		</clipPath>
		<linearGradient x1="-0.141732" y1="17.999996" x2="35.858269" y2="17.999996" id="paint_linear_4_7521_0" gradientUnits="userSpaceOnUse">
			<stop stop-color="#1C64F2"/>
			<stop offset="1.000000" stop-color="#D41CF2"/>
		</linearGradient>
	</defs>
	<rect id="Icon/business-colored" rx="9.500000" width="35.000000" height="35.000000" transform="translate(0.500000 0.500000)" fill="url(#paint_linear_4_7521_0)" fill-opacity="1.000000"/>
	<g clip-path="url(#clip4_7521)">
		<rect id="Frame" rx="-0.500000" width="19.000000" height="19.000000" transform="translate(8.500000 8.500000)" fill="#FFFFFF" fill-opacity="0"/>
		<g clip-path="url(#clip4_7520)">
			<path id="Vector" d="M18.83 21.33L17.16 21.33C16.7 21.33 16.33 20.95 16.33 20.5L10.5 20.5L10.5 23.83C10.5 24.75 11.25 25.5 12.17 25.5L23.83 25.5C24.75 25.5 25.5 24.75 25.5 23.83L25.5 20.5L19.66 20.5C19.66 20.95 19.29 21.33 18.83 21.33ZM24.66 13.83L21.33 13.83C21.33 11.99 19.84 10.5 18 10.5C16.15 10.5 14.66 11.99 14.66 13.83L11.33 13.83C10.41 13.83 9.66 14.58 9.66 15.5L9.66 18C9.66 18.92 10.4 19.66 11.33 19.66L16.33 19.66L16.33 18.83C16.33 18.37 16.7 18 17.16 18L18.83 18C19.29 18 19.66 18.37 19.66 18.83L19.66 19.66L24.66 19.66C25.58 19.66 26.33 18.91 26.33 18L26.33 15.5C26.33 14.58 25.58 13.83 24.66 13.83ZM16.33 13.83C16.33 12.91 17.08 12.16 18 12.16C18.91 12.16 19.66 12.91 19.66 13.83L16.32 13.83L16.33 13.83Z" fill="#FFFFFF" fill-opacity="1.000000" fill-rule="nonzero"/>
		</g>
	</g>
</svg>
